<?xml version="1.0" encoding="utf-8"?>
<!-- Generator: Adobe Illustrator 16.0.4, SVG Export Plug-In . SVG Version: 6.00 Build 0)  -->
<!DOCTYPE svg PUBLIC "-//W3C//DTD SVG 1.1//EN" "http://www.w3.org/Graphics/SVG/1.1/DTD/svg11.dtd">
<svg version="1.1" id="Layer_1" xmlns="http://www.w3.org/2000/svg" xmlns:xlink="http://www.w3.org/1999/xlink" x="0px" y="0px"
	 width="50px" height="50px" viewBox="0 0 50 50" enable-background="new 0 0 50 50" xml:space="preserve">
<g>
	<polygon fill="#B3B3B3" points="24.925,0 1.4,8.279 5.118,39.1 24.95,50 44.884,38.952 48.6,8.132 	"/>
	<polygon fill="#A6120D" points="46.254,9.914 24.87,2.622 24.87,47.396 42.79,37.478 	"/>
	<polygon fill="#DD1B16" points="4.04,10.045 7.226,37.609 24.87,47.396 24.87,2.621 	"/>
	<path fill="#F2F2F2" d="M30.756,26.457l-5.886,2.752h-6.204l-2.916,7.295l-5.425,0.101L24.87,4.247L30.756,26.457z M30.188,25.071
		l-5.278-10.449l-4.33,10.269h4.291L30.188,25.071z"/>
	<polygon fill="#B3B3B3" points="24.87,4.247 24.909,14.622 29.821,24.899 24.881,24.899 24.87,29.203 31.701,29.209 34.895,36.605 
		40.085,36.701 	"/>
</g>
</svg>
