<?xml version="1.0" encoding="utf-8"?>
<!-- Generator: Adobe Illustrator 16.0.4, SVG Export Plug-In . SVG Version: 6.00 Build 0)  -->
<!DOCTYPE svg PUBLIC "-//W3C//DTD SVG 1.1//EN" "http://www.w3.org/Graphics/SVG/1.1/DTD/svg11.dtd">
<svg version="1.1" id="Layer_1" xmlns="http://www.w3.org/2000/svg" xmlns:xlink="http://www.w3.org/1999/xlink" x="0px" y="0px"
	 width="50px" height="50px" viewBox="0 0 50 50" enable-background="new 0 0 50 50" xml:space="preserve">
<g id="Page_1" transform="matrix(0.17893165,0,0,0.17893165,-129.37356,1149.0013)">
	<g id="BackBone.JS">
		<path id="Path" fill="#002A41" stroke="#848484" d="M754.76-6415.852v145.077l107.989,61.558v-41.844l-72.244-41.179v-64.679
			l72.244,41.178v-38.553L754.76-6415.852z"/>
		<path id="path2996" fill="#0071B5" stroke="#848484" d="M970.742-6415.852v145.077l-107.992,61.558v-41.844l72.239-41.179v-64.679
			l-72.239,41.178v-38.553L970.742-6415.852z"/>
		<path id="path2998" fill="#0071B5" stroke="#848484" d="M754.76-6147.594v-145.08l107.989-61.558v41.847l-72.244,41.173v61.394
			l72.244-41.179v41.845L754.76-6147.594z"/>
		<path id="path3000" fill="#002A41" stroke="#848484" d="M970.742-6147.594v-145.08l-107.992-61.558v41.847l72.239,41.173v61.394
			l-72.239-41.179v41.845L970.742-6147.594z"/>
	</g>
</g>
</svg>
