<?xml version="1.0" encoding="utf-8"?>
<!-- Generator: Adobe Illustrator 16.0.4, SVG Export Plug-In . SVG Version: 6.00 Build 0)  -->
<!DOCTYPE svg PUBLIC "-//W3C//DTD SVG 1.1//EN" "http://www.w3.org/Graphics/SVG/1.1/DTD/svg11.dtd">
<svg version="1.1" id="Layer_1" xmlns="http://www.w3.org/2000/svg" xmlns:xlink="http://www.w3.org/1999/xlink" x="0px" y="0px"
	 width="140px" height="140px" viewBox="0 0 140 140" enable-background="new 0 0 140 140" xml:space="preserve" xmlns:inkscape="http://www.inkscape.org/namespaces/inkscape"
   inkscape:version="0.48.1 r9760">
<g id="layer1">

		<linearGradient id="rect3050_1_" gradientUnits="userSpaceOnUse" x1="293.126" y1="-337.208" x2="405.8779" y2="-222.4866" gradientTransform="matrix(1 0 0 -1 -279.5 -209)">
		<stop  offset="0" style="stop-color:#070135"/>
		<stop  offset="1" style="stop-color:#612D50"/>
	</linearGradient>
	<path id="rect3050" fill="url(#rect3050_1_)" d="M26.918,6.326h86.657c11.421,0,20.68,9.258,20.68,20.68v87.187
		c0,11.421-9.259,20.68-20.68,20.68H26.918c-11.421,0-20.679-9.259-20.679-20.68V27.006C6.239,15.584,15.497,6.326,26.918,6.326z"/>
	<g id="text3836" transform="scale(1.0052013,0.99482561)">
		<path id="path3841" inkscape:connector-curvature="0" fill="#FFFFFF" d="M70.844,61.986c3.253,0,5.719-0.715,7.399-2.144
			c1.68-1.43,2.519-3.539,2.519-6.327c0-2.752-0.839-4.842-2.519-6.273c-1.68-1.466-4.146-2.198-7.399-2.198H59.425v16.941H70.844
			 M71.542,96.994c4.145,0,7.255-0.876,9.328-2.627c2.108-1.751,3.163-4.396,3.163-7.935c0-3.466-1.037-6.058-3.11-7.774
			c-2.073-1.751-5.2-2.627-9.382-2.627H59.425v20.962H71.542 M90.735,68.204c4.431,1.287,7.862,3.663,10.293,7.131
			c2.43,3.467,3.645,7.721,3.645,12.759c0,7.721-2.608,13.475-7.826,17.263c-5.219,3.788-13.153,5.683-23.804,5.683H38.785V30.998
			h30.988c11.115,0,19.157,1.68,24.125,5.04c5.004,3.359,7.506,8.739,7.506,16.137c0,3.895-0.911,7.219-2.734,9.972
			C96.846,64.863,94.201,66.882,90.735,68.204"/>
	</g>
</g>
</svg>
