<?xml version="1.0" encoding="utf-8"?>
<!-- Generator: Adobe Illustrator 16.0.4, SVG Export Plug-In . SVG Version: 6.00 Build 0)  -->
<!DOCTYPE svg PUBLIC "-//W3C//DTD SVG 1.1//EN" "http://www.w3.org/Graphics/SVG/1.1/DTD/svg11.dtd">
<svg version="1.1" id="Layer_1" xmlns="http://www.w3.org/2000/svg" xmlns:xlink="http://www.w3.org/1999/xlink" x="0px" y="0px"
	 width="140px" height="140px" viewBox="0 0 140 140" enable-background="new 0 0 140 140" xml:space="preserve">
<g id="Page_1">
	<g id="Layer_1_1_">
		<path id="Shape" fill="#131313" d="M99.927,5.184h-8.231l8.561,9.289v4.422H82.623v-5.177h8.56l-8.56-9.289V0h17.304V5.184
			L99.927,5.184z M79.128,5.184h-8.231l8.561,9.289v4.422H61.824v-5.177h8.56l-8.56-9.289V0h17.304V5.184L79.128,5.184z
			 M58.533,5.395H49.65v8.106h8.882v5.394H43.337V0h15.196V5.395L58.533,5.395z"/>
		<path id="Shape_1_" fill="#1572B6" d="M31.233,128.757L22.207,27.521h99.179l-9.035,101.22L71.735,140L31.233,128.757z"/>
		<path id="Shape_2_" fill="#33A9DC" d="M71.797,131.395l32.818-9.1l7.722-86.497h-40.54V131.395z"/>
		<g id="Group" transform="translate(55.000000, 142.000000)">
			<path id="Shape_3_" fill="#FFFFFF" d="M16.797-69.524h16.43l1.134-12.715H16.797v-12.416h0.043h31.091l-0.298,3.331
				l-3.052,34.216H16.797V-69.524z"/>
			<path id="Shape_4_" fill="#EBEBEB" d="M16.871-37.279l-0.055,0.016L2.988-40.998l-0.884-9.901h-6.719h-5.745l1.739,19.494
				l25.434,7.061l0.058-0.016V-37.279z"/>
			<path id="Shape_5_" fill="#FFFFFF" d="M32.171-57.634l-1.495,16.628l-13.848,3.738v12.917l25.454-7.055l0.187-2.098l2.159-24.131
				H32.171z"/>
			<path id="Shape_6_" fill="#EBEBEB" d="M16.84-94.655v7.711v4.675v0.03h-29.952h-0.04l-0.249-2.791l-0.566-6.294l-0.296-3.331
				H16.84z"/>
			<path id="Shape_7_" fill="#EBEBEB" d="M16.797-69.523v7.712v4.675v0.03H3.183h-0.04l-0.249-2.791l-0.566-6.294l-0.297-3.332
				H16.797z"/>
		</g>
	</g>
</g>
</svg>
