<?xml version="1.0" encoding="utf-8"?>
<!-- Generator: Adobe Illustrator 16.0.4, SVG Export Plug-In . SVG Version: 6.00 Build 0)  -->
<!DOCTYPE svg PUBLIC "-//W3C//DTD SVG 1.1//EN" "http://www.w3.org/Graphics/SVG/1.1/DTD/svg11.dtd">
<svg version="1.1" id="Layer_1" xmlns="http://www.w3.org/2000/svg" xmlns:xlink="http://www.w3.org/1999/xlink" x="0px" y="0px"
	 width="140px" height="140px" viewBox="0 0 140 140" enable-background="new 0 0 140 140" xml:space="preserve" xmlns:inkscape="http://www.inkscape.org/namespaces/inkscape"
	 inkscape:version="0.48.1 r9760">
<g id="g10" transform="matrix(1.25,0,0,-1.25,0,114.8625)">
	<g id="g12" transform="scale(0.1,0.1)">
		<path id="path14" inkscape:connector-curvature="0" fill="#F03C2E" d="M1102.312,408.791l-489,488.977
			c-28.148,28.168-73.824,28.168-102.012,0L409.766,796.22l128.801-128.809c29.934,10.113,64.277,3.324,88.121-20.531
			c23.992-24.004,30.719-58.629,20.359-88.672l124.148-124.133c30.039,10.348,64.68,3.656,88.672-20.371
			c33.523-33.508,33.523-87.836,0-121.375c-33.531-33.539-87.852-33.539-121.406,0c-25.219,25.234-31.445,62.293-18.664,93.352
			L604,501.462v-304.68c8.172-4.062,15.883-9.445,22.688-16.227c33.516-33.523,33.516-87.836,0-121.406
			c-33.523-33.508-87.867-33.508-121.367,0c-33.516,33.57-33.516,87.883,0,121.406c8.285,8.266,17.887,14.531,28.121,18.719v307.504
			c-10.234,4.188-19.805,10.398-28.121,18.73c-25.387,25.375-31.488,62.648-18.473,93.824l-126.98,127L24.562,411.06
			c-28.168-28.199-28.168-73.879,0-102.051l489.023-488.977c28.148-28.164,73.812-28.164,102.016,0l486.711,486.711
			C1130.476,334.923,1130.476,380.623,1102.312,408.791"/>
	</g>
</g>
</svg>
