<?xml version="1.0" encoding="utf-8"?>
<!-- Generator: Adobe Illustrator 16.0.4, SVG Export Plug-In . SVG Version: 6.00 Build 0)  -->
<!DOCTYPE svg PUBLIC "-//W3C//DTD SVG 1.1//EN" "http://www.w3.org/Graphics/SVG/1.1/DTD/svg11.dtd">
<svg version="1.1" id="Layer_1" xmlns="http://www.w3.org/2000/svg" xmlns:xlink="http://www.w3.org/1999/xlink" x="0px" y="0px"
	 width="50px" height="50px" viewBox="0 0 50 50" enable-background="new 0 0 50 50" xml:space="preserve">
<g id="Layer_1_1_">
	<g>
		<path fill="#FBA919" d="M11.78,9.602c0,0,0.677,2.609,0.773,3.479c0.097,0.87-1.739,2.802-1.739,3.769
			c0,0.966,0.386,2.706,2.512,3.576c2.126,0.87,2.417,3.093,2.417,4.446s-0.773,3.962-0.773,3.962s-0.483,6.475,2.126,7.635
			c2.609,1.159,2.029,1.159,2.609,1.159s4.832,1.74,7.344,1.063c2.513-0.677,3.189-1.449,3.189-1.449s2.513,0.192,3.286-2.03
			s1.256-6.861,0.966-8.987c-0.29-2.126-0.677-4.929,1.063-5.896c1.739-0.966,3.575-2.125,3.285-3.092
			c-0.29-0.966-1.835-2.32-1.835-2.32s-0.387-2.416-0.098-2.996c0.29-0.58,2.029-2.03,1.063-3.093s-2.706-1.063-2.706-1.063
			l-2.223,0.193c0,0-3.769-3.382-8.698-3.189c-4.929,0.193-8.021,3.189-8.021,3.189s-1.643-0.58-3.092,0S11.491,7.958,11.78,9.602z"
			/>
		<path fill="#E78724" d="M20.611,23.991c0,0-1.914,2.926-3.317,5.002c-0.217,0.321,1.404,0.344,1.404,0.344L20.611,23.991z"/>
		<path fill="#E78724" d="M21.522,17.924c0,0-0.577,1.439-0.893,2.202c-0.343,0.83-1.651,1.242-1.651,1.242s0.678-0.711,0.678-2.513
			c0-0.756,0.976-1.056,0.976-1.056L21.522,17.924z"/>
		<path fill="#E78724" d="M20.939,18.737c0,0-1.182,1.407-3.376,0.619c-2.195-0.788-2.42-3.602-2.42-4.39
			c0-0.788,4.165,0.788,4.728,1.126C20.434,16.43,21.502,17.78,20.939,18.737z"/>
		<path fill="#E78724" d="M12.649,3.703c0,0,2.026-0.394,3.376,0.675c1.351,1.069,1.745,1.914,1.745,1.914l-2.276,1.805
			c0,0-1.1-0.51-1.438-1.974C13.719,4.66,13.944,3.985,12.649,3.703z"/>
		<path fill="#E78724" d="M20.349,14.673c-0.873-1.238-2.31-1.778-3.458-1.868c-1.958-0.153-2.886,0.539-2.886,0.539
			s3.205,0.136,4.129,1.349c1.72,2.258,4.229,2.442,4.63,1.946c-0.464,0.023-0.974-0.207-1.521-0.723
			C20.902,15.593,20.625,15.066,20.349,14.673z"/>
		<path fill="#E78724" d="M14.938,19.052c0,0-3.556-1.223-2.88-2.46c0.675-1.238,0.138-1.913,0.138-1.913s-1.986,1.482-1.48,3.058
			c0.311,0.967,0.833,1.667,3.697,3.01c1.375,2.552,0.284,7.146,0.349,7.168c0.109,0.036,1.93-0.899,1.805-5.198
			C16.529,21.396,16.423,19.595,14.938,19.052z"/>
		<path fill="#E78724" d="M19.598,5.905c-1.491,0.758-3.534,1.812-3.534,1.812l0.804,0.402c-0.077,0.125-0.114,0.199-0.114,0.199
			l0.825,0.375c0,0,2.015,1.459,3.249,2.397c-0.412-1.267-1.62-3.258-1.62-3.258S18.866,6.918,19.598,5.905z"/>
		<path fill="#E78724" d="M24.551,36.785c-4.583,0-6.135-2.327-6.135-2.327l0.716,1.744c0.271,0.755,3.159,3.104,5.413,3.104"/>
		<path fill="#E78724" d="M18.918,32.886c0,0,0.422,2.577,2.11,2.577c1.435,0,1.857-2.177,1.857-2.626L18.918,32.886z"/>
		<path fill="#E78724" d="M16.108,28.999c0.15-0.412,0.675-2.082,0.844-3.602c0.202-1.82,0.128-4.481,0.128-4.481
			s-0.45,1.745-0.844,2.027c-0.394,0.281-1.125,2.194-1.125,2.194s-0.392,2.849-0.579,3.806
			C15.048,29.047,15.483,28.742,16.108,28.999z"/>
		<path fill="#E78724" d="M12.031,17.708c0,0,0.957-0.338,1.238-2.42c0.281-2.083-0.338-3.883-0.338-3.883s0.056,2.87-0.281,3.433
			c-0.338,0.562-0.619,0.731-1.013,1.463S11.806,17.483,12.031,17.708z"/>
		<path fill="#87CCEE" d="M17.107,8.145"/>
		<path fill="#FDC168" d="M13.173,4.196l-0.195-0.124C12.402,4.091,13.173,4.196,13.173,4.196z"/>
		<path fill="#FBA919" d="M20.376,5.289c0,0-0.9-0.15-1.351-0.825c-0.451-0.676-1.726-2.026-3.759-2.042
			c-2.034-0.015-4.045,0.54-4.045,0.54l1.756,1.11c0.186-0.006,0.51-0.003,1.047,0.014c2.204,0.073,2.543,2.253,2.543,2.253
			l7.767-1.07"/>
		<path fill="#FFFFFF" d="M21.127,17.329c0,0-1.051,1.051-2.664,0.712c-1.614-0.337-2.589-1.05-2.665-2.289
			c-0.075-1.238,0.338-1.726,0.338-1.726s1.801,0.563,2.665,1.314C19.664,16.09,20.301,17.291,21.127,17.329z"/>
		<path fill="#C9C9C9" d="M19.855,16.953c0,0-0.911,0.417-1.93,0.077c-1.333-0.444-1.422-1.831-1.422-1.831s-0.818,2.4,1.476,2.862
			c1.839,0.371,2.927-0.695,2.927-0.695L19.855,16.953z"/>
		<path fill="#463014" d="M20.903,30.406"/>
		<path fill="#463014" d="M20.503,4.78c-0.098-2.059,1.589-3.698,2.174-3.768c0.032,0.349-0.033,1.709,0.552,2.128
			c0.17-1.111,0.746-2.336,3.018-3.139c-0.486,1.291-0.064,2.372,0.136,2.873c1.552-1.408,2.598-1.175,2.598-1.175
			s-1.078,1.86-0.656,3.081C25.209,4.535,20.518,5.11,20.503,4.78z"/>
		<path fill="#463014" d="M13.899,7.915c-0.743-0.616-0.189-1.189-0.248-1.889c-0.032-0.373-0.062-0.725-0.184-0.918
			c-0.684-1.08-2.298-1.408-2.314-1.412l-0.757-0.148l0.501-0.586c0.065-0.076,2.124-2.041,5.31-1.012
			c2.229,0.719,3.878,3.156,3.939,3.254l-1.117,0.525c-0.013-0.021-1.317-2.312-3.229-2.928c-1.545-0.499-2.97-0.024-3.58,0.287
			c0.648,0.259,1.496,0.73,2.007,1.537c0.241,0.381,0.282,0.861,0.321,1.326c0.052,0.615,0.101,1.195,0.553,1.571L13.899,7.915z"/>
		<path fill="#463014" d="M11.914,16.917c0,0,0.937-1.161,1.214-3.42c0.109-0.89-0.084-2.646-0.394-3.321
			c0.056,1.66-0.366,3.321-0.366,3.321S12.083,16.579,11.914,16.917z"/>
		<path fill="#463014" d="M16.852,6.743c0-0.003-0.3-1.313-1.132-1.976c-1.173-0.933-2.605-0.437-2.619-0.432l-0.208-0.643
			c0.069-0.022,1.707-0.539,3.215,0.522c1.518,1.067,1.7,2.034,1.716,2.141L16.852,6.743z"/>
		<path fill="#463014" d="M14.855,16.084c0,0-0.491-0.703-0.403-1.477c0.044-0.382,0.221-0.774,0.537-0.914
			c0.587-0.258,0.847,0.408,0.847,0.408S15.01,14.306,14.855,16.084z"/>
		<path fill="#463014" d="M20.903,30.406"/>
		<path fill="#463014" d="M20.249,17.156c0.021,0.039,0.031,0.06,0.031,0.06s-1.532,1.15-3.103-0.017
			c-0.841-0.625-0.761-2.172-0.504-2.828c0.669,0.152,1.238,0.425,1.712,0.745c-0.6-0.536-1.125-0.93-1.124-0.939l-0.682-0.193
			l-1.326-0.455c-0.017,0.101-0.5,2.367,0.895,3.912c0.619,0.685,3.519,2.218,4.895-0.404L20.249,17.156z"/>
		<path fill="#463014" d="M20.105,17.324c0.863,1.313,3.04,0.563,3.002-0.825c0,0-1.454,0.803-2.739-0.675
			c-0.75-0.863-3.154-3.242-6.415-2.451C16.205,13.867,19.186,15.924,20.105,17.324z"/>
		<g>
			<path fill="#463014" d="M20.903,30.406"/>
		</g>
		<path fill="#463014" d="M13.649,21.03c0.208,0.12,0.94,0.878,0.94,2.012c0,0.568-0.057,3.425-0.338,5.169
			c0.423,0.275,0.718,0.334,1.14,0.614c0.211-2.021,0.362-4.95,0.292-6.132c-0.081-1.348-0.802-2.252-1.472-2.638
			c-0.209-0.121-0.429-0.239-0.649-0.358c-1.146-0.619-2.332-1.26-2.332-2.354c0-0.855,0.333-1.123,0.685-1.407l0.038-0.031
			c0.234-0.189,0.499-0.403,0.655-0.755c0.427-0.961,0.498-3.411,0-4.032c-0.248-0.31-0.913-1.352-0.722-2.051
			c0.073-0.268,0.241-0.465,0.515-0.605c0.29-0.149,0.681-0.224,1.164-0.224c0.947,0,1.997,0.289,2.539,0.46
			c1.936,0.614,4.272,2.383,4.942,2.911c0.02,0.015,0.031,0.023,0.033,0.025l0.429,0.298l-0.268-0.448
			c-0.017-0.028-1.714-2.819-4.749-3.842C15.9,7.441,14.74,7.107,13.6,7.107c-0.679,0-1.254,0.119-1.71,0.352
			c-0.556,0.284-0.932,0.738-1.089,1.312c-0.383,1.406,0.865,2.971,0.908,3.021c0.146,0.26,0.207,2.147-0.129,2.902
			c-0.046,0.104-0.173,0.207-0.333,0.336c-0.05,0.041-0.106,0.083-0.166,0.128c-0.475,0.358-1.191,0.899-1.191,2.146
			c0,1.706,1.729,2.631,3.118,3.375C13.235,20.801,13.453,20.917,13.649,21.03z"/>
		<g>
			<g>
				<path fill="#463014" d="M13.899,7.915c-0.743-0.616-0.189-1.189-0.248-1.889c-0.032-0.373-0.062-0.725-0.184-0.918
					c-0.684-1.08-2.298-1.408-2.314-1.412l-0.757-0.148l0.501-0.586c0.065-0.076,2.124-2.041,5.31-1.012
					c2.229,0.719,3.878,3.156,3.939,3.254l-1.117,0.525c-0.013-0.021-1.317-2.312-3.229-2.928c-1.545-0.499-2.97-0.024-3.58,0.287
					c0.648,0.259,1.496,0.73,2.007,1.537c0.241,0.381,0.282,0.861,0.321,1.326c0.052,0.615,0.101,1.195,0.553,1.571L13.899,7.915z"
					/>
			</g>
			<g>
				<path fill="#463014" d="M13.875,8.042l-0.048-0.04c-0.551-0.458-0.453-0.908-0.358-1.344c0.043-0.201,0.088-0.409,0.07-0.623
					c-0.03-0.358-0.059-0.697-0.167-0.868C12.72,4.139,11.146,3.81,11.13,3.806l-0.946-0.186l0.627-0.733
					c0.011-0.014,1.333-1.348,3.572-1.348c0.61,0,1.235,0.102,1.857,0.303c2.326,0.75,3.985,3.277,4.001,3.302l0.067,0.107
					l-1.322,0.622l-0.053-0.084c-0.142-0.243-1.396-2.31-3.168-2.881c-0.436-0.141-0.894-0.211-1.363-0.211
					c-0.85,0-1.538,0.231-1.905,0.387c0.613,0.276,1.355,0.74,1.826,1.481c0.255,0.404,0.297,0.897,0.337,1.374
					c0.05,0.593,0.097,1.15,0.513,1.496l0.157,0.13L13.875,8.042z"/>
			</g>
		</g>
		<g>
			<g>
				<path fill="#463014" d="M16.852,6.743c0-0.003-0.3-1.313-1.132-1.976c-1.173-0.933-2.605-0.437-2.619-0.432l-0.208-0.643
					c0.069-0.022,1.707-0.539,3.215,0.522c1.518,1.067,1.7,2.034,1.716,2.141L16.852,6.743z"/>
			</g>
			<g>
				<path fill="#463014" d="M16.771,6.896l-0.029-0.129c-0.003-0.013-0.297-1.279-1.093-1.911c-0.453-0.361-1-0.544-1.624-0.544
					c-0.487,0-0.849,0.116-0.888,0.13l-0.107,0.036L12.75,3.62l0.107-0.034c0.048-0.016,0.483-0.151,1.098-0.151
					c0.811,0,1.578,0.238,2.218,0.688c1.556,1.094,1.746,2.105,1.762,2.216l0.014,0.088L16.771,6.896z M14.025,4.086
					c0.667,0,1.277,0.205,1.764,0.593c0.706,0.562,1.039,1.555,1.139,1.911l0.766-0.305c-0.069-0.271-0.375-1.082-1.651-1.979
					C15.432,3.877,14.73,3.66,13.955,3.66c-0.426,0-0.756,0.067-0.919,0.109l0.138,0.427C13.333,4.153,13.642,4.086,14.025,4.086z"
					/>
			</g>
		</g>
		<path fill="#463014" d="M20.958,34.845L20.958,34.845c-0.333,0-0.672-0.12-0.907-0.324c-0.18-0.155-0.789-0.714-1.057-1.399
			c-0.101-0.257-0.078-0.461,0.067-0.608c0.1-0.102,0.308-0.223,0.73-0.223h0.301c0.358-0.001,0.96-0.001,1.476-0.001h0.494
			c0.321,0,0.552,0.07,0.684,0.205c0.17,0.175,0.116,0.397,0.068,0.515c-0.083,0.204-0.425,0.871-1.005,1.491
			C21.601,34.723,21.298,34.845,20.958,34.845z"/>
		<path fill="#463014" d="M21.306,17.402l-1.201-0.078c0,0,0.307,0.541,0.506,1.241c0.225,0.792-0.205,1.948-0.205,1.948
			S22.007,18.701,21.306,17.402z"/>
		<g>
			<path fill="#463014" d="M19.808,38.016c-4.273-0.329-5.777-4.367-5.777-5.208l1.116,0.001l-0.558-0.001h0.558
				c0.005,0.364,1.141,3.818,4.747,4.096L19.808,38.016z"/>
		</g>
		<path fill="#FFFFFF" d="M18.606,30.78c-0.067-0.386-0.074-0.752,0.008-1.111c-0.325-0.244-0.908-0.335-1.345-0.477
			c-0.357-0.227-2.188,0.232-3.515-1.374c-1.664-2.012-1.313-3.213-1.313-3.213c-0.426,0.474-0.84,0.293-1.49,2.502
			c-0.651,2.21,0.306,3.75,2.088,5.297c0.842,0.73,2.033,1.031,3.057,1.146c-0.343-0.345,0.586-0.379,1.227-0.618
			c-0.051-0.518,0.034-1.02,0.42-1.423c0.232-0.244,0.531-0.39,0.842-0.506c0.017-0.04,0.032-0.077,0.048-0.115
			C18.623,30.854,18.613,30.818,18.606,30.78z"/>
		<path fill="#C9C9C9" d="M17.314,32.919c-0.037-0.108-0.065-0.219-0.092-0.33c-0.03-0.122-0.177-0.467,0.004-0.073
			c-0.046-0.101-0.077-0.204-0.1-0.309c-2.887-0.004-5.398-1.986-4.914-6.153c-0.378-0.502-0.907,1.012-0.907,1.012
			s-1.445,4.196,2.288,5.823c1.244,0.542,2.343,0.931,2.603,0.774c0.54,0.109,1.028-0.268,1.21-0.515
			C17.373,33.072,17.341,32.996,17.314,32.919z"/>
		<path fill="#463014" d="M18.555,30.177c0.004-0.353,0.076-0.693,0.246-1.032c0.012-0.023,0.026-0.046,0.039-0.068
			c-1.111-0.01-2.391-0.116-3.48-0.553c-1.198-0.479-2.696-2.117-2.953-4.043c0,0-2.255,1.74-1.592,5.466
			c0.622,3.497,3.549,4.638,6.887,4.831c0.001-0.022-0.375-0.802-0.256-1.279c-1.896,0.138-4.015-0.595-5.039-2.278
			c-0.937-1.541-0.674-4.172-0.289-4.558C13.057,29.626,16.436,30.228,18.555,30.177z"/>
		<path fill="#463014" d="M24.551,34.77"/>
		<path fill="#463014" d="M18.904,28.055c-0.601,1.763-1.828,3.189-1.828,3.189s1.688-0.076,1.781-0.375
			c0.069-0.221,1.524-3.627,2.083-7.617C20.415,24.115,18.956,27.904,18.904,28.055z"/>
		<path fill="#E78724" d="M28.467,23.991c0,0,1.913,2.926,3.317,5.002c0.218,0.321-1.404,0.344-1.404,0.344L28.467,23.991z"/>
		<path fill="#E78724" d="M27.556,17.924c0,0,0.577,1.439,0.893,2.202c0.343,0.83,1.65,1.242,1.65,1.242s-0.678-0.711-0.678-2.513
			c0-0.756-0.976-1.056-0.976-1.056L27.556,17.924z"/>
		<path fill="#E78724" d="M28.138,18.737c0,0,1.183,1.407,3.378,0.619c2.194-0.788,2.42-3.602,2.42-4.39
			c0-0.788-4.165,0.788-4.729,1.126C28.645,16.43,27.575,17.78,28.138,18.737z"/>
		<path fill="#E78724" d="M36.429,3.703c0,0-2.026-0.394-3.377,0.675s-1.745,1.914-1.745,1.914l2.276,1.805
			c0,0,1.101-0.51,1.438-1.974C35.359,4.66,35.134,3.985,36.429,3.703z"/>
		<path fill="#E78724" d="M28.729,14.673c0.872-1.238,2.309-1.778,3.457-1.868c1.957-0.153,2.886,0.539,2.886,0.539
			s-3.205,0.136-4.129,1.349c-1.72,2.258-4.228,2.442-4.629,1.946c0.464,0.023,0.975-0.207,1.521-0.723
			C28.176,15.593,28.452,15.066,28.729,14.673z"/>
		<path fill="#E78724" d="M34.14,19.052c0,0,3.556-1.223,2.881-2.46c-0.676-1.238-0.139-1.913-0.139-1.913s1.986,1.482,1.48,3.058
			c-0.312,0.967-0.833,1.667-3.698,3.01c-1.374,2.552-0.283,7.146-0.349,7.168c-0.108,0.036-1.929-0.899-1.805-5.198
			C32.549,21.396,32.654,19.595,34.14,19.052z"/>
		<path fill="#E78724" d="M29.479,5.905c1.491,0.758,3.534,1.812,3.534,1.812L32.21,8.12c0.077,0.125,0.114,0.199,0.114,0.199
			l-0.826,0.375c0,0-2.015,1.459-3.248,2.397c0.411-1.267,1.619-3.258,1.619-3.258S30.212,6.918,29.479,5.905z"/>
		<path fill="#E78724" d="M24.526,36.785c4.583,0,6.135-2.327,6.135-2.327l-0.716,1.744c-0.271,0.755-3.159,3.104-5.412,3.104"/>
		<path fill="#E78724" d="M30.159,32.886c0,0-0.422,2.577-2.109,2.577c-1.435,0-1.857-2.177-1.857-2.626L30.159,32.886z"/>
		<path fill="#E78724" d="M32.97,28.999c-0.15-0.412-0.676-2.082-0.845-3.602c-0.202-1.82-0.128-4.481-0.128-4.481
			s0.45,1.745,0.844,2.027c0.395,0.281,1.126,2.194,1.126,2.194s0.392,2.849,0.578,3.806C34.028,29.047,33.595,28.742,32.97,28.999z
			"/>
		<path fill="#E78724" d="M37.047,17.708c0,0-0.957-0.338-1.238-2.42c-0.281-2.083,0.338-3.883,0.338-3.883s-0.057,2.87,0.281,3.433
			s0.619,0.731,1.014,1.463C37.835,17.033,37.272,17.483,37.047,17.708z"/>
		<path fill="#87CCEE" d="M31.971,8.145"/>
		<path fill="#FDC168" d="M35.904,4.196l0.196-0.124C36.676,4.091,35.904,4.196,35.904,4.196z"/>
		<path fill="#FBA919" d="M28.701,5.289c0,0,0.9-0.15,1.351-0.825c0.45-0.676,1.727-2.026,3.76-2.042s4.045,0.54,4.045,0.54
			l-1.756,1.11c-0.187-0.006-0.511-0.003-1.049,0.014C32.849,4.16,32.51,6.34,32.51,6.34l-7.767-1.07"/>
		<path fill="#FFFFFF" d="M27.95,17.329c0,0,1.051,1.051,2.664,0.712c1.614-0.337,2.59-1.05,2.665-2.289
			c0.074-1.238-0.338-1.726-0.338-1.726s-1.802,0.563-2.664,1.314C29.414,16.091,28.776,17.291,27.95,17.329z"/>
		<path fill="#C9C9C9" d="M29.222,16.953c0,0,0.912,0.417,1.93,0.077c1.334-0.444,1.423-1.831,1.423-1.831s0.817,2.4-1.476,2.862
			c-1.839,0.371-2.927-0.695-2.927-0.695L29.222,16.953z"/>
		<path fill="#463014" d="M28.175,30.406"/>
		<path fill="#463014" d="M35.179,7.915c0.743-0.616,0.189-1.189,0.248-1.889c0.031-0.373,0.062-0.725,0.185-0.918
			c0.684-1.08,2.297-1.408,2.313-1.412l0.758-0.148l-0.502-0.586c-0.064-0.076-2.123-2.041-5.31-1.012
			c-2.229,0.719-3.878,3.156-3.939,3.254l1.117,0.525c0.014-0.021,1.318-2.312,3.229-2.928c1.546-0.499,2.97-0.024,3.58,0.287
			c-0.648,0.259-1.497,0.73-2.008,1.537c-0.241,0.381-0.281,0.861-0.32,1.326c-0.052,0.615-0.101,1.195-0.554,1.571L35.179,7.915z"
			/>
		<path fill="#463014" d="M37.163,16.917c0,0-0.936-1.161-1.213-3.42c-0.109-0.89,0.084-2.646,0.394-3.321
			c-0.057,1.66,0.366,3.321,0.366,3.321S36.995,16.579,37.163,16.917z"/>
		<path fill="#463014" d="M32.227,6.743c0-0.003,0.3-1.313,1.132-1.976c1.173-0.933,2.605-0.437,2.619-0.432l0.208-0.643
			c-0.069-0.022-1.706-0.539-3.216,0.522c-1.518,1.067-1.699,2.034-1.716,2.141L32.227,6.743z"/>
		<path fill="#463014" d="M34.223,16.084c0,0,0.491-0.703,0.402-1.477c-0.043-0.382-0.221-0.774-0.536-0.914
			c-0.588-0.258-0.848,0.408-0.848,0.408S34.067,14.306,34.223,16.084z"/>
		<path fill="#463014" d="M28.175,30.406"/>
		<path fill="#463014" d="M28.829,17.156c-0.021,0.039-0.031,0.06-0.031,0.06s1.531,1.15,3.102-0.017
			c0.842-0.625,0.762-2.172,0.504-2.828c-0.669,0.152-1.237,0.425-1.712,0.745c0.6-0.536,1.125-0.93,1.123-0.939l0.683-0.193
			l1.325-0.454c0.018,0.101,0.5,2.367-0.896,3.911c-0.618,0.685-3.519,2.218-4.895-0.404L28.829,17.156z"/>
		<path fill="#463014" d="M28.972,17.324c-0.863,1.313-3.039,0.563-3.001-0.825c0,0,1.454,0.803,2.738-0.675
			c0.751-0.863,3.155-3.242,6.415-2.451C32.873,13.867,29.892,15.924,28.972,17.324z"/>
		<g>
			<path fill="#463014" d="M28.175,30.406"/>
		</g>
		<path fill="#463014" d="M35.429,21.03c-0.208,0.12-0.939,0.878-0.939,2.012c-0.001,0.568,0.056,3.425,0.338,5.169
			c-0.424,0.275-0.719,0.334-1.14,0.614c-0.211-2.021-0.363-4.95-0.292-6.132c0.08-1.348,0.802-2.252,1.471-2.638
			c0.21-0.121,0.429-0.239,0.649-0.358c1.146-0.619,2.332-1.26,2.332-2.354c0-0.855-0.333-1.123-0.686-1.407l-0.037-0.031
			c-0.234-0.189-0.499-0.403-0.655-0.755c-0.428-0.961-0.498-3.411,0-4.032c0.248-0.31,0.913-1.352,0.722-2.051
			c-0.073-0.268-0.241-0.465-0.516-0.605c-0.29-0.149-0.681-0.224-1.163-0.224c-0.946,0-1.997,0.289-2.539,0.46
			c-1.936,0.614-4.272,2.383-4.942,2.911c-0.02,0.015-0.03,0.023-0.032,0.025l-0.429,0.298l0.268-0.448
			c0.018-0.028,1.714-2.819,4.749-3.842c0.591-0.199,1.751-0.533,2.891-0.533c0.679,0,1.254,0.119,1.711,0.352
			c0.556,0.284,0.932,0.738,1.088,1.312c0.384,1.406-0.864,2.971-0.907,3.021c-0.146,0.26-0.207,2.147,0.129,2.902
			c0.046,0.104,0.173,0.207,0.334,0.336c0.05,0.041,0.105,0.083,0.166,0.128c0.474,0.358,1.191,0.899,1.191,2.146
			c0,1.706-1.729,2.631-3.118,3.375C35.843,20.801,35.625,20.917,35.429,21.03z"/>
		<path fill="#463014" d="M33.366,7.714c-0.275-0.466-0.979-1.365-2.6-2.155c-1.809-0.882-3.902-1.329-6.223-1.331v0
			c0,0-0.003,0-0.005,0c0,0-0.003,0-0.004,0v0c-2.321,0.001-4.416,0.449-6.224,1.33c-1.621,0.791-2.324,1.69-2.6,2.156l-0.118,0.156
			l1.388,0.309l0.044-0.056l0.023-0.051c0.021-0.092,0.208-0.587,1.755-1.342c1.654-0.807,3.584-1.216,5.735-1.217
			c2.151,0,4.08,0.41,5.734,1.217c1.548,0.754,1.734,1.25,1.756,1.342l0.023,0.051l0.043,0.056l1.389-0.309L33.366,7.714z"/>
		<g>
			<g>
				<path fill="#463014" d="M35.179,7.915c0.743-0.616,0.189-1.189,0.248-1.889c0.031-0.373,0.062-0.725,0.185-0.918
					c0.684-1.08,2.297-1.408,2.313-1.412l0.758-0.148l-0.502-0.586c-0.064-0.076-2.123-2.041-5.31-1.012
					c-2.229,0.719-3.878,3.156-3.939,3.254l1.117,0.525c0.014-0.021,1.318-2.312,3.229-2.928c1.546-0.499,2.97-0.024,3.58,0.287
					c-0.648,0.259-1.497,0.73-2.008,1.537c-0.241,0.381-0.281,0.861-0.32,1.326c-0.052,0.615-0.101,1.195-0.554,1.571L35.179,7.915z
					"/>
			</g>
			<g>
				<path fill="#463014" d="M33.748,7.565l0.156-0.13c0.416-0.345,0.463-0.903,0.514-1.496c0.04-0.477,0.082-0.97,0.337-1.374
					c0.47-0.741,1.213-1.206,1.825-1.481c-0.366-0.155-1.055-0.387-1.904-0.387c-0.47,0-0.928,0.071-1.363,0.211
					c-1.773,0.572-3.026,2.639-3.168,2.881l-0.054,0.084L28.77,5.252l0.067-0.107c0.015-0.025,1.674-2.552,4-3.302
					c0.622-0.201,1.247-0.302,1.858-0.302c2.238,0,3.561,1.334,3.571,1.348l0.627,0.733l-0.946,0.185
					c-0.016,0.003-1.589,0.333-2.241,1.361c-0.107,0.171-0.136,0.509-0.167,0.868c-0.018,0.214,0.027,0.422,0.071,0.623
					c0.095,0.436,0.192,0.887-0.359,1.344l-0.048,0.04L33.748,7.565z"/>
			</g>
		</g>
		<g>
			<g>
				<path fill="#463014" d="M32.227,6.743c0-0.003,0.3-1.313,1.132-1.976c1.173-0.933,2.605-0.437,2.619-0.432l0.208-0.643
					c-0.069-0.022-1.706-0.539-3.216,0.522c-1.518,1.067-1.699,2.034-1.716,2.141L32.227,6.743z"/>
			</g>
			<g>
				<path fill="#463014" d="M31.13,6.427l0.013-0.088c0.017-0.111,0.207-1.123,1.763-2.216c0.64-0.45,1.407-0.688,2.218-0.688
					c0.615,0,1.05,0.135,1.098,0.151l0.107,0.034l-0.279,0.857l-0.107-0.036c-0.04-0.014-0.402-0.13-0.889-0.13
					c-0.624,0-1.171,0.183-1.624,0.544c-0.795,0.633-1.09,1.899-1.093,1.911l-0.028,0.129L31.13,6.427z M35.904,4.196l0.139-0.427
					c-0.163-0.042-0.494-0.109-0.92-0.109c-0.775,0-1.478,0.218-2.088,0.646c-1.277,0.897-1.582,1.708-1.651,1.979l0.766,0.305
					c0.101-0.356,0.433-1.349,1.139-1.911c0.488-0.388,1.098-0.593,1.765-0.593C35.436,4.086,35.744,4.153,35.904,4.196z"/>
			</g>
		</g>
		<path fill="#463014" d="M27.27,34.5c-0.579-0.62-0.923-1.287-1.006-1.491c-0.047-0.117-0.101-0.34,0.069-0.515
			c0.132-0.135,0.362-0.205,0.683-0.205h0.495c0.515,0,1.117,0,1.476,0.001h0.301c0.422,0,0.63,0.121,0.729,0.223
			c0.146,0.146,0.169,0.352,0.068,0.608c-0.269,0.686-0.878,1.244-1.058,1.399c-0.235,0.204-0.574,0.324-0.907,0.324l0,0
			C27.779,34.845,27.478,34.723,27.27,34.5z"/>
		<path fill="#463014" d="M27.771,17.402l1.2-0.078c0,0-0.307,0.541-0.505,1.241c-0.225,0.792,0.205,1.948,0.205,1.948
			S27.07,18.701,27.771,17.402z"/>
		<path fill="#E78724" d="M24.539,13.115c-0.765,0-1.763-0.021-2.512-0.559c0,0,0.98,1.718,2.51,1.718l0.001-0.218l0.001,0.218
			c1.53,0,2.51-1.718,2.51-1.718C26.302,13.094,25.304,13.115,24.539,13.115z"/>
		<path fill="#463014" d="M26.646,13.107c-0.767,0.464-1.452,0.625-2.106,0.64c-0.654-0.015-1.339-0.175-2.107-0.64
			c0,0,1.118,1.364,2.101,1.375v0c0.002,0,0.004,0,0.006,0c0.001,0,0.003,0,0.005,0v0C25.527,14.471,26.646,13.107,26.646,13.107z"
			/>
		<g>
			<path fill="#463014" d="M29.271,38.016l-0.086-1.113c3.604-0.276,4.74-3.731,4.746-4.095h1.116
				C35.047,33.648,33.543,37.687,29.271,38.016z"/>
		</g>
		<path fill="#FFFFFF" d="M30.471,30.78c0.067-0.386,0.074-0.752-0.008-1.111c0.325-0.244,0.908-0.335,1.345-0.477
			c0.358-0.227,2.188,0.232,3.516-1.374c1.663-2.012,1.312-3.213,1.312-3.213c0.427,0.474,0.84,0.293,1.49,2.502
			c0.651,2.21-0.306,3.75-2.089,5.297c-0.842,0.73-2.032,1.031-3.057,1.146c0.344-0.345-0.586-0.379-1.226-0.618
			c0.051-0.518-0.035-1.02-0.42-1.423c-0.232-0.244-0.532-0.39-0.842-0.506c-0.018-0.04-0.032-0.077-0.049-0.115
			C30.455,30.854,30.465,30.818,30.471,30.78z"/>
		<path fill="#C9C9C9" d="M31.763,32.919c0.037-0.108,0.064-0.219,0.093-0.33c0.029-0.122,0.177-0.467-0.005-0.073
			c0.047-0.101,0.077-0.204,0.1-0.309c2.888-0.004,5.398-1.986,4.913-6.153c0.378-0.502,0.907,1.012,0.907,1.012
			s1.446,4.196-2.287,5.823c-1.243,0.542-2.343,0.931-2.603,0.774c-0.54,0.109-1.028-0.268-1.21-0.515
			C31.705,33.072,31.736,32.996,31.763,32.919z"/>
		<path fill="#463014" d="M30.522,30.177c-0.004-0.353-0.076-0.693-0.245-1.032c-0.013-0.023-0.026-0.046-0.039-0.068
			c1.111-0.01,2.391-0.116,3.48-0.553c1.197-0.479,2.695-2.117,2.952-4.043c0,0,2.256,1.74,1.593,5.466
			c-0.622,3.497-3.549,4.638-6.887,4.831c-0.002-0.022,0.375-0.802,0.256-1.279c1.896,0.138,4.015-0.595,5.038-2.278
			c0.937-1.541,0.674-4.172,0.289-4.558C36.021,29.626,32.642,30.228,30.522,30.177z"/>
		<g>
			<path fill="#463014" d="M24.526,34.77"/>
			<path fill="#463014" d="M31.871,31.054c-0.399-0.431-1.133-0.945-2.823-0.945c0,0-3.205-0.002-4.503-0.003l0,0
				c-0.001,0-0.004,0-0.005,0c0,0-0.004,0-0.005,0l0,0c-1.298,0.001-4.504,0.003-4.504,0.003c-1.69,0-2.424,0.515-2.823,0.945
				c-0.581,0.627-0.672,1.5-0.27,2.592c1.068,2.903,2.57,5.854,7.596,5.858l0,0c0.002,0,0.004,0,0.006,0c0.001,0,0.003,0,0.005,0
				l0,0c5.026-0.005,6.528-2.955,7.596-5.858C32.543,32.554,32.451,31.681,31.871,31.054z M31.088,33.441
				c-0.509,1.458-1.877,4.988-6.549,4.994c-4.672-0.006-6.04-3.536-6.549-4.994c-0.282-0.809-0.26-1.407,0.066-1.779
				c0.223-0.255,0.734-0.558,1.901-0.558l1.219-0.001c0.899-0.001,2.027-0.002,3.364-0.002c1.336,0,2.465,0.001,3.364,0.002
				l1.218,0.001c1.167,0,1.679,0.303,1.901,0.558C31.349,32.034,31.37,32.633,31.088,33.441z"/>
		</g>
		<path fill="#463014" d="M30.173,28.055c0.601,1.763,1.828,3.189,1.828,3.189s-1.688-0.076-1.781-0.375
			c-0.068-0.221-1.523-3.627-2.082-7.617C28.662,24.115,30.122,27.904,30.173,28.055z"/>
	</g>
	<g>
		<path fill="#463014" d="M11.113,42.187c-0.225-0.136-0.477-0.255-0.749-0.354c-0.27-0.098-0.568-0.176-0.888-0.232
			c-0.32-0.056-0.665-0.084-1.026-0.084c-0.7,0-1.344,0.104-1.914,0.311c-0.572,0.208-1.067,0.503-1.471,0.878
			c-0.406,0.376-0.723,0.828-0.94,1.347c-0.217,0.516-0.328,1.089-0.328,1.704c0,0.604,0.116,1.174,0.343,1.69
			s0.546,0.969,0.947,1.346c0.4,0.376,0.879,0.675,1.426,0.888C7.058,49.893,7.658,50,8.298,50c0.351,0,0.684-0.016,0.99-0.05
			c0.307-0.033,0.602-0.086,0.875-0.157s0.536-0.164,0.779-0.276c0.243-0.11,0.48-0.246,0.703-0.4
			c0.041-0.027,0.065-0.073,0.065-0.123v-3.381c0-0.082-0.067-0.149-0.15-0.149H8.532c-0.083,0-0.15,0.067-0.15,0.149v0.813v0.209
			v0.331c0,0.083,0.067,0.149,0.15,0.149h1.09v0.96c-0.151,0.054-0.312,0.099-0.478,0.134c-0.199,0.041-0.432,0.062-0.694,0.062
			c-0.338,0-0.654-0.057-0.937-0.168c-0.281-0.111-0.527-0.274-0.731-0.484c-0.205-0.212-0.368-0.476-0.485-0.784
			C6.18,46.523,6.12,46.16,6.12,45.756c0-0.365,0.054-0.701,0.161-0.996c0.106-0.293,0.258-0.547,0.451-0.754
			c0.193-0.207,0.43-0.369,0.705-0.483c0.277-0.115,0.594-0.173,0.943-0.173c0.192,0,0.368,0.009,0.521,0.026
			c0.152,0.018,0.297,0.046,0.433,0.083c0.136,0.039,0.271,0.089,0.401,0.148c0.137,0.063,0.772,0.426,0.92,0.509
			c0.101,0.057,0.163,0.06,0.23-0.035l0.857-1.252c0.043-0.062,0.034-0.146-0.023-0.197C11.542,42.473,11.337,42.323,11.113,42.187z
			"/>
		<path fill="#463014" d="M18.634,46.895c-0.093-0.145-0.206-0.27-0.333-0.371c-0.041-0.032-0.082-0.062-0.124-0.092
			c0.175-0.08,0.336-0.175,0.481-0.279c0.224-0.162,0.416-0.35,0.57-0.557c0.156-0.209,0.274-0.439,0.353-0.685
			s0.118-0.508,0.118-0.782c0-0.359-0.067-0.697-0.199-1.005c-0.135-0.312-0.352-0.585-0.646-0.812
			c-0.29-0.224-0.665-0.399-1.116-0.523c-0.446-0.122-0.99-0.184-1.616-0.184h-2.772c-0.083,0-0.149,0.067-0.149,0.15v8.008
			c0,0.082,0.067,0.15,0.149,0.15h1.977c0.083,0,0.149-0.067,0.149-0.15v-2.813h0.354c0.157,0,0.242,0.027,0.284,0.05
			c0.059,0.031,0.113,0.086,0.161,0.164l1.416,2.326c0.172,0.281,0.456,0.424,0.841,0.424h1.79c0.002,0,0.004,0,0.005,0
			c0.083,0,0.15-0.067,0.15-0.15c0-0.043-0.018-0.082-0.047-0.109L18.634,46.895z M17.397,44.707
			c-0.047,0.131-0.121,0.242-0.224,0.34c-0.105,0.099-0.243,0.178-0.411,0.234c-0.173,0.059-0.388,0.088-0.639,0.088h-0.646v-2.074
			h0.646c0.473,0,0.822,0.089,1.037,0.263c0.208,0.17,0.31,0.401,0.31,0.709C17.47,44.424,17.446,44.572,17.397,44.707z"/>
		<path fill="#463014" d="M28.568,41.604h-1.977c-0.083,0-0.15,0.067-0.15,0.15v4.743c0,0.264-0.036,0.502-0.106,0.707
			c-0.068,0.2-0.169,0.372-0.298,0.51c-0.128,0.137-0.288,0.243-0.475,0.317c-0.38,0.149-0.931,0.149-1.312,0
			c-0.187-0.074-0.346-0.182-0.474-0.32c-0.129-0.14-0.229-0.312-0.298-0.513c-0.07-0.204-0.106-0.442-0.106-0.707v-4.738
			c0-0.082-0.067-0.149-0.15-0.149h-1.977c-0.083,0-0.15,0.067-0.15,0.149v4.743c0,0.509,0.088,0.983,0.262,1.409
			c0.175,0.429,0.431,0.804,0.761,1.113c0.329,0.31,0.734,0.554,1.204,0.725C23.79,49.914,24.322,50,24.907,50
			c0.581,0,1.112-0.086,1.579-0.256c0.469-0.171,0.873-0.415,1.203-0.725s0.587-0.684,0.764-1.112
			c0.177-0.427,0.266-0.901,0.266-1.41v-4.743C28.718,41.672,28.651,41.604,28.568,41.604z"/>
		<path fill="#463014" d="M37.878,41.604h-1.742c-0.083,0-0.15,0.067-0.15,0.15v4.237c0,0.127,0.004,0.262,0.012,0.404l-3.75-4.455
			c-0.061-0.068-0.113-0.123-0.161-0.163c-0.055-0.047-0.112-0.084-0.172-0.108c-0.06-0.026-0.126-0.044-0.199-0.053
			c-0.063-0.008-0.142-0.012-0.234-0.012h-1.042c-0.082,0-0.149,0.066-0.149,0.149v8.009c0,0.082,0.067,0.149,0.149,0.149h1.743
			c0.083,0,0.15-0.067,0.15-0.149v-4.293c0-0.106-0.003-0.219-0.01-0.338l3.721,4.418c0.113,0.136,0.234,0.231,0.362,0.285
			c0.123,0.051,0.272,0.077,0.443,0.077h1.029c0.082,0,0.149-0.067,0.149-0.149v-8.009C38.028,41.672,37.961,41.604,37.878,41.604z"
			/>
		<path fill="#463014" d="M46.054,41.604h-6.772c-0.082,0-0.149,0.067-0.149,0.15v1.473c0,0.082,0.067,0.149,0.149,0.149h2.248
			v6.386c0,0.082,0.067,0.15,0.15,0.15h1.977c0.082,0,0.149-0.067,0.149-0.15v-6.386h2.248c0.082,0,0.149-0.067,0.149-0.149v-1.473
			C46.204,41.672,46.137,41.604,46.054,41.604z"/>
	</g>
</g>
</svg>
