<?xml version="1.0" encoding="utf-8"?>
<!-- Generator: Adobe Illustrator 16.0.4, SVG Export Plug-In . SVG Version: 6.00 Build 0)  -->
<!DOCTYPE svg PUBLIC "-//W3C//DTD SVG 1.1//EN" "http://www.w3.org/Graphics/SVG/1.1/DTD/svg11.dtd">
<svg version="1.1" id="Layer_1" xmlns="http://www.w3.org/2000/svg" xmlns:xlink="http://www.w3.org/1999/xlink" x="0px" y="0px"
	 width="140px" height="140px" viewBox="0 0 140 140" enable-background="new 0 0 140 140" xml:space="preserve">
<polygon fill="#E44D26" points="31.434,128.755 22.408,27.514 121.593,27.514 112.557,128.739 71.939,140 "/>
<polygon fill="#F16529" points="72,131.393 104.821,122.293 112.542,35.791 72,35.791 "/>
<polygon fill="#EBEBEB" points="72,73.341 55.569,73.341 54.435,60.625 72,60.625 72,48.208 71.957,48.208 40.864,48.208 
	41.161,51.539 44.213,85.757 72,85.757 "/>
<polygon fill="#EBEBEB" points="72,105.588 71.945,105.603 58.117,101.868 57.232,91.966 50.513,91.966 44.768,91.966 
	46.507,111.462 71.942,118.522 72,118.507 "/>
<path d="M31.636,0h6.31v6.234h5.772V0h6.311v18.879h-6.311v-6.321h-5.772v6.321h-6.31L31.636,0L31.636,0z"/>
<path d="M58.327,6.26h-5.555V0h17.423v6.26h-5.558v12.619h-6.31V6.26L58.327,6.26z"/>
<path d="M72.96,0h6.58l4.048,6.633L87.631,0h6.582v18.879h-6.284V9.521l-4.341,6.713h-0.109l-4.344-6.713v9.357H72.96V0z"/>
<path d="M97.354,0h6.312v12.639h8.874v6.24H97.354V0z"/>
<polygon fill="#FFFFFF" points="71.957,73.341 71.957,85.757 87.247,85.757 85.806,101.861 71.957,105.599 71.957,118.518 
	97.412,111.462 97.6,109.364 100.518,76.675 100.819,73.341 97.474,73.341 "/>
<polygon fill="#FFFFFF" points="71.957,48.208 71.957,55.92 71.957,60.595 71.957,60.625 101.91,60.625 101.91,60.625 
	101.949,60.625 102.199,57.835 102.765,51.539 103.062,48.208 "/>
</svg>
