<?xml version="1.0" encoding="utf-8"?>
<!-- Generator: Adobe Illustrator 16.0.4, SVG Export Plug-In . SVG Version: 6.00 Build 0)  -->
<!DOCTYPE svg PUBLIC "-//W3C//DTD SVG 1.1//EN" "http://www.w3.org/Graphics/SVG/1.1/DTD/svg11.dtd">
<svg version="1.1" id="Layer_1" xmlns="http://www.w3.org/2000/svg" xmlns:xlink="http://www.w3.org/1999/xlink" x="0px" y="0px"
	 width="140px" height="140px" viewBox="0 0 140 140" enable-background="new 0 0 140 140" xml:space="preserve">
<rect x="0.5" y="0.5" fill="#F0DB4F" width="139" height="139"/>
<path fill="#323330" d="M128.123,106.35c-1.017-6.344-5.152-11.668-17.401-16.635c-4.254-1.957-8.998-3.355-10.411-6.58
	c-0.503-1.875-0.568-2.934-0.252-4.07c0.912-3.686,5.312-4.836,8.8-3.779c2.246,0.754,4.374,2.484,5.656,5.246
	c5.998-3.885,5.985-3.859,10.174-6.527c-1.533-2.379-2.353-3.475-3.356-4.493c-3.606-4.029-8.522-6.104-16.384-5.946
	c-1.361,0.172-2.734,0.357-4.096,0.529c-3.925,0.99-7.664,3.052-9.857,5.813c-6.58,7.465-4.704,20.534,3.303,25.911
	c7.889,5.92,19.477,7.268,20.956,12.803c1.44,6.779-4.981,8.973-11.362,8.193c-4.704-0.979-7.319-3.371-10.147-7.717
	c-5.206,3.012-5.206,3.012-10.558,6.09c1.27,2.775,2.603,4.031,4.73,6.436c10.068,10.213,35.265,9.713,39.784-5.748
	C127.886,115.348,129.102,111.807,128.123,106.35z M76.064,64.385H63.063c0,11.23-0.054,22.383-0.054,33.613
	c0,7.148,0.371,13.701-0.792,15.711c-1.902,3.951-6.831,3.463-9.077,2.695c-2.286-1.123-3.449-2.723-4.796-4.982
	c-0.37-0.646-0.648-1.148-0.74-1.188c-3.528,2.152-7.043,4.32-10.57,6.473c1.757,3.607,4.347,6.738,7.664,8.775
	c4.954,2.973,11.613,3.883,18.577,2.285c4.532-1.322,8.442-4.057,10.49-8.219c2.96-5.457,2.325-12.064,2.3-19.369
	C76.131,88.262,76.064,76.344,76.064,64.385z"/>
</svg>
