<?xml version="1.0" encoding="utf-8"?>
<!-- Generator: Adobe Illustrator 16.0.4, SVG Export Plug-In . SVG Version: 6.00 Build 0)  -->
<!DOCTYPE svg PUBLIC "-//W3C//DTD SVG 1.1//EN" "http://www.w3.org/Graphics/SVG/1.1/DTD/svg11.dtd">
<svg version="1.1" id="Layer_1" xmlns="http://www.w3.org/2000/svg" xmlns:xlink="http://www.w3.org/1999/xlink" x="0px" y="0px"
	 width="50px" height="50px" viewBox="0 0 50 50" enable-background="new 0 0 50 50" xml:space="preserve">
<path fill="#0868AC" d="M3.175,12.229c-4.427,6.363-3.876,14.642-0.494,21.402c0.081,0.162,0.165,0.321,0.248,0.48
	c0.053,0.102,0.103,0.205,0.158,0.305c0.031,0.06,0.066,0.118,0.099,0.176c0.058,0.107,0.117,0.21,0.176,0.314
	c0.105,0.186,0.213,0.37,0.323,0.554c0.061,0.102,0.121,0.202,0.184,0.304c0.122,0.197,0.247,0.392,0.375,0.586
	c0.053,0.083,0.105,0.166,0.16,0.246c0.176,0.264,0.356,0.525,0.542,0.783c0.004,0.007,0.01,0.015,0.016,0.021
	c0.029,0.042,0.062,0.082,0.091,0.123c0.161,0.223,0.327,0.441,0.495,0.658c0.062,0.079,0.124,0.158,0.186,0.237
	c0.15,0.188,0.302,0.375,0.457,0.562c0.058,0.069,0.116,0.14,0.175,0.208c0.208,0.245,0.42,0.489,0.637,0.728
	c0.004,0.004,0.009,0.009,0.013,0.014c0.009,0.01,0.017,0.017,0.025,0.026c0.211,0.231,0.428,0.457,0.647,0.683
	c0.068,0.069,0.137,0.14,0.208,0.209c0.17,0.171,0.342,0.339,0.517,0.507c0.071,0.067,0.141,0.136,0.211,0.2
	c0.233,0.22,0.468,0.435,0.708,0.645c0.004,0.004,0.007,0.007,0.011,0.009c0.041,0.037,0.083,0.071,0.124,0.105
	c0.211,0.184,0.426,0.365,0.643,0.543c0.088,0.072,0.178,0.142,0.266,0.213c0.177,0.142,0.356,0.282,0.536,0.419
	c0.095,0.073,0.191,0.146,0.287,0.218c0.199,0.146,0.399,0.291,0.602,0.432c0.073,0.054,0.145,0.105,0.219,0.156
	c0.021,0.014,0.04,0.028,0.061,0.043c0.192,0.132,0.388,0.259,0.584,0.386c0.084,0.057,0.168,0.114,0.253,0.169
	c0.301,0.19,0.606,0.379,0.915,0.561c0.084,0.048,0.168,0.095,0.253,0.143c0.227,0.13,0.455,0.259,0.687,0.385
	c0.125,0.067,0.253,0.131,0.38,0.195c0.163,0.086,0.325,0.173,0.491,0.256c0.038,0.019,0.077,0.036,0.113,0.055
	c0.067,0.032,0.134,0.063,0.201,0.097c0.257,0.123,0.517,0.244,0.779,0.36c0.056,0.025,0.109,0.05,0.165,0.074
	c0.3,0.131,0.603,0.257,0.908,0.378c0.073,0.029,0.147,0.058,0.221,0.087c0.283,0.108,0.569,0.216,0.857,0.317
	c0.037,0.013,0.071,0.024,0.108,0.037c0.315,0.11,0.634,0.213,0.956,0.312c0.077,0.022,0.153,0.047,0.231,0.069
	c0.327,0.099,0.649,0.216,0.986,0.278C42.574,52.399,48.793,35.63,48.793,35.63c-5.224,6.805-14.494,8.6-23.278,6.601
	c-0.333-0.075-0.655-0.179-0.98-0.274c-0.083-0.024-0.163-0.05-0.244-0.074c-0.317-0.097-0.632-0.199-0.944-0.307
	c-0.043-0.016-0.086-0.031-0.129-0.047c-0.28-0.099-0.557-0.202-0.833-0.309c-0.078-0.031-0.156-0.061-0.233-0.092
	c-0.302-0.119-0.603-0.244-0.899-0.374c-0.061-0.025-0.119-0.053-0.179-0.079c-0.255-0.115-0.507-0.231-0.758-0.353
	c-0.072-0.035-0.145-0.069-0.219-0.105c-0.197-0.096-0.392-0.198-0.586-0.298c-0.13-0.068-0.263-0.134-0.392-0.205
	c-0.237-0.127-0.471-0.26-0.703-0.395c-0.079-0.044-0.158-0.086-0.237-0.132c-0.309-0.182-0.614-0.37-0.915-0.561
	c-0.083-0.054-0.165-0.11-0.247-0.165c-0.219-0.141-0.437-0.284-0.651-0.433c-0.071-0.048-0.14-0.1-0.209-0.147
	c-0.208-0.146-0.412-0.295-0.616-0.445c-0.092-0.068-0.183-0.138-0.273-0.206c-0.187-0.143-0.372-0.286-0.555-0.435
	c-0.083-0.065-0.166-0.132-0.248-0.198c-0.233-0.192-0.464-0.385-0.692-0.583c-0.024-0.021-0.05-0.042-0.076-0.063
	c-0.246-0.217-0.488-0.438-0.728-0.662c-0.069-0.066-0.137-0.13-0.205-0.196c-0.177-0.169-0.352-0.339-0.522-0.513
	c-0.069-0.068-0.138-0.136-0.205-0.204c-0.218-0.224-0.432-0.449-0.641-0.679c-0.011-0.012-0.021-0.021-0.032-0.034
	c-0.222-0.242-0.438-0.489-0.65-0.739c-0.058-0.069-0.113-0.136-0.17-0.203c-0.158-0.19-0.315-0.384-0.468-0.578
	c-0.058-0.07-0.115-0.142-0.171-0.214c-0.185-0.239-0.365-0.478-0.541-0.72C4.485,24.557,2.732,15.381,6.63,7.846"/>
<path fill="#0868AC" d="M16.917,6.868c-3.201,4.607-3.028,10.774-0.53,15.646c0.419,0.817,0.89,1.609,1.416,2.364
	c0.48,0.688,1.011,1.505,1.648,2.058c0.231,0.254,0.472,0.502,0.718,0.746c0.062,0.063,0.126,0.124,0.189,0.187
	c0.239,0.231,0.482,0.46,0.734,0.682c0.01,0.009,0.02,0.019,0.03,0.026c0.003,0.003,0.005,0.004,0.007,0.007
	c0.278,0.244,0.565,0.479,0.857,0.709c0.065,0.05,0.129,0.102,0.194,0.152c0.292,0.224,0.591,0.444,0.897,0.654
	c0.009,0.006,0.017,0.013,0.026,0.02c0.135,0.094,0.272,0.181,0.409,0.27c0.065,0.043,0.127,0.089,0.194,0.129
	c0.218,0.14,0.439,0.276,0.664,0.407c0.032,0.02,0.063,0.036,0.095,0.054c0.193,0.112,0.391,0.222,0.587,0.329
	c0.069,0.038,0.139,0.072,0.209,0.108c0.136,0.071,0.272,0.144,0.411,0.213c0.021,0.01,0.042,0.019,0.062,0.028
	c0.282,0.139,0.567,0.272,0.857,0.398c0.062,0.028,0.126,0.053,0.189,0.078c0.232,0.099,0.467,0.195,0.702,0.285
	c0.101,0.038,0.201,0.074,0.301,0.11c0.215,0.08,0.43,0.152,0.646,0.225c0.098,0.031,0.194,0.063,0.292,0.094
	c0.308,0.096,0.612,0.216,0.933,0.27C46.184,35.855,50,23.129,50,23.129c-3.44,4.954-10.103,7.318-17.211,5.473
	c-0.315-0.083-0.627-0.173-0.937-0.271c-0.095-0.028-0.188-0.06-0.281-0.091c-0.22-0.071-0.438-0.146-0.655-0.226
	c-0.099-0.036-0.198-0.073-0.296-0.11c-0.236-0.091-0.472-0.186-0.704-0.284c-0.063-0.026-0.127-0.052-0.189-0.08
	c-0.292-0.127-0.579-0.261-0.862-0.401c-0.146-0.071-0.289-0.146-0.433-0.22c-0.083-0.043-0.167-0.086-0.25-0.129
	c-0.184-0.1-0.367-0.203-0.547-0.309c-0.043-0.024-0.088-0.048-0.132-0.073c-0.223-0.131-0.443-0.267-0.662-0.405
	c-0.067-0.042-0.132-0.089-0.199-0.133c-0.145-0.094-0.288-0.188-0.43-0.284c-0.304-0.21-0.6-0.431-0.893-0.653
	c-0.067-0.054-0.135-0.105-0.201-0.158c-3.111-2.457-5.578-5.814-6.75-9.622c-1.229-3.948-0.964-8.38,1.166-11.977"/>
<path fill="#0868AC" d="M28.475,2.863c-1.888,2.778-2.073,6.227-0.764,9.295c1.381,3.256,4.211,5.81,7.514,7.021
	c0.137,0.051,0.272,0.097,0.41,0.144c0.061,0.018,0.121,0.038,0.182,0.057c0.194,0.061,0.387,0.132,0.588,0.17
	c9.128,1.763,11.604-4.684,12.263-5.633c-2.169,3.123-5.813,3.873-10.285,2.787c-0.353-0.085-0.741-0.213-1.082-0.334
	c-0.437-0.155-0.866-0.333-1.284-0.534c-0.795-0.381-1.551-0.844-2.253-1.375c-4.001-3.036-6.486-8.828-3.876-13.544"/>
</svg>
