<?xml version="1.0" encoding="utf-8"?>
<!-- Generator: Adobe Illustrator 16.0.4, SVG Export Plug-In . SVG Version: 6.00 Build 0)  -->
<!DOCTYPE svg PUBLIC "-//W3C//DTD SVG 1.1//EN" "http://www.w3.org/Graphics/SVG/1.1/DTD/svg11.dtd">
<svg version="1.1" id="Layer_1" xmlns="http://www.w3.org/2000/svg" xmlns:xlink="http://www.w3.org/1999/xlink" x="0px" y="0px"
	 width="50px" height="50px" viewBox="0 0 50 50" enable-background="new 0 0 50 50" xml:space="preserve">
<g transform="translate(0.738281, 121.593)">
	<path fill="#00618A" d="M-0.738-85.985h1.647v-6.505l2.55,5.67c0.301,0.687,0.712,0.93,1.521,0.93c0.808,0,1.204-0.243,1.504-0.93
		l2.55-5.67v6.505h1.647v-6.495c0-0.633-0.253-0.939-0.776-1.098c-1.251-0.391-2.091-0.053-2.471,0.792l-2.502,5.597l-2.423-5.597
		c-0.364-0.845-1.219-1.183-2.471-0.792c-0.523,0.158-0.776,0.465-0.776,1.098V-85.985z"/>
</g>
<g transform="translate(100.444, 142.416)">
	<path fill="#00618A" d="M-87.654-112.103h1.647v3.584c-0.016,0.194,0.062,0.651,0.965,0.666c0.46,0.007,3.553,0,3.582,0v-4.268
		h1.651c0.007,0-0.001,5.819-0.001,5.844c0.009,1.436-1.781,1.747-2.605,1.771h-5.201v-1.108c0.009,0,5.197,0.001,5.21-0.001
		c1.06-0.111,0.935-0.639,0.935-0.816v-0.432h-3.501c-1.629-0.015-2.667-0.726-2.679-1.543
		C-87.654-108.481-87.618-112.066-87.654-112.103z"/>
</g>
<g transform="translate(171.496, 124.557)">
	<path fill="#E48E00" d="M-149.593-88.949h4.735c0.555,0,1.094-0.116,1.521-0.317c0.713-0.327,1.062-0.771,1.062-1.352v-1.204
		c0-0.475-0.396-0.918-1.172-1.214c-0.412-0.158-0.919-0.242-1.41-0.242h-1.996c-0.665,0-0.981-0.201-1.061-0.645
		c-0.016-0.053-0.016-0.096-0.016-0.148v-0.749c0-0.043,0-0.085,0.016-0.138c0.079-0.338,0.253-0.433,0.839-0.486
		c0.048,0,0.111-0.01,0.159-0.01h4.704v-1.099h-4.625c-0.665,0-1.014,0.043-1.33,0.138c-0.982,0.306-1.41,0.792-1.41,1.637v0.961
		c0,0.739,0.84,1.373,2.249,1.521c0.159,0.011,0.317,0.021,0.475,0.021h1.711c0.062,0,0.126,0,0.174,0.01
		c0.522,0.042,0.744,0.138,0.903,0.328c0.095,0.095,0.126,0.189,0.126,0.295v0.961c0,0.116-0.079,0.265-0.237,0.391
		c-0.143,0.127-0.38,0.212-0.697,0.232c-0.063,0-0.11,0.011-0.174,0.011h-4.546V-88.949z"/>
</g>
<g transform="translate(308.656, 124.557)">
	<path fill="#E48E00" d="M-269.159-90.861c0,1.131,0.84,1.764,2.534,1.891c0.158,0.011,0.316,0.021,0.475,0.021h4.293v-1.099h-4.324
		c-0.966,0-1.331-0.243-1.331-0.824v-5.681h-1.646V-90.861z"/>
</g>
<g transform="translate(236.74, 124.666)">
	<path fill="#E48E00" d="M-206.468-90.911v-3.915c0-0.995,0.698-1.599,2.079-1.789c0.143-0.021,0.302-0.031,0.444-0.031h3.127
		c0.158,0,0.302,0.011,0.46,0.031c1.381,0.19,2.079,0.794,2.079,1.789v3.915c0,0.807-0.297,1.238-0.979,1.52l1.622,1.465h-1.913
		l-1.312-1.186l-1.321,0.085h-1.762c-0.302,0-0.619-0.043-0.969-0.138C-205.96-89.451-206.468-90.002-206.468-90.911z
		 M-204.689-91.007c0,0.053,0.016,0.106,0.031,0.17c0.095,0.454,0.523,0.708,1.174,0.708h1.497l-1.375-1.241h1.913l1.198,1.083
		c0.222-0.118,0.367-0.298,0.417-0.529c0.017-0.053,0.017-0.105,0.017-0.158v-3.757c0-0.043,0-0.095-0.017-0.148
		c-0.095-0.423-0.523-0.666-1.158-0.666h-2.492c-0.729,0-1.205,0.317-1.205,0.814V-91.007z"/>
</g>
<g transform="translate(241.59, -4.64258)">
	<path fill="#00618A" d="M-193.342,30.826c-1.013-0.027-1.786,0.066-2.447,0.346c-0.188,0.079-0.487,0.081-0.519,0.316
		c0.104,0.108,0.119,0.27,0.201,0.403c0.158,0.256,0.425,0.598,0.662,0.777c0.261,0.196,0.528,0.406,0.807,0.576
		c0.496,0.302,1.049,0.475,1.526,0.777c0.281,0.178,0.561,0.402,0.835,0.604c0.136,0.1,0.227,0.254,0.402,0.316
		c0-0.01,0-0.019,0-0.028c-0.092-0.118-0.116-0.28-0.201-0.403c-0.124-0.125-0.249-0.25-0.374-0.375
		c-0.366-0.485-0.831-0.912-1.324-1.266c-0.394-0.283-1.275-0.665-1.44-1.123c-0.009-0.01-0.019-0.02-0.028-0.029
		c0.279-0.031,0.606-0.133,0.864-0.201c0.433-0.116,0.819-0.087,1.267-0.202c0.201-0.058,0.403-0.115,0.604-0.173
		c0-0.038,0-0.076,0-0.115c-0.226-0.231-0.387-0.538-0.634-0.748c-0.645-0.549-1.348-1.098-2.073-1.555
		c-0.401-0.254-0.897-0.419-1.324-0.634c-0.143-0.072-0.395-0.109-0.489-0.23c-0.224-0.285-0.346-0.646-0.519-0.979
		c-0.361-0.696-0.716-1.457-1.036-2.188c-0.218-0.5-0.361-0.992-0.633-1.44c-1.308-2.148-2.715-3.446-4.895-4.721
		c-0.465-0.271-1.023-0.378-1.613-0.518c-0.316-0.02-0.634-0.039-0.95-0.058c-0.193-0.081-0.395-0.317-0.575-0.432
		c-0.723-0.456-2.575-1.449-3.109-0.144c-0.338,0.824,0.504,1.627,0.806,2.044c0.212,0.292,0.482,0.621,0.633,0.95
		c0.101,0.217,0.117,0.434,0.202,0.662c0.209,0.564,0.392,1.178,0.662,1.699c0.138,0.264,0.288,0.541,0.461,0.777
		c0.106,0.145,0.288,0.208,0.316,0.432c-0.178,0.249-0.188,0.635-0.287,0.95c-0.451,1.419-0.281,3.183,0.374,4.232
		c0.2,0.323,0.674,1.015,1.324,0.749c0.568-0.231,0.441-0.95,0.604-1.584c0.037-0.144,0.015-0.249,0.086-0.346
		c0,0.01,0,0.02,0,0.029c0.174,0.346,0.346,0.691,0.519,1.036c0.384,0.618,1.064,1.264,1.642,1.699
		c0.299,0.227,0.534,0.616,0.921,0.749c0-0.01,0-0.02,0-0.029c-0.01,0-0.019,0-0.028,0c-0.075-0.117-0.192-0.165-0.288-0.259
		c-0.226-0.221-0.477-0.496-0.662-0.749c-0.525-0.712-0.988-1.492-1.411-2.303c-0.202-0.388-0.377-0.815-0.547-1.21
		c-0.065-0.152-0.065-0.382-0.201-0.461c-0.187,0.289-0.461,0.522-0.605,0.864c-0.23,0.545-0.26,1.211-0.345,1.9
		c-0.051,0.018-0.028,0.006-0.058,0.028c-0.401-0.097-0.542-0.51-0.691-0.863c-0.377-0.896-0.446-2.338-0.115-3.369
		c0.086-0.267,0.474-1.106,0.316-1.354c-0.074-0.246-0.322-0.388-0.46-0.576c-0.172-0.231-0.343-0.537-0.461-0.806
		c-0.309-0.698-0.453-1.482-0.777-2.188c-0.155-0.337-0.418-0.679-0.634-0.979c-0.238-0.332-0.506-0.577-0.69-0.979
		c-0.066-0.143-0.155-0.372-0.058-0.518c0.03-0.099,0.074-0.141,0.172-0.173c0.168-0.129,0.633,0.043,0.807,0.115
		c0.462,0.192,0.847,0.375,1.238,0.633c0.188,0.125,0.377,0.365,0.604,0.432c0.087,0,0.173,0,0.259,0
		c0.405,0.093,0.859,0.029,1.238,0.144c0.669,0.204,1.269,0.52,1.814,0.864c1.659,1.047,3.016,2.539,3.944,4.318
		c0.149,0.286,0.214,0.561,0.345,0.864c0.266,0.612,0.6,1.243,0.864,1.842c0.264,0.599,0.521,1.202,0.893,1.699
		c0.196,0.262,0.952,0.402,1.296,0.548c0.24,0.102,0.636,0.207,0.863,0.345c0.437,0.263,0.858,0.576,1.268,0.864
		C-194.001,30.25-193.373,30.566-193.342,30.826z"/>
</g>
<g transform="translate(272.504, 24.8027)">
	<path fill="#00618A" d="M-237.126-9.589c-0.211-0.004-0.36,0.023-0.519,0.058c0,0.01,0,0.02,0,0.029c0.01,0,0.02,0,0.029,0
		c0.101,0.207,0.278,0.34,0.403,0.519c0.096,0.201,0.191,0.402,0.288,0.604c0.009-0.01,0.019-0.02,0.028-0.029
		c0.178-0.125,0.26-0.326,0.259-0.633c-0.071-0.075-0.082-0.169-0.144-0.259C-236.862-9.421-237.023-9.489-237.126-9.589z"/>
</g>
<g transform="translate(371.609, 165.56)">
	<path fill="#E48E00" d="M-324.037-131.081c0,0.726,0.573,1.214,1.214,1.214s1.214-0.488,1.214-1.214
		c0-0.725-0.573-1.214-1.214-1.214S-324.037-131.806-324.037-131.081z M-321.88-131.081c0,0.551-0.422,0.962-0.942,0.962
		c-0.527,0-0.942-0.411-0.942-0.962s0.415-0.962,0.942-0.962C-322.302-132.043-321.88-131.632-321.88-131.081z M-322.496-130.389
		h0.271l-0.398-0.607c0.214-0.023,0.376-0.127,0.376-0.38c0-0.281-0.179-0.397-0.521-0.397h-0.54v1.385h0.232v-0.599h0.217
		L-322.496-130.389z M-323.076-131.181v-0.398h0.269c0.14,0,0.309,0.025,0.309,0.188c0,0.193-0.152,0.211-0.328,0.211H-323.076z"/>
</g>
</svg>
