<?xml version="1.0" encoding="utf-8"?>
<!-- Generator: Adobe Illustrator 18.1.0, SVG Export Plug-In . SVG Version: 6.00 Build 0)  -->
<svg version="1.1" id="Layer_1" xmlns="http://www.w3.org/2000/svg" xmlns:xlink="http://www.w3.org/1999/xlink" x="0px" y="0px"
	 viewBox="0 0 140 140" enable-background="new 0 0 140 140" xml:space="preserve">
<g id="layer1" transform="translate(-115.94417,-501.42131)">
	<path id="path28" fill="#83CD29" d="M185.9,501.4c-1.9,0-3.7,0.4-5.3,1.3l-51.4,29.7c-3.3,1.9-5.3,5.5-5.3,9.4v59.3
		c0,3.8,2,7.5,5.3,9.4l13.4,7.7c6.5,3.2,8.9,3.2,11.9,3.2c9.7,0,15.2-5.9,15.2-16v-58.5c0-0.8-0.7-1.4-1.5-1.4h-6.4
		c-0.8,0-1.5,0.6-1.5,1.4v58.5c0,4.5-4.7,9-12.3,5.2l-14-8.2c-0.5-0.3-0.9-0.8-0.9-1.3v-59.3c0-0.6,0.4-1.1,0.9-1.4l51.3-29.6
		c0.5-0.3,1-0.3,1.5,0l51.3,29.6c0.5,0.3,0.9,0.8,0.9,1.4V601c0,0.6-0.3,1.1-0.8,1.4L186.7,632c-0.4,0.3-1,0.3-1.5,0l-13.2-7.9
		c-0.4-0.2-0.9-0.2-1.3,0c-3.7,2.1-4.3,2.3-7.8,3.5c-0.8,0.3-2.1,0.7,0.4,2.2l17.2,10.2c1.6,0.9,3.5,1.4,5.3,1.4
		c1.9,0,3.7-0.5,5.3-1.4l51.4-29.6c3.3-1.9,5.3-5.5,5.3-9.4v-59.3c0-3.9-2-7.5-5.3-9.4l-51.4-29.7
		C189.7,501.8,187.8,501.4,185.9,501.4L185.9,501.4z M199.7,543.8c-14.6,0-23.4,6.2-23.4,16.6c0,11.2,8.7,14.3,22.7,15.7
		c16.8,1.6,18.1,4.1,18.1,7.4c0,5.7-4.6,8.2-15.4,8.2c-13.6,0-16.6-3.4-17.6-10.1c-0.1-0.7-0.7-1.3-1.4-1.3h-6.7
		c-0.8,0-1.5,0.7-1.5,1.5c0,8.6,4.7,18.9,27.2,18.9c16.3,0,25.6-6.4,25.6-17.6c0-11.1-7.6-14.1-23.4-16.2
		c-15.9-2.1-17.5-3.1-17.5-6.9c0-3.1,1.3-7.2,13.1-7.2c10.5,0,14.4,2.3,16,9.4c0.1,0.7,0.7,1.2,1.4,1.2h6.7c0.4,0,0.8-0.3,1.1-0.5
		c0.3-0.3,0.5-0.7,0.4-1.1C224.3,549.5,216.1,543.8,199.7,543.8L199.7,543.8z"/>
</g>
</svg>
