<?xml version="1.0" encoding="utf-8"?>
<!-- Generator: Adobe Illustrator 16.0.4, SVG Export Plug-In . SVG Version: 6.00 Build 0)  -->
<!DOCTYPE svg PUBLIC "-//W3C//DTD SVG 1.1//EN" "http://www.w3.org/Graphics/SVG/1.1/DTD/svg11.dtd">
<svg version="1.1" id="Layer_1" xmlns="http://www.w3.org/2000/svg" xmlns:xlink="http://www.w3.org/1999/xlink" x="0px" y="0px"
	 width="50px" height="50px" viewBox="0 0 50 50" enable-background="new 0 0 50 50" xml:space="preserve">
<g id="g3107" transform="matrix(1.0000613,0,0,0.99989632,-1.8182688e-7,0.01324191)">
	<path id="path3101" inkscape:connector-curvature="0" fill="#020202" d="M25.83-0.008c-0.418,0.019-0.664,0.097-0.94,0.195
		c-1.735,0.614-2.492,1.951-2.49,4.407c0,0.695,0.202,7.641,0.452,15.429c0.249,7.788,0.537,16.81,0.635,20.044
		c0.129,4.257,0.227,6.103,0.354,6.702c0.311,1.471,1.276,2.565,2.649,3.003c0.358,0.114,0.999,0.216,1.428,0.22
		c0.848,0.007,18.334-2.944,19.312-3.259c0.815-0.263,1.778-1.218,2.222-2.185c0.685-1.499,0.686-1.469,0.22-8.374
		c-0.637-9.39-1.531-23.191-1.733-26.697c-0.201-3.473-0.322-4.1-1.025-5.139c-0.502-0.74-1.587-1.545-2.381-1.782
		c-0.326-0.097-2.344-0.435-4.48-0.745C29.912,0.341,27.082-0.065,25.83-0.008z M28.736,9.025c1.095-0.035,3.195,0.105,8.069,0.476
		c5.92,0.45,6.636,0.524,7.068,0.745c0.725,0.37,1.335,0.996,1.673,1.684c0.295,0.603,0.31,0.726,0.573,5.261
		c0.148,2.559,0.46,7.632,0.684,11.267c0.375,6.112,0.393,6.651,0.232,7.203c-0.311,1.065-1.356,1.99-2.638,2.331
		c-0.25,0.066-3.464,0.426-7.141,0.806c-3.677,0.379-6.949,0.686-7.263,0.684c-1.027-0.01-2.015-0.503-2.551-1.282
		c-0.628-0.91-0.72-1.384-0.83-4.48c-0.057-1.57-0.258-7.176-0.452-12.463c-0.326-8.857-0.335-9.659-0.171-10.217
		c0.231-0.79,0.768-1.434,1.489-1.77C27.782,9.127,28.078,9.046,28.736,9.025z"/>
	<path id="path3097" inkscape:connector-curvature="0" fill="#333333" d="M15.381,4.813c-0.289,0.01-0.479,0.054-0.745,0.122
		c-0.965,0.249-1.452,0.56-1.856,1.196c-0.692,1.092-0.658-0.535-0.317,18.115c0.308,16.857,0.335,17.888,0.659,18.616
		c0.466,1.047,1.272,1.687,2.442,1.941c0.395,0.086,0.824,0.153,0.952,0.159c0.322,0.012,6.358-0.769,6.421-0.83
		c0.049-0.049-0.192-7.761-0.244-7.812c-0.014-0.015-1.054,0.081-2.307,0.207c-2.362,0.236-2.955,0.204-3.675-0.171
		c-0.655-0.342-1.183-1.12-1.379-2.027c-0.06-0.273-0.208-4.974-0.317-10.449c-0.226-11.225-0.253-10.577,0.647-11.389
		c0.705-0.636,1.088-0.686,3.589-0.525c1.194,0.077,2.293,0.161,2.442,0.195l0.281,0.073L21.9,9.733
		c-0.04-1.375-0.1-2.912-0.134-3.418l-0.073-0.928L18.53,5.07C16.622,4.875,15.861,4.798,15.381,4.813z M28.967,9.624
		c-0.983,0.013-1.314,0.188-1.758,0.61c-0.473,0.451-0.694,1.03-0.695,1.819c-0.001,0.555-0.142,0.502,2.404,0.72
		c1.612,0.138,2.262,0.401,2.869,1.135c0.632,0.765,0.639,0.903,1.05,10.339c0.416,9.567,0.432,9.335-0.195,10.156
		c-0.168,0.22-0.614,0.542-1.025,0.745c-0.633,0.311-0.955,0.382-2.49,0.537c-0.968,0.098-1.772,0.198-1.795,0.22
		c-0.022,0.021,0.021,0.301,0.098,0.635c0.291,1.258,1.006,2.045,2.063,2.258c0.277,0.056,0.684,0.086,0.903,0.061
		c0.22-0.025,1.458-0.161,2.747-0.293c1.288-0.131,2.377-0.263,2.417-0.305c0.039-0.043-0.221-6.428-0.574-14.185L34.339,9.978
		l-2.735-0.22C30.391,9.665,29.558,9.616,28.967,9.624z"/>
	<path id="path3093" inkscape:connector-curvature="0" fill="#666666" d="M6.677,10.551c-1.3,0.015-2.198,0.67-2.405,1.746
		c-0.044,0.229-0.017,3.908,0.061,8.179c0.232,12.739,0.329,16.119,0.489,16.651c0.193,0.644,0.864,1.29,1.55,1.501
		c0.728,0.224,1.1,0.214,3.454-0.049c1.1-0.123,2.07-0.23,2.148-0.232c0.112-0.002,0.118-0.599,0.061-2.771
		c-0.04-1.523-0.074-2.781-0.085-2.795c-0.011-0.015-0.755,0.028-1.648,0.098c-2,0.154-2.518,0.088-3.064-0.391
		c-0.762-0.669-0.736-0.434-0.915-8.374l-0.171-7.214l0.244-0.476c0.183-0.358,0.377-0.535,0.769-0.708
		C7.65,15.5,7.827,15.49,9.692,15.568l2.002,0.085l-0.073-2.319c-0.042-1.277-0.135-2.356-0.195-2.393
		C11.262,10.841,7.61,10.54,6.677,10.551z M17.444,12.577c-0.374,0.01-0.672,0.033-0.793,0.073c-0.873,0.288-1.291,1.215-1.16,2.527
		l0.073,0.757l1.269,0.061c1.519,0.067,2.076,0.289,2.563,1.025l0.317,0.476v6.823v6.824l-0.342,0.366
		c-0.519,0.553-1.205,0.808-2.392,0.891l-1.038,0.073l-0.037,0.623c-0.083,1.37,0.374,2.341,1.294,2.759
		c0.254,0.115,0.694,0.197,0.977,0.195c0.772-0.007,3.285-0.271,3.369-0.355c0.103-0.103,0.082-2.574-0.11-11.17
		c-0.249-11.135-0.28-11.507-0.745-11.755C20.428,12.632,18.566,12.547,17.444,12.577z"/>
	<path id="path3089" inkscape:connector-curvature="0" fill="#B3B3B3" d="M2.502,17.228c-0.271-0.006-0.571,0.001-0.842,0.012
		c-0.949,0.039-1.01,0.057-1.33,0.415L0,18.022v4.822c0,2.652,0.032,5.568,0.073,6.469c0.068,1.496,0.098,1.663,0.342,1.953
		c0.147,0.175,0.46,0.374,0.696,0.439c0.235,0.065,0.61,0.101,0.83,0.073c0.22-0.027,0.746-0.048,1.172-0.049h0.781l-0.037-1.465
		l-0.024-1.452l-1.062-0.062c-1.679-0.091-1.559,0.223-1.599-4.407c-0.037-4.323-0.05-4.269,0.781-4.492
		c0.269-0.072,0.731-0.093,1.086-0.049l0.623,0.073V18.62v-1.27l-0.513-0.073C3.01,17.256,2.773,17.235,2.502,17.228z M6.86,17.424
		v1.209v1.22h0.354c0.463,0,1.101,0.306,1.269,0.61c0.196,0.355,0.272,7.154,0.085,7.605c-0.15,0.362-0.71,0.684-1.184,0.684H7.08
		v1.014c0,0.557,0.034,1.183,0.073,1.379c0.07,0.349,0.092,0.355,0.72,0.354c0.736,0,1.311-0.249,1.648-0.708
		c0.222-0.302,0.223-0.399,0.085-6.164c-0.121-5.059-0.164-5.911-0.33-6.25c-0.305-0.624-0.712-0.852-1.623-0.903L6.86,17.424z"/>
</g>
</svg>
