<?xml version="1.0" encoding="utf-8"?>
<!-- Generator: Adobe Illustrator 16.0.4, SVG Export Plug-In . SVG Version: 6.00 Build 0)  -->
<!DOCTYPE svg PUBLIC "-//W3C//DTD SVG 1.1//EN" "http://www.w3.org/Graphics/SVG/1.1/DTD/svg11.dtd">
<svg version="1.1" id="Layer_1" xmlns="http://www.w3.org/2000/svg" xmlns:xlink="http://www.w3.org/1999/xlink" x="0px" y="0px"
	 width="50px" height="50px" viewBox="0 0 50 50" enable-background="new 0 0 50 50" xml:space="preserve">
<g id="layer2" inkscape:label="Square" inkscape:groupmode="layer">
	<path id="rect2862" d="M7.26,0.051h35.48c4.009,0,7.26,3.25,7.26,7.26v35.378c0,4.01-3.251,7.26-7.26,7.26H7.26
		c-4.01,0-7.26-3.25-7.26-7.26V7.311C0,3.301,3.25,0.051,7.26,0.051z"/>
</g>
<g id="layer6" inkscape:label="Translucent Circles" inkscape:groupmode="layer">
	<g>
		<defs>
			<path id="SVGID_1_" d="M7.26,0.051h35.48c4.009,0,7.26,3.25,7.26,7.26v35.378c0,4.01-3.251,7.26-7.26,7.26H7.26
				c-4.01,0-7.26-3.25-7.26-7.26V7.311C0,3.301,3.25,0.051,7.26,0.051z"/>
		</defs>
		<clipPath id="SVGID_2_">
			<use xlink:href="#SVGID_1_"  overflow="visible"/>
		</clipPath>
		
			<path id="path3005" sodipodi:cx="45.229748" sodipodi:rx="82.049469" sodipodi:ry="82.049469" sodipodi:type="arc" sodipodi:cy="127.43267" opacity="0.5" clip-path="url(#SVGID_2_)" fill="#013157" enable-background="new    " d="
			M24.948,24.944c0,9.173-7.437,16.611-16.61,16.611c-9.173,0-16.61-7.438-16.61-16.611c0-9.174,7.438-16.61,16.61-16.61
			C17.512,8.333,24.948,15.77,24.948,24.944z"/>
	</g>
	<g>
		<defs>
			<path id="SVGID_3_" d="M7.26,0.051h35.48c4.009,0,7.26,3.25,7.26,7.26v35.378c0,4.01-3.251,7.26-7.26,7.26H7.26
				c-4.01,0-7.26-3.25-7.26-7.26V7.311C0,3.301,3.25,0.051,7.26,0.051z"/>
		</defs>
		<clipPath id="SVGID_4_">
			<use xlink:href="#SVGID_3_"  overflow="visible"/>
		</clipPath>
		
			<path id="path3785" sodipodi:cx="65.912453" sodipodi:rx="39.14341" sodipodi:ry="39.14341" sodipodi:type="arc" sodipodi:cy="21.392071" opacity="0.5" clip-path="url(#SVGID_4_)" fill="#013157" enable-background="new    " d="
			M20.449,3.477c0.001,4.376-3.547,7.925-7.923,7.925c-4.377,0.001-7.925-3.547-7.926-7.924V3.477c0-4.377,3.548-7.925,7.924-7.926
			c4.377,0,7.925,3.547,7.925,7.924C20.449,3.475,20.449,3.476,20.449,3.477z"/>
	</g>
	<g>
		<defs>
			<path id="SVGID_5_" d="M7.26,0.051h35.48c4.009,0,7.26,3.25,7.26,7.26v35.378c0,4.01-3.251,7.26-7.26,7.26H7.26
				c-4.01,0-7.26-3.25-7.26-7.26V7.311C0,3.301,3.25,0.051,7.26,0.051z"/>
		</defs>
		<clipPath id="SVGID_6_">
			<use xlink:href="#SVGID_5_"  overflow="visible"/>
		</clipPath>
		
			<path id="path3799" sodipodi:cx="191.4239" sodipodi:rx="39.39595" sodipodi:ry="39.39595" sodipodi:type="arc" sodipodi:cy="99.426353" opacity="0.5" clip-path="url(#SVGID_6_)" fill="#013157" enable-background="new    " d="
			M45.91,19.274c0,4.405-3.571,7.976-7.976,7.976c-4.405,0-7.976-3.571-7.976-7.976c0-4.404,3.57-7.976,7.976-7.976
			C42.339,11.298,45.91,14.87,45.91,19.274z"/>
	</g>
	<g>
		<defs>
			<path id="SVGID_7_" d="M7.26,0.051h35.48c4.009,0,7.26,3.25,7.26,7.26v35.378c0,4.01-3.251,7.26-7.26,7.26H7.26
				c-4.01,0-7.26-3.25-7.26-7.26V7.311C0,3.301,3.25,0.051,7.26,0.051z"/>
		</defs>
		<clipPath id="SVGID_8_">
			<use xlink:href="#SVGID_7_"  overflow="visible"/>
		</clipPath>
		
			<path id="path3801" sodipodi:cx="109.60155" sodipodi:rx="38.890873" sodipodi:ry="38.890873" sodipodi:type="arc" sodipodi:cy="28.210602" opacity="0.5" clip-path="url(#SVGID_8_)" fill="#013157" enable-background="new    " d="
			M29.243,4.857c0,4.349-3.525,7.873-7.873,7.874c-4.349,0-7.873-3.525-7.873-7.873c0-0.001,0-0.001,0-0.001
			c-0.001-4.348,3.524-7.873,7.873-7.873C25.718-3.016,29.243,0.508,29.243,4.857L29.243,4.857z"/>
	</g>
	<g>
		<defs>
			<path id="SVGID_9_" d="M7.26,0.051h35.48c4.009,0,7.26,3.25,7.26,7.26v35.378c0,4.01-3.251,7.26-7.26,7.26H7.26
				c-4.01,0-7.26-3.25-7.26-7.26V7.311C0,3.301,3.25,0.051,7.26,0.051z"/>
		</defs>
		<clipPath id="SVGID_10_">
			<use xlink:href="#SVGID_9_"  overflow="visible"/>
		</clipPath>
		
			<path id="path3803" sodipodi:cx="15.152288" sodipodi:rx="39.901024" sodipodi:ry="39.901024" sodipodi:type="arc" sodipodi:cy="214.58374" opacity="0.5" clip-path="url(#SVGID_10_)" fill="#013157" enable-background="new    " d="
			M10.327,42.588c0,4.461-3.617,8.076-8.078,8.076s-8.077-3.615-8.077-8.076c0-4.463,3.616-8.078,8.077-8.078
			S10.327,38.125,10.327,42.588z"/>
	</g>
	<g>
		<defs>
			<path id="SVGID_11_" d="M7.26,0.051h35.48c4.009,0,7.26,3.25,7.26,7.26v35.378c0,4.01-3.251,7.26-7.26,7.26H7.26
				c-4.01,0-7.26-3.25-7.26-7.26V7.311C0,3.301,3.25,0.051,7.26,0.051z"/>
		</defs>
		<clipPath id="SVGID_12_">
			<use xlink:href="#SVGID_11_"  overflow="visible"/>
		</clipPath>
		
			<path id="path3805" sodipodi:cx="233.34523" sodipodi:rx="39.39595" sodipodi:ry="39.39595" sodipodi:type="arc" sodipodi:cy="29.220755" opacity="0.5" clip-path="url(#SVGID_12_)" fill="#013157" enable-background="new    " d="
			M54.396,5.062c0,4.404-3.57,7.975-7.976,7.975c-4.404,0-7.976-3.57-7.976-7.975c0-4.405,3.571-7.976,7.976-7.976
			C50.826-2.914,54.396,0.657,54.396,5.062z"/>
	</g>
	<g>
		<defs>
			<path id="SVGID_13_" d="M7.26,0.051h35.48c4.009,0,7.26,3.25,7.26,7.26v35.378c0,4.01-3.251,7.26-7.26,7.26H7.26
				c-4.01,0-7.26-3.25-7.26-7.26V7.311C0,3.301,3.25,0.051,7.26,0.051z"/>
		</defs>
		<clipPath id="SVGID_14_">
			<use xlink:href="#SVGID_13_"  overflow="visible"/>
		</clipPath>
		
			<path id="path3807" sodipodi:cx="189.40359" sodipodi:rx="39.39595" sodipodi:ry="39.39595" sodipodi:type="arc" sodipodi:cy="15.583696" opacity="0.5" clip-path="url(#SVGID_14_)" fill="#013157" enable-background="new    " d="
			M45.501,2.301c0,4.404-3.571,7.975-7.976,7.975s-7.976-3.57-7.976-7.975c0-4.405,3.571-7.976,7.976-7.976
			S45.501-2.104,45.501,2.301L45.501,2.301z"/>
	</g>
	<g>
		<defs>
			<path id="SVGID_15_" d="M7.26,0.051h35.48c4.009,0,7.26,3.25,7.26,7.26v35.378c0,4.01-3.251,7.26-7.26,7.26H7.26
				c-4.01,0-7.26-3.25-7.26-7.26V7.311C0,3.301,3.25,0.051,7.26,0.051z"/>
		</defs>
		<clipPath id="SVGID_16_">
			<use xlink:href="#SVGID_15_"  overflow="visible"/>
		</clipPath>
		
			<path id="path3809" sodipodi:cx="221.72849" sodipodi:rx="40.911179" sodipodi:ry="40.911179" sodipodi:type="arc" sodipodi:cy="19.624306" opacity="0.5" clip-path="url(#SVGID_16_)" fill="#013157" enable-background="new    " d="
			M52.352,3.119c0,4.574-3.708,8.282-8.282,8.282s-8.282-3.708-8.282-8.282s3.708-8.282,8.282-8.282S52.352-1.456,52.352,3.119z"/>
	</g>
	<g>
		<defs>
			<path id="SVGID_17_" d="M7.26,0.051h35.48c4.009,0,7.26,3.25,7.26,7.26v35.378c0,4.01-3.251,7.26-7.26,7.26H7.26
				c-4.01,0-7.26-3.25-7.26-7.26V7.311C0,3.301,3.25,0.051,7.26,0.051z"/>
		</defs>
		<clipPath id="SVGID_18_">
			<use xlink:href="#SVGID_17_"  overflow="visible"/>
		</clipPath>
		
			<path id="path3815" sodipodi:cx="-22.223356" sodipodi:rx="96.974648" sodipodi:ry="96.974648" sodipodi:type="arc" sodipodi:cy="66.596397" opacity="0.5" clip-path="url(#SVGID_18_)" fill="#013157" enable-background="new    " d="
			M14.314,12.628c0,10.842-8.789,19.631-19.632,19.631c-10.842,0-19.632-8.79-19.632-19.631c0-10.843,8.79-19.632,19.632-19.632
			C5.525-7.004,14.314,1.786,14.314,12.628z"/>
	</g>
	<g>
		<defs>
			<path id="SVGID_19_" d="M7.26,0.051h35.48c4.009,0,7.26,3.25,7.26,7.26v35.378c0,4.01-3.251,7.26-7.26,7.26H7.26
				c-4.01,0-7.26-3.25-7.26-7.26V7.311C0,3.301,3.25,0.051,7.26,0.051z"/>
		</defs>
		<clipPath id="SVGID_20_">
			<use xlink:href="#SVGID_19_"  overflow="visible"/>
		</clipPath>
		
			<path id="path3823" sodipodi:cx="154.3008" sodipodi:rx="39.14341" sodipodi:ry="39.14341" sodipodi:type="arc" sodipodi:cy="116.85149" opacity="0.5" clip-path="url(#SVGID_20_)" fill="#013157" enable-background="new    " d="
			M38.343,22.802c0.001,4.375-3.547,7.924-7.923,7.924c-4.377,0.002-7.925-3.547-7.926-7.923v-0.001
			c0-4.377,3.547-7.925,7.924-7.926c4.377,0,7.925,3.547,7.925,7.924C38.343,22.8,38.343,22.801,38.343,22.802z"/>
	</g>
	<g>
		<defs>
			<path id="SVGID_21_" d="M7.26,0.051h35.48c4.009,0,7.26,3.25,7.26,7.26v35.378c0,4.01-3.251,7.26-7.26,7.26H7.26
				c-4.01,0-7.26-3.25-7.26-7.26V7.311C0,3.301,3.25,0.051,7.26,0.051z"/>
		</defs>
		<clipPath id="SVGID_22_">
			<use xlink:href="#SVGID_21_"  overflow="visible"/>
		</clipPath>
		
			<path id="path3829" sodipodi:cx="154.04826" sodipodi:rx="39.39595" sodipodi:ry="39.39595" sodipodi:type="arc" sodipodi:cy="-21.791948" opacity="0.5" clip-path="url(#SVGID_22_)" fill="#013157" enable-background="new    " d="
			M38.343-5.265c0,4.404-3.57,7.975-7.975,7.975c-4.405,0-7.976-3.57-7.976-7.975c0-4.405,3.57-7.976,7.976-7.976
			C34.772-13.241,38.343-9.67,38.343-5.265z"/>
	</g>
	<g>
		<defs>
			<path id="SVGID_23_" d="M7.26,0.051h35.48c4.009,0,7.26,3.25,7.26,7.26v35.378c0,4.01-3.251,7.26-7.26,7.26H7.26
				c-4.01,0-7.26-3.25-7.26-7.26V7.311C0,3.301,3.25,0.051,7.26,0.051z"/>
		</defs>
		<clipPath id="SVGID_24_">
			<use xlink:href="#SVGID_23_"  overflow="visible"/>
		</clipPath>
		
			<path id="path3829-1" sodipodi:cx="154.04826" sodipodi:rx="39.39595" sodipodi:ry="39.39595" sodipodi:type="arc" sodipodi:cy="-21.791948" opacity="0.5" clip-path="url(#SVGID_24_)" fill="#013157" enable-background="new    " d="
			M28.511-3.675c0,4.405-3.571,7.976-7.976,7.976c-4.405,0-7.976-3.57-7.976-7.976c0-4.404,3.57-7.975,7.976-7.975
			C24.939-11.65,28.511-8.08,28.511-3.675z"/>
	</g>
	<g>
		<defs>
			<path id="SVGID_25_" d="M7.26,0.051h35.48c4.009,0,7.26,3.25,7.26,7.26v35.378c0,4.01-3.251,7.26-7.26,7.26H7.26
				c-4.01,0-7.26-3.25-7.26-7.26V7.311C0,3.301,3.25,0.051,7.26,0.051z"/>
		</defs>
		<clipPath id="SVGID_26_">
			<use xlink:href="#SVGID_25_"  overflow="visible"/>
		</clipPath>
		
			<path id="path3829-7" sodipodi:cx="154.04826" sodipodi:rx="39.39595" sodipodi:ry="39.39595" sodipodi:type="arc" sodipodi:cy="-21.791948" opacity="0.5" clip-path="url(#SVGID_26_)" fill="#013157" enable-background="new    " d="
			M36.825-1.216c0,4.404-3.571,7.975-7.976,7.975s-7.976-3.57-7.976-7.975c0-4.405,3.571-7.976,7.976-7.976
			S36.825-5.622,36.825-1.216z"/>
	</g>
	<g>
		<defs>
			<path id="SVGID_27_" d="M7.26,0.051h35.48c4.009,0,7.26,3.25,7.26,7.26v35.378c0,4.01-3.251,7.26-7.26,7.26H7.26
				c-4.01,0-7.26-3.25-7.26-7.26V7.311C0,3.301,3.25,0.051,7.26,0.051z"/>
		</defs>
		<clipPath id="SVGID_28_">
			<use xlink:href="#SVGID_27_"  overflow="visible"/>
		</clipPath>
		
			<path id="path3829-7-4" sodipodi:cx="154.04826" sodipodi:rx="39.39595" sodipodi:ry="39.39595" sodipodi:type="arc" sodipodi:cy="-21.791948" opacity="0.5" clip-path="url(#SVGID_28_)" fill="#013157" enable-background="new    " d="
			M20.919-3.531c0,4.405-3.571,7.976-7.976,7.976c-4.405,0-7.976-3.57-7.976-7.976c0-4.404,3.57-7.975,7.976-7.975
			C17.348-11.506,20.919-7.935,20.919-3.531z"/>
	</g>
	<g>
		<defs>
			<path id="SVGID_29_" d="M7.26,0.051h35.48c4.009,0,7.26,3.25,7.26,7.26v35.378c0,4.01-3.251,7.26-7.26,7.26H7.26
				c-4.01,0-7.26-3.25-7.26-7.26V7.311C0,3.301,3.25,0.051,7.26,0.051z"/>
		</defs>
		<clipPath id="SVGID_30_">
			<use xlink:href="#SVGID_29_"  overflow="visible"/>
		</clipPath>
		
			<path id="path3827" sodipodi:cx="154.3008" sodipodi:rx="39.14341" sodipodi:ry="39.14341" sodipodi:type="arc" sodipodi:cy="62.808331" opacity="0.5" clip-path="url(#SVGID_30_)" fill="#013157" enable-background="new    " d="
			M38.343,11.861c0.001,4.377-3.547,7.925-7.923,7.926c-4.377,0-7.925-3.547-7.926-7.924c0,0,0-0.001,0-0.002
			c0-4.376,3.547-7.925,7.924-7.925C34.795,3.935,38.343,7.483,38.343,11.861L38.343,11.861z"/>
	</g>
	<g>
		<defs>
			<path id="SVGID_31_" d="M7.26,0.051h35.48c4.009,0,7.26,3.25,7.26,7.26v35.378c0,4.01-3.251,7.26-7.26,7.26H7.26
				c-4.01,0-7.26-3.25-7.26-7.26V7.311C0,3.301,3.25,0.051,7.26,0.051z"/>
		</defs>
		<clipPath id="SVGID_32_">
			<use xlink:href="#SVGID_31_"  overflow="visible"/>
		</clipPath>
		
			<path id="path3799-0" sodipodi:cx="191.4239" sodipodi:rx="39.39595" sodipodi:ry="39.39595" sodipodi:type="arc" sodipodi:cy="99.426353" opacity="0.5" clip-path="url(#SVGID_32_)" fill="#013157" enable-background="new    " d="
			M59.43,21.588c0,4.404-3.57,7.974-7.976,7.974c-4.404,0-7.975-3.57-7.975-7.974c0-4.405,3.57-7.976,7.975-7.976
			C55.859,13.613,59.43,17.183,59.43,21.588z"/>
	</g>
	<g>
		<defs>
			<path id="SVGID_33_" d="M7.26,0.051h35.48c4.009,0,7.26,3.25,7.26,7.26v35.378c0,4.01-3.251,7.26-7.26,7.26H7.26
				c-4.01,0-7.26-3.25-7.26-7.26V7.311C0,3.301,3.25,0.051,7.26,0.051z"/>
		</defs>
		<clipPath id="SVGID_34_">
			<use xlink:href="#SVGID_33_"  overflow="visible"/>
		</clipPath>
		
			<path id="path3799-4" sodipodi:cx="191.4239" sodipodi:rx="39.39595" sodipodi:ry="39.39595" sodipodi:type="arc" sodipodi:cy="99.426353" opacity="0.5" clip-path="url(#SVGID_34_)" fill="#013157" enable-background="new    " d="
			M59.574,11.199c0,4.405-3.57,7.976-7.975,7.976c-4.405,0-7.976-3.57-7.976-7.976c0-4.404,3.57-7.976,7.976-7.976
			C56.004,3.223,59.574,6.794,59.574,11.199z"/>
	</g>
</g>
<g id="layer7" inkscape:label="Smaller Circles" inkscape:groupmode="layer">
	
		<path id="path3996" sodipodi:cx="65.912453" sodipodi:rx="2.2728431" sodipodi:ry="2.2728431" sodipodi:type="arc" sodipodi:cy="21.77088" fill="#FFFFFF" d="
		M12.985,3.553c0,0.255-0.206,0.461-0.46,0.461s-0.46-0.206-0.46-0.46V3.553c0-0.254,0.205-0.46,0.46-0.46
		C12.779,3.092,12.985,3.298,12.985,3.553C12.985,3.553,12.985,3.553,12.985,3.553z"/>
	
		<path id="path3996-8" sodipodi:cx="65.912453" sodipodi:rx="2.2728431" sodipodi:ry="2.2728431" sodipodi:type="arc" sodipodi:cy="21.77088" fill="#FFFFFF" d="
		M21.733,4.783c0.001,0.254-0.205,0.46-0.459,0.46c-0.255,0.001-0.461-0.205-0.461-0.459c0-0.001,0-0.001,0-0.001
		c0-0.254,0.206-0.46,0.46-0.461C21.527,4.322,21.733,4.528,21.733,4.783L21.733,4.783z"/>
	
		<path id="path3996-4" sodipodi:cx="65.912453" sodipodi:rx="2.2728431" sodipodi:ry="2.2728431" sodipodi:type="arc" sodipodi:cy="21.77088" fill="#FFFFFF" d="
		M8.792,25.027c0,0.254-0.206,0.46-0.46,0.461c-0.254,0-0.46-0.206-0.46-0.46v-0.001c-0.001-0.254,0.205-0.46,0.459-0.46
		C8.586,24.566,8.792,24.772,8.792,25.027C8.792,25.027,8.792,25.027,8.792,25.027z"/>
	
		<path id="path3996-5" sodipodi:cx="65.912453" sodipodi:rx="2.2728431" sodipodi:ry="2.2728431" sodipodi:type="arc" sodipodi:cy="21.77088" fill="#FFFFFF" d="
		M38.363,19.459c0,0.254-0.206,0.461-0.46,0.461s-0.46-0.206-0.461-0.46c0,0,0,0,0-0.001c0-0.254,0.206-0.46,0.46-0.46
		C38.157,18.999,38.363,19.205,38.363,19.459L38.363,19.459z"/>
	
		<path id="path3996-7" sodipodi:cx="65.912453" sodipodi:rx="2.2728431" sodipodi:ry="2.2728431" sodipodi:type="arc" sodipodi:cy="21.77088" fill="#FFFFFF" d="
		M38.002,2.252c0,0.254-0.206,0.46-0.46,0.46s-0.46-0.205-0.461-0.46l0,0c0-0.255,0.206-0.461,0.46-0.461S38.001,1.998,38.002,2.252
		C38.002,2.251,38.002,2.251,38.002,2.252z"/>
	
		<path id="path3996-52" sodipodi:cx="65.912453" sodipodi:rx="2.2728431" sodipodi:ry="2.2728431" sodipodi:type="arc" sodipodi:cy="21.77088" fill="#FFFFFF" d="
		M44.364,3.12c0,0.254-0.206,0.46-0.46,0.461c-0.254,0-0.46-0.206-0.46-0.46V3.12c-0.001-0.254,0.205-0.46,0.459-0.46
		C44.158,2.659,44.364,2.865,44.364,3.12L44.364,3.12z"/>
	
		<path id="path3996-6" sodipodi:cx="65.912453" sodipodi:rx="2.2728431" sodipodi:ry="2.2728431" sodipodi:type="arc" sodipodi:cy="21.77088" fill="#FFFFFF" d="
		M46.895,4.927c0,0.254-0.205,0.46-0.46,0.46c-0.254,0.001-0.46-0.205-0.46-0.459c0-0.001,0-0.001,0-0.001
		c0-0.254,0.205-0.46,0.459-0.461C46.688,4.466,46.895,4.672,46.895,4.927L46.895,4.927z"/>
	
		<path id="path3996-4-1" sodipodi:cx="65.912453" sodipodi:rx="2.2728431" sodipodi:ry="2.2728431" sodipodi:type="arc" sodipodi:cy="21.77088" fill="#FFFFFF" d="
		M2.679,42.729c0,0.254-0.206,0.461-0.46,0.461s-0.46-0.205-0.461-0.459v-0.002c0-0.254,0.206-0.459,0.46-0.459
		C2.473,42.268,2.679,42.475,2.679,42.729L2.679,42.729z"/>
</g>
<g id="layer8" inkscape:label="Lines" inkscape:groupmode="layer">
	<g>
		<defs>
			<path id="SVGID_35_" d="M7.26,0.051h35.48c4.009,0,7.26,3.25,7.26,7.26v35.378c0,4.01-3.251,7.26-7.26,7.26H7.26
				c-4.01,0-7.26-3.25-7.26-7.26V7.311C0,3.301,3.25,0.051,7.26,0.051z"/>
		</defs>
		<clipPath id="SVGID_36_">
			<use xlink:href="#SVGID_35_"  overflow="visible"/>
		</clipPath>
		<path id="path4074" clip-path="url(#SVGID_36_)" fill="none" stroke="#FFFFFF" d="M12.558,3.542L8.364,25.232"/>
	</g>
	<g>
		<defs>
			<path id="SVGID_37_" d="M7.26,0.051h35.48c4.009,0,7.26,3.25,7.26,7.26v35.378c0,4.01-3.251,7.26-7.26,7.26H7.26
				c-4.01,0-7.26-3.25-7.26-7.26V7.311C0,3.301,3.25,0.051,7.26,0.051z"/>
		</defs>
		<clipPath id="SVGID_38_">
			<use xlink:href="#SVGID_37_"  overflow="visible"/>
		</clipPath>
		<path id="path4076" clip-path="url(#SVGID_38_)" fill="none" stroke="#FFFFFF" d="M21.306,4.699l8.966,7.158"/>
	</g>
	<g>
		<defs>
			<path id="SVGID_39_" d="M7.26,0.051h35.48c4.009,0,7.26,3.25,7.26,7.26v35.378c0,4.01-3.251,7.26-7.26,7.26H7.26
				c-4.01,0-7.26-3.25-7.26-7.26V7.311C0,3.301,3.25,0.051,7.26,0.051z"/>
		</defs>
		<clipPath id="SVGID_40_">
			<use xlink:href="#SVGID_39_"  overflow="visible"/>
		</clipPath>
		<path id="path4078" clip-path="url(#SVGID_40_)" fill="none" stroke="#FFFFFF" d="M37.863,19.448L27.958,9.109"/>
	</g>
	<g>
		<defs>
			<path id="SVGID_41_" d="M7.26,0.051h35.48c4.009,0,7.26,3.25,7.26,7.26v35.378c0,4.01-3.251,7.26-7.26,7.26H7.26
				c-4.01,0-7.26-3.25-7.26-7.26V7.311C0,3.301,3.25,0.051,7.26,0.051z"/>
		</defs>
		<clipPath id="SVGID_42_">
			<use xlink:href="#SVGID_41_"  overflow="visible"/>
		</clipPath>
		<path id="path4109" clip-path="url(#SVGID_42_)" fill="none" stroke="#FFFFFF" d="M12.558,3.615l8.82,1.229"/>
	</g>
	<g>
		<defs>
			<path id="SVGID_43_" d="M7.26,0.051h35.48c4.009,0,7.26,3.25,7.26,7.26v35.378c0,4.01-3.251,7.26-7.26,7.26H7.26
				c-4.01,0-7.26-3.25-7.26-7.26V7.311C0,3.301,3.25,0.051,7.26,0.051z"/>
		</defs>
		<clipPath id="SVGID_44_">
			<use xlink:href="#SVGID_43_"  overflow="visible"/>
		</clipPath>
		<path id="path4111" clip-path="url(#SVGID_44_)" fill="none" stroke="#FFFFFF" d="M8.364,25.015L26.006,8.603"/>
	</g>
	<g>
		<defs>
			<path id="SVGID_45_" d="M7.26,0.051h35.48c4.009,0,7.26,3.25,7.26,7.26v35.378c0,4.01-3.251,7.26-7.26,7.26H7.26
				c-4.01,0-7.26-3.25-7.26-7.26V7.311C0,3.301,3.25,0.051,7.26,0.051z"/>
		</defs>
		<clipPath id="SVGID_46_">
			<use xlink:href="#SVGID_45_"  overflow="visible"/>
		</clipPath>
		<path id="path4135" sodipodi:nodetypes="cc" clip-path="url(#SVGID_46_)" fill="none" stroke="#FFFFFF" d="M8.437,24.726
			L2.219,42.729"/>
	</g>
	<g>
		<defs>
			<path id="SVGID_47_" d="M7.26,0.051h35.48c4.009,0,7.26,3.25,7.26,7.26v35.378c0,4.01-3.251,7.26-7.26,7.26H7.26
				c-4.01,0-7.26-3.25-7.26-7.26V7.311C0,3.301,3.25,0.051,7.26,0.051z"/>
		</defs>
		<clipPath id="SVGID_48_">
			<use xlink:href="#SVGID_47_"  overflow="visible"/>
		</clipPath>
		<path id="path4137" clip-path="url(#SVGID_48_)" fill="none" stroke="#FFFFFF" d="M37.863,19.52l-5.784,2.748"/>
	</g>
	<g>
		<defs>
			<path id="SVGID_49_" d="M7.26,0.051h35.48c4.009,0,7.26,3.25,7.26,7.26v35.378c0,4.01-3.251,7.26-7.26,7.26H7.26
				c-4.01,0-7.26-3.25-7.26-7.26V7.311C0,3.301,3.25,0.051,7.26,0.051z"/>
		</defs>
		<clipPath id="SVGID_50_">
			<use xlink:href="#SVGID_49_"  overflow="visible"/>
		</clipPath>
		<path id="path4139" sodipodi:nodetypes="cc" clip-path="url(#SVGID_50_)" fill="none" stroke="#FFFFFF" d="M31.934,22.702
			L8.364,25.015L-3.132,32.68"/>
	</g>
	<g>
		<defs>
			<path id="SVGID_51_" d="M7.26,0.051h35.48c4.009,0,7.26,3.25,7.26,7.26v35.378c0,4.01-3.251,7.26-7.26,7.26H7.26
				c-4.01,0-7.26-3.25-7.26-7.26V7.311C0,3.301,3.25,0.051,7.26,0.051z"/>
		</defs>
		<clipPath id="SVGID_52_">
			<use xlink:href="#SVGID_51_"  overflow="visible"/>
		</clipPath>
		<path id="path4141" clip-path="url(#SVGID_52_)" fill="none" stroke="#FFFFFF" d="M8.22,25.015L-4.361,13.302"/>
	</g>
	<g>
		<defs>
			<path id="SVGID_53_" d="M7.26,0.051h35.48c4.009,0,7.26,3.25,7.26,7.26v35.378c0,4.01-3.251,7.26-7.26,7.26H7.26
				c-4.01,0-7.26-3.25-7.26-7.26V7.311C0,3.301,3.25,0.051,7.26,0.051z"/>
		</defs>
		<clipPath id="SVGID_54_">
			<use xlink:href="#SVGID_53_"  overflow="visible"/>
		</clipPath>
		<path id="path4143" clip-path="url(#SVGID_54_)" fill="none" stroke="#FFFFFF" d="M12.63,3.615l-17.642,9.326"/>
	</g>
	<g>
		<defs>
			<path id="SVGID_55_" d="M7.26,0.051h35.48c4.009,0,7.26,3.25,7.26,7.26v35.378c0,4.01-3.251,7.26-7.26,7.26H7.26
				c-4.01,0-7.26-3.25-7.26-7.26V7.311C0,3.301,3.25,0.051,7.26,0.051z"/>
		</defs>
		<clipPath id="SVGID_56_">
			<use xlink:href="#SVGID_55_"  overflow="visible"/>
		</clipPath>
		<path id="path4145" clip-path="url(#SVGID_56_)" fill="none" stroke="#FFFFFF" d="M21.306,4.771l2.097,5.929"/>
	</g>
	<g>
		<defs>
			<path id="SVGID_57_" d="M7.26,0.051h35.48c4.009,0,7.26,3.25,7.26,7.26v35.378c0,4.01-3.251,7.26-7.26,7.26H7.26
				c-4.01,0-7.26-3.25-7.26-7.26V7.311C0,3.301,3.25,0.051,7.26,0.051z"/>
		</defs>
		<clipPath id="SVGID_58_">
			<use xlink:href="#SVGID_57_"  overflow="visible"/>
		</clipPath>
		<path id="path4147" clip-path="url(#SVGID_58_)" fill="none" stroke="#FFFFFF" d="M12.558,3.687l8.965,6.001"/>
	</g>
	<g>
		<defs>
			<path id="SVGID_59_" d="M7.26,0.051h35.48c4.009,0,7.26,3.25,7.26,7.26v35.378c0,4.01-3.251,7.26-7.26,7.26H7.26
				c-4.01,0-7.26-3.25-7.26-7.26V7.311C0,3.301,3.25,0.051,7.26,0.051z"/>
		</defs>
		<clipPath id="SVGID_60_">
			<use xlink:href="#SVGID_59_"  overflow="visible"/>
		</clipPath>
		<path id="path4149" clip-path="url(#SVGID_60_)" fill="none" stroke="#FFFFFF" d="M37.791,19.375l14.171,2.17"/>
	</g>
	<g>
		<defs>
			<path id="SVGID_61_" d="M7.26,0.051h35.48c4.009,0,7.26,3.25,7.26,7.26v35.378c0,4.01-3.251,7.26-7.26,7.26H7.26
				c-4.01,0-7.26-3.25-7.26-7.26V7.311C0,3.301,3.25,0.051,7.26,0.051z"/>
		</defs>
		<clipPath id="SVGID_62_">
			<use xlink:href="#SVGID_61_"  overflow="visible"/>
		</clipPath>
		<path id="path4151" clip-path="url(#SVGID_62_)" fill="none" stroke="#FFFFFF" d="M46.467,5.205l4.627,5.495"/>
	</g>
	<g>
		<defs>
			<path id="SVGID_63_" d="M7.26,0.051h35.48c4.009,0,7.26,3.25,7.26,7.26v35.378c0,4.01-3.251,7.26-7.26,7.26H7.26
				c-4.01,0-7.26-3.25-7.26-7.26V7.311C0,3.301,3.25,0.051,7.26,0.051z"/>
		</defs>
		<clipPath id="SVGID_64_">
			<use xlink:href="#SVGID_63_"  overflow="visible"/>
		</clipPath>
		<path id="path4153" clip-path="url(#SVGID_64_)" fill="none" stroke="#FFFFFF" d="M43.937,3.108l2.53,2.097"/>
	</g>
	<g>
		<defs>
			<path id="SVGID_65_" d="M7.26,0.051h35.48c4.009,0,7.26,3.25,7.26,7.26v35.378c0,4.01-3.251,7.26-7.26,7.26H7.26
				c-4.01,0-7.26-3.25-7.26-7.26V7.311C0,3.301,3.25,0.051,7.26,0.051z"/>
		</defs>
		<clipPath id="SVGID_66_">
			<use xlink:href="#SVGID_65_"  overflow="visible"/>
		</clipPath>
		<path id="path4155" clip-path="url(#SVGID_66_)" fill="none" stroke="#FFFFFF" d="M37.573,2.313L31.5,10.989"/>
	</g>
	<g>
		<defs>
			<path id="SVGID_67_" d="M7.26,0.051h35.48c4.009,0,7.26,3.25,7.26,7.26v35.378c0,4.01-3.251,7.26-7.26,7.26H7.26
				c-4.01,0-7.26-3.25-7.26-7.26V7.311C0,3.301,3.25,0.051,7.26,0.051z"/>
		</defs>
		<clipPath id="SVGID_68_">
			<use xlink:href="#SVGID_67_"  overflow="visible"/>
		</clipPath>
		<path id="path4157" clip-path="url(#SVGID_68_)" fill="none" stroke="#FFFFFF" d="M43.937,3.108l-12.364,8.388"/>
	</g>
	<g>
		<defs>
			<path id="SVGID_69_" d="M7.26,0.051h35.48c4.009,0,7.26,3.25,7.26,7.26v35.378c0,4.01-3.251,7.26-7.26,7.26H7.26
				c-4.01,0-7.26-3.25-7.26-7.26V7.311C0,3.301,3.25,0.051,7.26,0.051z"/>
		</defs>
		<clipPath id="SVGID_70_">
			<use xlink:href="#SVGID_69_"  overflow="visible"/>
		</clipPath>
		<path id="path4159" clip-path="url(#SVGID_70_)" fill="none" stroke="#FFFFFF" d="M12.558,3.542l-0.868-5.567"/>
	</g>
	<g>
		<defs>
			<path id="SVGID_71_" d="M7.26,0.051h35.48c4.009,0,7.26,3.25,7.26,7.26v35.378c0,4.01-3.251,7.26-7.26,7.26H7.26
				c-4.01,0-7.26-3.25-7.26-7.26V7.311C0,3.301,3.25,0.051,7.26,0.051z"/>
		</defs>
		<clipPath id="SVGID_72_">
			<use xlink:href="#SVGID_71_"  overflow="visible"/>
		</clipPath>
		<path id="path4161" clip-path="url(#SVGID_72_)" fill="none" stroke="#FFFFFF" d="M37.646,2.313l6.363,0.867"/>
	</g>
	<g>
		<defs>
			<path id="SVGID_73_" d="M7.26,0.051h35.48c4.009,0,7.26,3.25,7.26,7.26v35.378c0,4.01-3.251,7.26-7.26,7.26H7.26
				c-4.01,0-7.26-3.25-7.26-7.26V7.311C0,3.301,3.25,0.051,7.26,0.051z"/>
		</defs>
		<clipPath id="SVGID_74_">
			<use xlink:href="#SVGID_73_"  overflow="visible"/>
		</clipPath>
		<path id="path4163" clip-path="url(#SVGID_74_)" fill="none" stroke="#FFFFFF" d="M12.485,3.615l2.169-6.146"/>
	</g>
	<g>
		<defs>
			<path id="SVGID_75_" d="M7.26,0.051h35.48c4.009,0,7.26,3.25,7.26,7.26v35.378c0,4.01-3.251,7.26-7.26,7.26H7.26
				c-4.01,0-7.26-3.25-7.26-7.26V7.311C0,3.301,3.25,0.051,7.26,0.051z"/>
		</defs>
		<clipPath id="SVGID_76_">
			<use xlink:href="#SVGID_75_"  overflow="visible"/>
		</clipPath>
		<path id="path4165" clip-path="url(#SVGID_76_)" fill="none" stroke="#FFFFFF" d="M21.378,4.916l-5.566-6.435"/>
	</g>
	<g>
		<defs>
			<path id="SVGID_77_" d="M7.26,0.051h35.48c4.009,0,7.26,3.25,7.26,7.26v35.378c0,4.01-3.251,7.26-7.26,7.26H7.26
				c-4.01,0-7.26-3.25-7.26-7.26V7.311C0,3.301,3.25,0.051,7.26,0.051z"/>
		</defs>
		<clipPath id="SVGID_78_">
			<use xlink:href="#SVGID_77_"  overflow="visible"/>
		</clipPath>
		<path id="path4167" clip-path="url(#SVGID_78_)" fill="none" stroke="#FFFFFF" d="M37.573,2.241L26.15,9.253"/>
	</g>
	<g>
		<defs>
			<path id="SVGID_79_" d="M7.26,0.051h35.48c4.009,0,7.26,3.25,7.26,7.26v35.378c0,4.01-3.251,7.26-7.26,7.26H7.26
				c-4.01,0-7.26-3.25-7.26-7.26V7.311C0,3.301,3.25,0.051,7.26,0.051z"/>
		</defs>
		<clipPath id="SVGID_80_">
			<use xlink:href="#SVGID_79_"  overflow="visible"/>
		</clipPath>
		<path id="path4169" clip-path="url(#SVGID_80_)" fill="none" stroke="#FFFFFF" d="M46.467,4.988l2.024-3.398"/>
	</g>
	<g>
		<defs>
			<path id="SVGID_81_" d="M7.26,0.051h35.48c4.009,0,7.26,3.25,7.26,7.26v35.378c0,4.01-3.251,7.26-7.26,7.26H7.26
				c-4.01,0-7.26-3.25-7.26-7.26V7.311C0,3.301,3.25,0.051,7.26,0.051z"/>
		</defs>
		<clipPath id="SVGID_82_">
			<use xlink:href="#SVGID_81_"  overflow="visible"/>
		</clipPath>
		<path id="path4173" clip-path="url(#SVGID_82_)" fill="none" stroke="#FFFFFF" d="M21.233,4.771l5.784-5.856"/>
	</g>
	<g>
		<defs>
			<path id="SVGID_83_" d="M7.26,0.051h35.48c4.009,0,7.26,3.25,7.26,7.26v35.378c0,4.01-3.251,7.26-7.26,7.26H7.26
				c-4.01,0-7.26-3.25-7.26-7.26V7.311C0,3.301,3.25,0.051,7.26,0.051z"/>
		</defs>
		<clipPath id="SVGID_84_">
			<use xlink:href="#SVGID_83_"  overflow="visible"/>
		</clipPath>
		<path id="path4175" clip-path="url(#SVGID_84_)" fill="none" stroke="#FFFFFF" d="M37.573,2.241l0.94-3.326"/>
	</g>
	<g>
		<defs>
			<path id="SVGID_85_" d="M7.26,0.051h35.48c4.009,0,7.26,3.25,7.26,7.26v35.378c0,4.01-3.251,7.26-7.26,7.26H7.26
				c-4.01,0-7.26-3.25-7.26-7.26V7.311C0,3.301,3.25,0.051,7.26,0.051z"/>
		</defs>
		<clipPath id="SVGID_86_">
			<use xlink:href="#SVGID_85_"  overflow="visible"/>
		</clipPath>
		<path id="path4177" clip-path="url(#SVGID_86_)" fill="none" stroke="#FFFFFF" d="M46.467,5.132l3.977-0.578"/>
	</g>
	<g>
		<defs>
			<path id="SVGID_87_" d="M7.26,0.051h35.48c4.009,0,7.26,3.25,7.26,7.26v35.378c0,4.01-3.251,7.26-7.26,7.26H7.26
				c-4.01,0-7.26-3.25-7.26-7.26V7.311C0,3.301,3.25,0.051,7.26,0.051z"/>
		</defs>
		<clipPath id="SVGID_88_">
			<use xlink:href="#SVGID_87_"  overflow="visible"/>
		</clipPath>
		<path id="path4179" clip-path="url(#SVGID_88_)" fill="none" stroke="#FFFFFF" d="M21.306,4.699l3.832-6.724"/>
	</g>
	<g>
		<defs>
			<path id="SVGID_89_" d="M7.26,0.051h35.48c4.009,0,7.26,3.25,7.26,7.26v35.378c0,4.01-3.251,7.26-7.26,7.26H7.26
				c-4.01,0-7.26-3.25-7.26-7.26V7.311C0,3.301,3.25,0.051,7.26,0.051z"/>
		</defs>
		<clipPath id="SVGID_90_">
			<use xlink:href="#SVGID_89_"  overflow="visible"/>
		</clipPath>
		<path id="path4181" clip-path="url(#SVGID_90_)" fill="none" stroke="#FFFFFF" d="M37.573,2.313l6.436-2.893"/>
	</g>
	<g>
		<defs>
			<path id="SVGID_91_" d="M7.26,0.051h35.48c4.009,0,7.26,3.25,7.26,7.26v35.378c0,4.01-3.251,7.26-7.26,7.26H7.26
				c-4.01,0-7.26-3.25-7.26-7.26V7.311C0,3.301,3.25,0.051,7.26,0.051z"/>
		</defs>
		<clipPath id="SVGID_92_">
			<use xlink:href="#SVGID_91_"  overflow="visible"/>
		</clipPath>
		<path id="path4183" clip-path="url(#SVGID_92_)" fill="none" stroke="#FFFFFF" d="M21.233,4.771l-3.108-7.085"/>
	</g>
	<g>
		<defs>
			<path id="SVGID_93_" d="M7.26,0.051h35.48c4.009,0,7.26,3.25,7.26,7.26v35.378c0,4.01-3.251,7.26-7.26,7.26H7.26
				c-4.01,0-7.26-3.25-7.26-7.26V7.311C0,3.301,3.25,0.051,7.26,0.051z"/>
		</defs>
		<clipPath id="SVGID_94_">
			<use xlink:href="#SVGID_93_"  overflow="visible"/>
		</clipPath>
		<path id="path4185" clip-path="url(#SVGID_94_)" fill="none" stroke="#FFFFFF" d="M44.009,3.108l-8.821-5.277"/>
	</g>
	<g>
		<defs>
			<path id="SVGID_95_" d="M7.26,0.051h35.48c4.009,0,7.26,3.25,7.26,7.26v35.378c0,4.01-3.251,7.26-7.26,7.26H7.26
				c-4.01,0-7.26-3.25-7.26-7.26V7.311C0,3.301,3.25,0.051,7.26,0.051z"/>
		</defs>
		<clipPath id="SVGID_96_">
			<use xlink:href="#SVGID_95_"  overflow="visible"/>
		</clipPath>
		<path id="path4187" clip-path="url(#SVGID_96_)" fill="none" stroke="#FFFFFF" d="M21.233,4.843l9.11-7.157"/>
	</g>
	<g>
		<defs>
			<path id="SVGID_97_" d="M7.26,0.051h35.48c4.009,0,7.26,3.25,7.26,7.26v35.378c0,4.01-3.251,7.26-7.26,7.26H7.26
				c-4.01,0-7.26-3.25-7.26-7.26V7.311C0,3.301,3.25,0.051,7.26,0.051z"/>
		</defs>
		<clipPath id="SVGID_98_">
			<use xlink:href="#SVGID_97_"  overflow="visible"/>
		</clipPath>
		<path id="path4189" clip-path="url(#SVGID_98_)" fill="none" stroke="#FFFFFF" d="M24.849,8.314l4.266-9.833"/>
	</g>
	<g>
		<defs>
			<path id="SVGID_99_" d="M7.26,0.051h35.48c4.009,0,7.26,3.25,7.26,7.26v35.378c0,4.01-3.251,7.26-7.26,7.26H7.26
				c-4.01,0-7.26-3.25-7.26-7.26V7.311C0,3.301,3.25,0.051,7.26,0.051z"/>
		</defs>
		<clipPath id="SVGID_100_">
			<use xlink:href="#SVGID_99_"  overflow="visible"/>
		</clipPath>
		<path id="path4191" clip-path="url(#SVGID_100_)" fill="none" stroke="#FFFFFF" d="M46.467,5.132l5.134,1.302"/>
	</g>
	<g>
		<defs>
			<path id="SVGID_101_" d="M7.26,0.051h35.48c4.009,0,7.26,3.25,7.26,7.26v35.378c0,4.01-3.251,7.26-7.26,7.26H7.26
				c-4.01,0-7.26-3.25-7.26-7.26V7.311C0,3.301,3.25,0.051,7.26,0.051z"/>
		</defs>
		<clipPath id="SVGID_102_">
			<use xlink:href="#SVGID_101_"  overflow="visible"/>
		</clipPath>
		<path id="path4193" clip-path="url(#SVGID_102_)" fill="none" stroke="#FFFFFF" d="M44.081,3.18l-4.049-5.277"/>
	</g>
	<g>
		<defs>
			<path id="SVGID_103_" d="M7.26,0.051h35.48c4.009,0,7.26,3.25,7.26,7.26v35.378c0,4.01-3.251,7.26-7.26,7.26H7.26
				c-4.01,0-7.26-3.25-7.26-7.26V7.311C0,3.301,3.25,0.051,7.26,0.051z"/>
		</defs>
		<clipPath id="SVGID_104_">
			<use xlink:href="#SVGID_103_"  overflow="visible"/>
		</clipPath>
		<path id="path4195" clip-path="url(#SVGID_104_)" fill="none" stroke="#FFFFFF" d="M46.611,5.205l-6.507-7.953"/>
	</g>
	<g>
		<defs>
			<path id="SVGID_105_" d="M7.26,0.051h35.48c4.009,0,7.26,3.25,7.26,7.26v35.378c0,4.01-3.251,7.26-7.26,7.26H7.26
				c-4.01,0-7.26-3.25-7.26-7.26V7.311C0,3.301,3.25,0.051,7.26,0.051z"/>
		</defs>
		<clipPath id="SVGID_106_">
			<use xlink:href="#SVGID_105_"  overflow="visible"/>
		</clipPath>
		<path id="path4197" clip-path="url(#SVGID_106_)" fill="none" stroke="#FFFFFF" d="M43.937,3.18l6.868,0.072"/>
	</g>
	<g>
		<defs>
			<path id="SVGID_107_" d="M7.26,0.051h35.48c4.009,0,7.26,3.25,7.26,7.26v35.378c0,4.01-3.251,7.26-7.26,7.26H7.26
				c-4.01,0-7.26-3.25-7.26-7.26V7.311C0,3.301,3.25,0.051,7.26,0.051z"/>
		</defs>
		<clipPath id="SVGID_108_">
			<use xlink:href="#SVGID_107_"  overflow="visible"/>
		</clipPath>
		<path id="path4199" clip-path="url(#SVGID_108_)" fill="none" stroke="#FFFFFF" d="M37.501,2.385l-7.592-3.326"/>
	</g>
	<g>
		<defs>
			<path id="SVGID_109_" d="M7.26,0.051h35.48c4.009,0,7.26,3.25,7.26,7.26v35.378c0,4.01-3.251,7.26-7.26,7.26H7.26
				c-4.01,0-7.26-3.25-7.26-7.26V7.311C0,3.301,3.25,0.051,7.26,0.051z"/>
		</defs>
		<clipPath id="SVGID_110_">
			<use xlink:href="#SVGID_109_"  overflow="visible"/>
		</clipPath>
		<path id="path4201" clip-path="url(#SVGID_110_)" fill="none" stroke="#FFFFFF" d="M43.864,3.18l4.338-3.76"/>
	</g>
	<g>
		<defs>
			<path id="SVGID_111_" d="M7.26,0.051h35.48c4.009,0,7.26,3.25,7.26,7.26v35.378c0,4.01-3.251,7.26-7.26,7.26H7.26
				c-4.01,0-7.26-3.25-7.26-7.26V7.311C0,3.301,3.25,0.051,7.26,0.051z"/>
		</defs>
		<clipPath id="SVGID_112_">
			<use xlink:href="#SVGID_111_"  overflow="visible"/>
		</clipPath>
		<path id="path4203" clip-path="url(#SVGID_112_)" fill="none" stroke="#FFFFFF" d="M37.501,2.385L34.32-1.664"/>
	</g>
</g>
<g id="layer3" inkscape:label="P" inkscape:groupmode="layer">
	<path id="rect2887" fill="#FFFFFF" d="M15.542,7.516v35.58h4.194V32.258h8.793c3.06,0,5.517-2.457,5.517-5.516V13.039
		c0-3.059-2.457-5.522-5.517-5.522H15.542z M19.736,11.552h1.228h3.814h3.853c0.68,0,1.228,0.547,1.228,1.228v14.064
		c0,0.68-0.548,1.227-1.228,1.227h-3.853h-3.814h-1.228v-1.227V12.78V11.552z"/>
</g>
<g id="layer5" inkscape:label="Play Stop" inkscape:groupmode="layer">
	<path id="path3918" fill="#FFFFFF" d="M31.39,37.16c-1.817,0-3.29,1.475-3.29,3.291s1.473,3.289,3.29,3.289
		c1.816,0,3.289-1.473,3.289-3.289S33.206,37.16,31.39,37.16z M30.415,38.971l2.53,1.518l-2.53,1.443V38.971z"/>
	<path id="path3918-1" fill="#FFFFFF" d="M38.62,37.16c-1.816,0-3.29,1.475-3.29,3.291s1.474,3.289,3.29,3.289
		c1.817,0,3.29-1.473,3.29-3.289S40.438,37.16,38.62,37.16z M37.5,39.33h2.315v2.316H37.5V39.33z"/>
</g>
</svg>
