<?xml version="1.0" encoding="utf-8"?>
<!-- Generator: Adobe Illustrator 16.0.4, SVG Export Plug-In . SVG Version: 6.00 Build 0)  -->
<!DOCTYPE svg PUBLIC "-//W3C//DTD SVG 1.1//EN" "http://www.w3.org/Graphics/SVG/1.1/DTD/svg11.dtd">
<svg version="1.1" id="Layer_1" xmlns="http://www.w3.org/2000/svg" xmlns:xlink="http://www.w3.org/1999/xlink" x="0px" y="0px"
	 width="50px" height="50px" viewBox="0 0 50 50" enable-background="new 0 0 50 50" xml:space="preserve">
<g id="g3049" transform="translate(-487.38703,-125.31041)">
	<g id="g3032">
		
			<path id="path3010" sodipodi:nodetypes="sccscsscccscccscscccccccccsccccccsccccccccccccccscccccsccssssccccccccsccccccccccccccccccccssscccccccssscs" inkscape:connector-curvature="0" fill="#FFFFFF" d="
			M513.295,128.886c-0.078,0-0.164,0.009-0.244,0.012c-0.053,0.002-0.105,0.009-0.158,0.012c-0.058,0.004-0.113,0.006-0.171,0.012
			c-0.031,0.004-0.066,0.008-0.098,0.012c-0.425,0.041-0.839,0.108-1.209,0.208c-1.183,0.319-3.303,1.114-11.548,4.321
			c-11.993,4.666-11.756,4.567-12.207,5.066l-0.269,0.293v2.795c0,0.006,0,0.006,0,0.012c0,0.629-0.003,1.116,0,1.489v1.306
			l0.195,0.232c0.248,0.295,0.702,0.597,1.501,1.025c0.342,0.184,0.563,0.341,0.5,0.342c-0.246,0.005-1.652,0.749-1.917,1.013
			l-0.281,0.281v2.808c0,0.07,0,0.097,0,0.171c0,0.977,0.001,1.57,0.012,1.965v0.708l0.024,0.024v0.024l0.085,0.073v0.013
			c0.012,0.02,0.023,0.042,0.037,0.061c0.178,0.25,0.665,0.597,1.306,0.94l0.439,0.231l-0.72,0.354
			c-0.248,0.123-0.468,0.255-0.647,0.378c-0.011,0.008-0.026,0.018-0.037,0.024c-0.026,0.019-0.05,0.044-0.073,0.062
			c-0.004,0.004-0.008,0.009-0.012,0.012c-0.007,0.006-0.018,0.007-0.024,0.013c-0.004,0.004-0.008,0.009-0.012,0.012
			c-0.056,0.046-0.114,0.086-0.146,0.122l-0.232,0.269v2.82v0.183v2.637l0.208,0.195c0.05,0.075,0.116,0.131,0.195,0.195
			c0.004,0.004,0.007,0.009,0.012,0.013c0.01,0.01,0.026,0.015,0.036,0.024c0.013,0.01,0.024,0.015,0.037,0.024
			c0.014,0.012,0.022,0.024,0.037,0.036c0.034,0.026,0.059,0.057,0.098,0.086c0.685,0.583,1.92,1.119,11.633,5.163
			c0.921,0.384,1.651,0.689,2.515,1.05c0.005,0.004,0.047,0.023,0.049,0.024c0.04,0.038,0.12,0.062,0.171,0.062
			c2.735,1.144,5.019,2.113,5.627,2.38c0.028,0.029,0.074,0.049,0.122,0.049c0.01,0.005,0.077,0.033,0.085,0.037
			c0.811,0.362,1.341,0.589,1.746,0.744c0.02,0.008,0.062,0.022,0.073,0.024c0.361,0.136,0.623,0.222,0.903,0.281
			c1.502,0.321,2.718,0.053,5.14-1.123c1.643-0.798,3.636-1.683,8.374-3.724c10.371-4.467,11.259-4.874,12.268-5.64
			c0.289-0.219,0.446-0.322,0.537-0.598c0.005-0.009,0.009-0.034,0.013-0.049c0.037-0.131,0.058-0.293,0.073-0.525
			c0.001-0.003,0-0.009,0-0.012c0.011-0.142,0.021-0.304,0.024-0.501c0-0.003,0-0.009,0-0.012s0-0.009,0-0.013
			c0.004-0.188-0.001-0.53,0-0.781c0-0.056,0.012-0.111,0.012-0.171c0-0.045,0-0.086,0-0.134c0.006-0.447,0.005-0.834,0-1.282
			v-2.136l-0.195-0.232c-0.219-0.26-0.643-0.514-1.27-0.769c-0.239-0.098-0.439-0.196-0.439-0.22s0.185-0.142,0.403-0.257
			c0.555-0.29,1.114-0.734,1.318-1.037c0.021-0.031,0.045-0.056,0.061-0.086l0.073-0.073v-0.012v-0.171
			c0.014-0.092,0.019-0.257,0.024-0.428c0.005-0.078,0.01-0.186,0.013-0.28c0.001-0.072-0.001-0.122,0-0.208
			c0.001-0.036,0-0.108,0-0.146c0.002-0.341,0.012-0.83,0.012-1.392v-2.429v-0.488l-0.073-0.073
			c-0.011-0.046-0.033-0.076-0.049-0.098c-0.21-0.301-0.883-0.683-2.002-1.111c-0.175-0.067-0.155-0.083,0.366-0.366
			c0.651-0.353,1.019-0.61,1.318-0.903c0.062-0.052,0.114-0.092,0.159-0.146l0.28-0.317v-2.649v-0.11v-2.771l-0.231-0.244
			c-0.318-0.362-0.747-0.587-2.649-1.318c-0.928-0.356-3.91-1.521-6.628-2.588c-11.637-4.566-12.244-4.788-13.257-4.993
			c-0.364-0.074-0.807-0.116-1.27-0.11C513.327,128.886,513.311,128.886,513.295,128.886L513.295,128.886z"/>
		<g id="g3065" transform="matrix(0.19415966,0,0,0.19415966,487.4017,131.92824)">
			
				<path id="path3063" sodipodi:nodetypes="sssscccsscssscsssscccssssssscccssssssscsscsssssscscssssssssssssssssscscsscssscccscs" inkscape:connector-curvature="0" fill="#E98F71" d="
				M121.24,204.363c-3.101-0.664-5.714-1.665-14.063-5.402c-3.222-1.438-23.084-9.793-44.138-18.56
				c-55.347-23.046-57.296-23.926-61.03-27.543l-2.057-1.992v-14.516v-14.516l1.217-1.388c0.729-0.83,2.691-2.117,4.889-3.209
				l3.669-1.821l-2.251-1.207c-3.302-1.77-5.802-3.581-6.717-4.869c-0.78-1.096-0.807-1.599-0.807-15.61V79.254l1.433-1.433
				c1.366-1.363,8.631-5.206,9.896-5.233c0.322-0.005-0.86-0.787-2.623-1.735c-4.114-2.208-6.405-3.792-7.685-5.311l-1.021-1.215
				V49.904v-14.42l1.373-1.521c2.321-2.57,1.114-2.067,62.886-26.096c42.461-16.52,53.367-20.599,59.461-22.239
				c5.075-1.366,11.933-1.685,16.46-0.767c5.216,1.056,8.344,2.236,68.278,25.757c13.998,5.492,29.358,11.49,34.136,13.326
				c9.793,3.767,12.046,4.879,13.686,6.745l1.142,1.303v14.244v14.244l-1.438,1.594c-1.695,1.879-3.667,3.282-7.59,5.409
				c-2.686,1.459-2.796,1.569-1.891,1.916c5.759,2.2,9.26,4.119,10.346,5.668c0.483,0.684,0.573,3.149,0.573,14.933
				c0,14.035-0.005,14.121-0.885,15.434c-1.051,1.554-3.968,3.838-6.825,5.336c-1.127,0.594-2.052,1.177-2.052,1.298
				s1.011,0.634,2.243,1.137c3.234,1.313,5.412,2.641,6.539,3.978l0.981,1.167v14.088c0,16.02,0.146,15.265-3.39,17.946
				c-5.201,3.938-9.742,6.026-63.158,29.031c-24.404,10.512-34.665,15.079-43.124,19.183
				C135.228,204.659,128.979,206.017,121.24,204.363z M142.712,61.988c4.854-7.122,8.777-12.987,8.716-13.039
				c-0.08-0.07-56.068,8.44-58.5,8.892c-0.556,0.103,39.536,16.993,40.496,17.061C133.676,74.919,137.858,69.107,142.712,61.988z
				 M90.491,46.873c8.09-1.763,13.598-4.343,16.045-7.519c1.179-1.527,1.295-1.901,1.144-3.702
				c-0.206-2.507-1.212-3.956-4.041-5.834c-4.059-2.696-9.441-4.406-17.307-5.505c-5.696-0.795-18.351-0.576-23.634,0.407
				c-12.036,2.243-19.334,7.054-18.383,12.119c0.85,4.537,8.84,8.686,20.297,10.545C69.933,48.246,85.613,47.937,90.491,46.873
				L90.491,46.873z M137.652,24.934c1.202-2.9,2.324-5.409,2.485-5.573c0.166-0.166,4.859-0.762,10.432-1.328
				c5.568-0.563,10.266-1.144,10.432-1.29c0.166-0.146-3.174-1.554-7.424-3.128c-4.245-1.574-7.882-3.003-8.078-3.176
				c-0.201-0.179,0.573-2.522,1.821-5.507c1.192-2.857,2.138-5.228,2.097-5.274c-0.045-0.043-3.828,1.132-8.415,2.61l-8.337,2.688
				l-6.496-2.545c-3.569-1.398-7.6-2.962-8.955-3.478l-2.465-0.936l1.139,2.042c4.28,7.66,4.834,8.877,4.019,8.877
				c-0.199,0-4.429,1.464-9.403,3.252l-9.043,3.252l12.743,1.129l12.745,1.129l3.961,6.559c2.178,3.609,4.092,6.428,4.258,6.264
				C135.329,30.341,136.445,27.834,137.652,24.934z"/>
			
				<path id="path3061" sodipodi:nodetypes="sscscsscsssscsssssscsssssscsscccsscssssssssssssscsscccsscsssssssssssssssssssssssscssssssssssssscscscssssscssscscs" inkscape:connector-curvature="0" fill="#9D9E9F" d="
				M122.541,204.524c-0.714-0.161-2.261-0.578-3.438-0.925c-1.174-0.347-2.319-0.669-2.537-0.704
				c-0.221-0.035-0.842-0.312-1.378-0.604c-0.538-0.297-1.019-0.513-1.069-0.488c-0.05,0.03-1.604-0.644-3.455-1.494
				s-3.601-1.549-3.89-1.549s-0.616-0.146-0.729-0.332c-0.113-0.181-1.838-0.996-3.833-1.811c-1.994-0.82-4.504-1.881-5.578-2.369
				c-1.076-0.488-2.746-1.187-3.712-1.559c-0.966-0.367-2.714-1.107-3.88-1.64c-1.167-0.533-2.309-1.011-2.537-1.061
				c-0.229-0.05-1.298-0.488-2.371-0.971c-1.074-0.483-2.128-0.925-2.344-0.981c-0.214-0.05-1.24-0.473-2.278-0.93
				c-1.039-0.468-2.102-0.845-2.364-0.845s-0.641-0.161-0.845-0.352c-0.36-0.337-14.423-6.282-15.215-6.433
				c-0.216-0.04-0.566-0.176-0.782-0.307c-0.214-0.126-8.125-3.44-17.576-7.363c-9.453-3.923-18.067-7.529-19.143-8.012
				c-1.074-0.488-2.92-1.283-4.099-1.765c-6.825-2.812-13.721-6.292-16.304-8.234c-3.335-2.505-3.229-1.921-3.229-17.624
				c0-16.693-0.433-15.446,6.579-18.917l3.649-1.806l-2.673-1.418c-3.591-1.911-4.756-2.716-6.254-4.331l-1.273-1.368l0.086-14.526
				l0.083-14.523l1.137-1.187c1.182-1.235,5.694-3.722,8.95-4.932l1.884-0.702l-3.453-1.793c-4.361-2.263-6.971-4.144-7.949-5.724
				c-0.722-1.167-0.765-2.017-0.765-14.978c0-11.644,0.093-13.922,0.606-14.913c0.649-1.257,3.742-3.418,6.727-4.698
				c5.477-2.349,86.108-33.686,100.87-39.204c17.659-6.599,22.925-7.668,30.905-6.269c5.714,0.998,7.449,1.645,60.502,22.47
				c17.081,6.705,35.625,13.942,41.213,16.085c11.437,4.386,14.455,5.87,15.723,7.738c0.865,1.28,0.875,1.441,0.875,14.752
				c0,15.449,0.055,15.167-3.38,17.833c-1.137,0.883-3.606,2.429-5.487,3.44l-3.42,1.838l1.554,0.621
				c5.518,2.206,7.56,3.269,9.079,4.725l1.685,1.612l-0.111,14.262l-0.111,14.259l-1.564,1.72c-1.604,1.765-3.682,3.254-6.926,4.964
				l-1.846,0.971l2.661,1.066c3.682,1.484,6.609,3.36,7.293,4.683c0.885,1.705,0.85,27.507-0.04,29.358
				c-0.604,1.262-4.391,4.426-6.901,5.774c-3.4,1.821-7.987,3.963-17.287,8.073c-5.588,2.47-11.126,4.924-12.308,5.457
				c-1.177,0.533-2.671,1.207-3.32,1.494c-0.644,0.287-6.448,2.761-12.891,5.497s-12.861,5.487-14.254,6.116
				c-1.398,0.629-3.068,1.378-3.712,1.665c-0.649,0.287-3.37,1.438-6.056,2.56c-2.686,1.117-5.271,2.278-5.749,2.575
				c-0.473,0.307-1.051,0.548-1.278,0.548c-0.231,0-1.685,0.588-3.239,1.303c-1.554,0.719-3.963,1.796-5.362,2.389
				c-1.393,0.599-2.927,1.328-3.4,1.625c-0.478,0.302-1.051,0.543-1.288,0.543c-0.226,0-4.597,2.017-9.707,4.481
				c-5.11,2.465-10.889,5.005-12.841,5.638C131.695,204.81,126.293,205.364,122.541,204.524z M142.898,62.038
				c6.644-9.732,8.762-13.11,8.279-13.193c-0.548-0.098-54.851,8.093-57.992,8.747c-0.606,0.126-1.011,0.319-0.903,0.428
				c0.347,0.347,41.052,17.234,41.374,17.166C133.827,75.15,137.984,69.233,142.898,62.038z M85.967,47.789
				c8.89-1.177,15.849-3.699,19.427-7.049c3.327-3.111,3.553-5.948,0.717-9.023c-2.988-3.242-9.33-5.9-17.682-7.414
				c-5.319-0.961-19.035-0.988-24.419-0.048c-8.276,1.449-14.662,4.019-17.843,7.185c-3.516,3.501-2.537,7.723,2.545,10.975
				c3.873,2.477,12.816,5.098,19.405,5.686C72.392,48.48,81.984,48.314,85.967,47.789z M137.652,25.467
				c1.63-3.976,2.575-5.809,3.123-6.023c0.428-0.171,5.437-0.777,11.131-1.348c5.694-0.573,10.422-1.109,10.507-1.192
				c0.08-0.083-0.272-0.307-0.785-0.498c-4.693-1.738-16.18-6.043-16.236-6.083c-0.04-0.028,0.88-2.334,2.047-5.123
				c1.167-2.789,2.123-5.279,2.123-5.53c0-0.279-3.169,0.599-8.093,2.246c-4.456,1.489-8.337,2.706-8.628,2.706
				c-0.292,0-4.396-1.511-9.119-3.362c-4.723-1.846-8.681-3.264-8.794-3.151s1.024,2.46,2.527,5.216l2.736,5.007l-1.428,0.609
				c-0.785,0.332-5.085,1.916-9.554,3.516c-6.871,2.46-7.954,2.95-7.031,3.189c0.842,0.216,23.177,2.286,24.407,2.263
				c0.146-0.003,2.067,2.983,4.275,6.634c2.203,3.654,4.107,6.642,4.227,6.639C135.208,31.181,136.36,28.611,137.652,25.467z"/>
			
				<path id="path3059" sodipodi:nodetypes="cssssscsscccsscssssssssssssscsscccsscsssssssccsssscssssssssssssscscscssssscssscscs" inkscape:connector-curvature="0" fill="#7F8081" d="
				M123.207,204.574c-3.32-0.483-6.476-1.594-14.272-5.04c-7.557-3.335-16.857-7.238-58.397-24.52
				C11.915,158.95,6.614,156.561,2.623,153.397c-2.714-2.148-2.671-1.861-2.671-17.227c0-16.699-0.435-15.446,6.584-18.922
				l3.652-1.806l-3.02-1.574c-1.66-0.87-3.921-2.404-5.02-3.42l-1.999-1.836V93.946V79.282l1.137-1.187
				c1.182-1.235,5.691-3.719,8.95-4.932l1.884-0.702l-3.453-1.793c-4.361-2.263-6.971-4.144-7.949-5.724
				c-0.722-1.167-0.765-2.017-0.765-14.978c0-11.644,0.093-13.922,0.606-14.913c0.649-1.257,3.742-3.418,6.727-4.698
				c5.477-2.349,86.108-33.686,100.87-39.204c17.659-6.599,22.925-7.668,30.905-6.269c5.714,0.998,7.449,1.645,60.502,22.47
				c17.081,6.705,35.625,13.942,41.213,16.085c11.437,4.386,14.455,5.87,15.723,7.738c0.865,1.28,0.875,1.441,0.875,14.752
				c0,15.449,0.055,15.167-3.38,17.833c-1.137,0.883-3.606,2.429-5.487,3.44l-3.42,1.838l1.554,0.621
				c5.518,2.206,7.56,3.269,9.079,4.725l1.685,1.612l-0.111,14.297l-0.111,14.299l-1.901,1.931c-1.046,1.056-3.35,2.771-5.12,3.807
				l-3.214,1.886l2.61,1.046c3.631,1.459,6.564,3.345,7.243,4.657c0.473,0.915,0.573,3.496,0.573,14.707
				c0,15.512,0.151,14.762-3.521,17.664c-4.336,3.425-11.09,6.579-49.497,23.111c-34.509,14.848-44.945,19.46-54.813,24.213
				c-9.561,4.602-14.229,6.322-18.904,6.976C127.266,205.062,126.527,205.057,123.207,204.574L123.207,204.574z M142.898,62.038
				c6.644-9.732,8.762-13.11,8.279-13.193c-0.548-0.098-54.851,8.093-57.992,8.747c-0.606,0.126-1.011,0.319-0.903,0.428
				c0.347,0.347,41.052,17.234,41.374,17.166C133.827,75.15,137.984,69.233,142.898,62.038z M85.967,47.789
				c8.89-1.177,15.849-3.699,19.427-7.049c3.327-3.111,3.553-5.948,0.717-9.023c-2.988-3.242-9.33-5.9-17.682-7.414
				c-5.319-0.961-19.035-0.988-24.419-0.048c-8.276,1.449-14.662,4.019-17.843,7.185c-3.516,3.501-2.537,7.723,2.545,10.975
				c3.873,2.477,12.816,5.098,19.405,5.686C72.392,48.48,81.984,48.314,85.967,47.789z M137.652,25.467
				c1.63-3.976,2.575-5.809,3.123-6.023c0.428-0.171,5.437-0.777,11.131-1.348c5.694-0.573,10.422-1.109,10.507-1.192
				c0.08-0.083-0.272-0.307-0.785-0.498c-4.693-1.738-16.18-6.043-16.236-6.083c-0.04-0.028,0.88-2.334,2.047-5.123
				c1.167-2.789,2.123-5.279,2.123-5.53c0-0.279-3.169,0.599-8.093,2.246c-4.456,1.489-8.337,2.706-8.628,2.706
				c-0.292,0-4.396-1.511-9.119-3.362c-4.723-1.846-8.681-3.264-8.794-3.151s1.024,2.46,2.527,5.216l2.736,5.007l-1.428,0.609
				c-0.785,0.332-5.085,1.916-9.554,3.516c-6.871,2.46-7.954,2.95-7.031,3.189c0.842,0.216,23.177,2.286,24.407,2.263
				c0.146-0.003,2.067,2.983,4.275,6.634c2.203,3.654,4.107,6.642,4.227,6.639C135.208,31.181,136.36,28.611,137.652,25.467z"/>
			
				<path id="path3057" sodipodi:nodetypes="cssssscsscccsscssssssssssssscsscccsscsssssssccsssscssssssssssssscscscssssscssscscs" inkscape:connector-curvature="0" fill="#626365" d="
				M123.207,204.574c-3.32-0.483-6.476-1.594-14.272-5.04c-7.557-3.335-16.857-7.238-58.397-24.52
				C11.915,158.95,6.614,156.561,2.623,153.397c-2.714-2.148-2.671-1.861-2.671-17.227c0-16.699-0.435-15.446,6.584-18.922
				l3.652-1.806l-3.02-1.574c-1.66-0.87-3.921-2.404-5.02-3.42l-1.999-1.836V93.946V79.282l1.137-1.187
				c1.182-1.235,5.691-3.719,8.95-4.932l1.884-0.702l-3.453-1.793c-4.361-2.263-6.971-4.144-7.949-5.724
				c-0.722-1.167-0.765-2.017-0.765-14.978c0-11.644,0.093-13.922,0.606-14.913c0.649-1.257,3.742-3.418,6.727-4.698
				c5.477-2.349,86.108-33.686,100.87-39.204c17.659-6.599,22.925-7.668,30.905-6.269c5.714,0.998,7.449,1.645,60.502,22.47
				c17.081,6.705,35.625,13.942,41.213,16.085c11.437,4.386,14.455,5.87,15.723,7.738c0.865,1.28,0.875,1.441,0.875,14.752
				c0,15.449,0.055,15.167-3.38,17.833c-1.137,0.883-3.606,2.429-5.487,3.44l-3.42,1.838l1.554,0.621
				c5.518,2.206,7.56,3.269,9.079,4.725l1.685,1.612l-0.111,14.297l-0.111,14.299l-1.901,1.931c-1.046,1.056-3.35,2.771-5.12,3.807
				l-3.214,1.886l2.61,1.046c3.631,1.459,6.564,3.345,7.243,4.657c0.473,0.915,0.573,3.496,0.573,14.707
				c0,15.512,0.151,14.762-3.521,17.664c-4.336,3.425-11.09,6.579-49.497,23.111c-34.509,14.848-44.945,19.46-54.813,24.213
				c-9.561,4.602-14.229,6.322-18.904,6.976C127.266,205.062,126.527,205.057,123.207,204.574L123.207,204.574z M142.898,62.038
				c6.644-9.732,8.762-13.11,8.279-13.193c-0.548-0.098-54.851,8.093-57.992,8.747c-0.606,0.126-1.011,0.319-0.903,0.428
				c0.347,0.347,41.052,17.234,41.374,17.166C133.827,75.15,137.984,69.233,142.898,62.038z M85.967,47.789
				c8.89-1.177,15.849-3.699,19.427-7.049c3.327-3.111,3.553-5.948,0.717-9.023c-2.988-3.242-9.33-5.9-17.682-7.414
				c-5.319-0.961-19.035-0.988-24.419-0.048c-8.276,1.449-14.662,4.019-17.843,7.185c-3.516,3.501-2.537,7.723,2.545,10.975
				c3.873,2.477,12.816,5.098,19.405,5.686C72.392,48.48,81.984,48.314,85.967,47.789z M137.652,25.467
				c1.63-3.976,2.575-5.809,3.123-6.023c0.428-0.171,5.437-0.777,11.131-1.348c5.694-0.573,10.422-1.109,10.507-1.192
				c0.08-0.083-0.272-0.307-0.785-0.498c-4.693-1.738-16.18-6.043-16.236-6.083c-0.04-0.028,0.88-2.334,2.047-5.123
				c1.167-2.789,2.123-5.279,2.123-5.53c0-0.279-3.169,0.599-8.093,2.246c-4.456,1.489-8.337,2.706-8.628,2.706
				c-0.292,0-4.396-1.511-9.119-3.362c-4.723-1.846-8.681-3.264-8.794-3.151s1.024,2.46,2.527,5.216l2.736,5.007l-1.428,0.609
				c-0.785,0.332-5.085,1.916-9.554,3.516c-6.871,2.46-7.954,2.95-7.031,3.189c0.842,0.216,23.177,2.286,24.407,2.263
				c0.146-0.003,2.067,2.983,4.275,6.634c2.203,3.654,4.107,6.642,4.227,6.639C135.208,31.181,136.36,28.611,137.652,25.467z"/>
			<path id="path3055" inkscape:connector-curvature="0" fill="#D6281E" d="M123.207,204.574c-3.32-0.483-6.476-1.594-14.272-5.04
				c-7.557-3.335-16.857-7.238-58.397-24.52C11.915,158.95,6.614,156.561,2.623,153.397c-2.714-2.148-2.671-1.861-2.671-17.227
				c0-16.699-0.435-15.446,6.584-18.922l3.652-1.806l-3.02-1.574c-1.66-0.87-3.921-2.404-5.02-3.42l-1.999-1.836V93.946V79.282
				l1.137-1.187c1.182-1.235,5.691-3.719,8.95-4.932l1.884-0.702l-3.453-1.793c-4.361-2.263-6.971-4.144-7.949-5.724
				c-0.722-1.167-0.765-2.017-0.765-14.978c0-11.644,0.093-13.922,0.606-14.913c0.649-1.257,3.742-3.418,6.727-4.698
				c5.477-2.349,86.108-33.686,100.87-39.204c17.659-6.599,22.925-7.668,30.905-6.269c5.714,0.998,7.449,1.645,60.502,22.47
				c17.081,6.705,35.625,13.942,41.213,16.085c11.437,4.386,14.455,5.87,15.723,7.738c0.865,1.28,0.875,1.441,0.875,14.752
				c0,15.449,0.055,15.167-3.38,17.833c-1.137,0.883-3.606,2.429-5.487,3.44l-3.42,1.838l1.554,0.621
				c5.518,2.206,7.56,3.269,9.079,4.725l1.685,1.612l-0.111,14.297l-0.111,14.299l-1.901,1.931c-1.046,1.056-3.35,2.771-5.12,3.807
				l-3.214,1.886l2.61,1.046c3.631,1.459,6.564,3.345,7.243,4.657c0.473,0.915,0.573,3.496,0.573,14.707
				c0,15.512,0.151,14.762-3.521,17.664c-4.336,3.425-11.09,6.579-49.497,23.111c-34.509,14.848-44.945,19.46-54.813,24.213
				c-9.561,4.602-14.229,6.322-18.904,6.976C127.266,205.062,126.527,205.057,123.207,204.574L123.207,204.574z M142.898,62.038
				c6.644-9.732,8.762-13.11,8.279-13.193c-0.548-0.098-54.851,8.093-57.992,8.747c-0.606,0.126-1.011,0.319-0.903,0.428
				c0.347,0.347,41.052,17.234,41.374,17.166C133.827,75.15,137.984,69.233,142.898,62.038z M85.967,47.789
				c8.89-1.177,15.849-3.699,19.427-7.049c3.327-3.111,3.553-5.948,0.717-9.023c-2.988-3.242-9.33-5.9-17.682-7.414
				c-5.319-0.961-19.035-0.988-24.419-0.048c-8.276,1.449-14.662,4.019-17.843,7.185c-3.516,3.501-2.537,7.723,2.545,10.975
				c3.873,2.477,12.816,5.098,19.405,5.686C72.392,48.48,81.984,48.314,85.967,47.789z M137.652,25.467
				c1.63-3.976,2.575-5.809,3.123-6.023c0.428-0.171,5.437-0.777,11.131-1.348c5.694-0.573,10.422-1.109,10.507-1.192
				c0.08-0.083-0.272-0.307-0.785-0.498c-4.693-1.738-16.18-6.043-16.236-6.083c-0.04-0.028,0.88-2.334,2.047-5.123
				c1.167-2.789,2.123-5.279,2.123-5.53c0-0.279-3.169,0.599-8.093,2.246c-4.456,1.489-8.337,2.706-8.628,2.706
				c-0.292,0-4.396-1.511-9.119-3.362c-4.723-1.846-8.681-3.264-8.794-3.151s1.024,2.46,2.527,5.216l2.736,5.007l-1.428,0.609
				c-0.785,0.332-5.085,1.916-9.554,3.516c-6.871,2.46-7.954,2.95-7.031,3.189c0.842,0.216,23.177,2.286,24.407,2.263
				c0.146-0.003,2.067,2.983,4.275,6.634c2.203,3.654,4.107,6.642,4.227,6.639C135.208,31.181,136.36,28.611,137.652,25.467z"/>
			<path id="path3053" inkscape:connector-curvature="0" fill="#A31910" d="M119.92,203.819c-1.587-0.412-4.31-1.383-6.056-2.148
				c-10.751-4.733-25.674-11.04-52.092-22.005c-47.39-19.681-53.425-22.337-58.017-25.546c-3.941-2.756-3.802-2.148-3.802-16.814
				v-12.73l1.75,1.866c3.413,3.652,7.615,5.563,61.148,27.784c31.297,12.992,43.044,17.956,48.924,20.662
				c9.949,4.582,17.546,5.13,26.461,1.911c1.182-0.428,5.925-2.585,10.547-4.798c9.888-4.738,18.263-8.45,44.92-19.923
				c46.55-20.028,55.186-23.976,59.677-27.301c1.348-0.996,2.797-2.379,3.224-3.073l0.77-1.262v12.7
				c0,14.833,0.146,14.224-4.134,17.478c-4.597,3.501-9.888,5.945-54.064,24.987c-32.18,13.867-42.269,18.323-50.78,22.447
				c-7.841,3.797-10.225,4.763-14.224,5.779C130.065,204.876,123.926,204.871,119.92,203.819L119.92,203.819z M121.857,162.008
				c-2.849-0.558-5.352-1.489-12.529-4.657c-7.582-3.35-17.586-7.55-57.032-23.951C12.443,116.831,7.15,114.442,3.066,111.213
				c-3.191-2.52-3.113-2.102-3.111-16.631c0-12.697,0.008-12.803,0.734-11.611c0.759,1.247,3.269,3.214,6.295,4.934
				c3.224,1.831,15.119,6.923,54.102,23.162c21.268,8.857,41.922,17.549,45.898,19.309c9.099,4.034,12.934,5.367,16.975,5.905
				c6.705,0.89,12.355-0.659,25.583-7.016c10.064-4.849,16.357-7.635,46.308-20.536c51.534-22.193,55.96-24.293,59.803-28.405
				l1.72-1.841v12.501c0,13.706,0.025,13.565-2.404,15.828c-4.426,4.114-10.095,6.815-53.652,25.546
				c-30.299,13.027-46.218,20.078-52.907,23.418c-6.79,3.395-11.558,5.271-15.338,6.041
				C129.854,162.476,124.683,162.561,121.857,162.008z M122.023,118.033c-2.97-0.649-6.959-2.117-12.977-4.793
				c-6.677-2.957-24.18-10.306-58.701-24.635C12.159,72.756,6.033,69.934,2.311,66.479L0.148,64.47L0.035,51.403l-0.113-13.067
				l2.075,2.009c3.518,3.408,8.4,5.656,48.152,22.171c38.96,16.188,51.567,21.479,58.473,24.54
				c10.049,4.459,13.354,5.435,18.399,5.45c5.701,0.013,10.658-1.539,21.15-6.634c8.817-4.278,20.853-9.604,51.197-22.661
				c40.776-17.541,48.028-20.851,53.038-24.205c1.67-1.117,3.47-2.671,4.004-3.453l0.966-1.423v12.692
				c0,14.976,0.186,14.247-4.461,17.596c-5.281,3.81-12.272,7.039-55.301,25.551c-28.74,12.363-40.957,17.775-49.462,21.909
				c-8.224,3.994-9.908,4.678-13.993,5.658C131.207,118.239,124.283,118.521,122.023,118.033z M167.242,42.598
				c-9.511-3.787-17.156-6.996-16.995-7.135s8.465-3.468,18.459-7.399c9.989-3.931,18.58-7.358,19.088-7.617
				c0.825-0.415,2.263,0.06,12.7,4.195c6.468,2.563,14.47,5.724,17.78,7.019c3.883,1.524,5.819,2.465,5.467,2.656
				c-1.72,0.946-37.023,14.687-38.628,15.036C184.79,49.423,176.748,46.383,167.242,42.598z"/>
			<path id="path3051" inkscape:connector-curvature="0" fill="#790C00" d="M189.015,34.088V20.264l0.88,0.345
				c7.102,2.774,33.674,13.356,33.764,13.449c0.111,0.108-9.3,3.883-29.469,11.817l-5.176,2.035V34.088z"/>
		</g>
	</g>
</g>
</svg>
