<?xml version="1.0" encoding="utf-8"?>
<!-- Generator: Adobe Illustrator 16.0.4, SVG Export Plug-In . SVG Version: 6.00 Build 0)  -->
<!DOCTYPE svg PUBLIC "-//W3C//DTD SVG 1.1//EN" "http://www.w3.org/Graphics/SVG/1.1/DTD/svg11.dtd">
<svg version="1.1" id="Layer_1" xmlns="http://www.w3.org/2000/svg" xmlns:xlink="http://www.w3.org/1999/xlink" x="0px" y="0px"
	 width="50px" height="50px" viewBox="0 0 50 50" enable-background="new 0 0 50 50" xml:space="preserve">
<path fill="#CD6799" d="M43.056,27.809c-1.745,0.008-3.262,0.428-4.53,1.049c-0.466-0.922-0.932-1.744-1.014-2.347
	c-0.093-0.705-0.202-1.133-0.093-1.973c0.11-0.84,0.604-2.037,0.595-2.128s-0.109-0.521-1.114-0.53
	c-1.004-0.009-1.872,0.192-1.973,0.457c-0.101,0.265-0.292,0.868-0.42,1.489c-0.173,0.913-2.009,4.174-3.06,5.882
	c-0.338-0.668-0.631-1.252-0.694-1.718c-0.092-0.704-0.201-1.132-0.092-1.972c0.109-0.841,0.604-2.038,0.595-2.129
	c-0.01-0.091-0.109-0.521-1.114-0.53c-1.006-0.009-1.872,0.192-1.974,0.457c-0.1,0.265-0.209,0.886-0.42,1.488
	c-0.209,0.604-2.649,6.047-3.288,7.454c-0.329,0.722-0.612,1.296-0.813,1.689l0,0c0,0-0.009,0.027-0.037,0.073
	c-0.173,0.338-0.274,0.521-0.274,0.521s0,0,0,0.009c-0.137,0.247-0.283,0.475-0.356,0.475c-0.055,0-0.155-0.657,0.019-1.553
	c0.365-1.89,1.232-4.831,1.224-4.932c0-0.055,0.164-0.565-0.566-0.831c-0.712-0.264-0.968,0.174-1.032,0.174
	c-0.063,0-0.109,0.155-0.109,0.155s0.794-3.306-1.516-3.306c-1.443,0-3.434,1.58-4.42,3.004c-0.621,0.338-1.945,1.061-3.361,1.837
	c-0.539,0.301-1.096,0.602-1.617,0.886c-0.037-0.037-0.073-0.082-0.109-0.119c-2.795-2.986-7.964-5.097-7.745-9.106
	c0.083-1.461,0.584-5.297,9.927-9.955c7.69-3.79,13.81-2.74,14.869-0.411c1.516,3.325-3.28,9.498-11.225,10.393
	c-3.032,0.338-4.622-0.831-5.023-1.269c-0.42-0.457-0.484-0.484-0.64-0.393c-0.255,0.137-0.091,0.548,0,0.786
	c0.237,0.621,1.214,1.717,2.868,2.256c1.461,0.475,5.014,0.74,9.316-0.922c4.813-1.864,8.575-7.042,7.471-11.38
	c-1.105-4.402-8.413-5.854-15.326-3.397c-4.11,1.461-8.566,3.763-11.772,6.758c-3.809,3.562-4.411,6.658-4.165,7.955
	c0.886,4.603,7.233,7.599,9.772,9.818c-0.128,0.072-0.247,0.137-0.347,0.191c-1.27,0.63-6.11,3.16-7.315,5.836
	c-1.37,3.032,0.219,5.206,1.269,5.497c3.26,0.905,6.612-0.721,8.411-3.406c1.799-2.686,1.58-6.174,0.749-7.772
	c-0.009-0.018-0.018-0.036-0.037-0.055c0.329-0.191,0.667-0.393,0.996-0.584c0.648-0.383,1.288-0.739,1.835-1.032
	c-0.311,0.851-0.539,1.864-0.648,3.324c-0.138,1.718,0.566,3.946,1.488,4.822c0.411,0.385,0.896,0.394,1.206,0.394
	c1.078,0,1.562-0.896,2.101-1.955c0.657-1.296,1.251-2.803,1.251-2.803s-0.74,4.072,1.27,4.072c0.73,0,1.47-0.949,1.799-1.435
	c0,0.01,0,0.01,0,0.01s0.019-0.027,0.055-0.092c0.073-0.118,0.119-0.191,0.119-0.191s0-0.009,0-0.018
	c0.292-0.512,0.95-1.672,1.928-3.599c1.259-2.484,2.474-5.589,2.474-5.589s0.109,0.758,0.484,2.018
	c0.219,0.74,0.676,1.554,1.041,2.339c-0.292,0.41-0.475,0.64-0.475,0.64s0,0,0.009,0.009c-0.236,0.31-0.493,0.647-0.776,0.977
	c-0.995,1.188-2.183,2.548-2.347,2.94c-0.191,0.466-0.146,0.804,0.219,1.079c0.266,0.2,0.74,0.228,1.224,0.2
	c0.895-0.063,1.526-0.282,1.837-0.421c0.482-0.173,1.049-0.438,1.579-0.831c0.977-0.722,1.571-1.753,1.517-3.113
	c-0.027-0.749-0.274-1.499-0.576-2.201c0.091-0.128,0.173-0.256,0.265-0.384c1.544-2.256,2.74-4.73,2.74-4.73
	s0.109,0.757,0.484,2.018c0.183,0.64,0.558,1.334,0.886,2.009c-1.452,1.179-2.347,2.549-2.668,3.443
	c-0.574,1.663-0.127,2.412,0.723,2.586c0.384,0.082,0.931-0.102,1.334-0.274c0.511-0.165,1.113-0.448,1.689-0.868
	c0.977-0.722,1.918-1.727,1.863-3.087c-0.027-0.621-0.192-1.233-0.421-1.827c1.233-0.51,2.822-0.793,4.849-0.557
	c4.349,0.512,5.206,3.225,5.042,4.365c-0.164,1.142-1.077,1.763-1.379,1.955c-0.302,0.191-0.402,0.256-0.375,0.393
	c0.036,0.201,0.183,0.191,0.439,0.155c0.355-0.063,2.282-0.923,2.364-3.022C50.133,30.712,47.576,27.781,43.056,27.809z
	 M9.519,39.113c-1.442,1.571-3.452,2.166-4.32,1.663c-0.931-0.539-0.566-2.858,1.206-4.521c1.078-1.014,2.466-1.955,3.388-2.53
	c0.21-0.128,0.52-0.311,0.895-0.539c0.064-0.036,0.1-0.055,0.1-0.055l0,0c0.073-0.045,0.146-0.091,0.219-0.137
	C11.656,35.369,11.035,37.46,9.519,39.113z M20.021,31.973c-0.502,1.224-1.553,4.356-2.192,4.183
	c-0.548-0.146-0.886-2.521-0.11-4.868c0.393-1.179,1.224-2.584,1.708-3.133c0.786-0.876,1.653-1.169,1.863-0.813
	C21.556,27.809,20.332,31.205,20.021,31.973z M28.689,36.118c-0.211,0.11-0.412,0.184-0.503,0.129
	c-0.063-0.037,0.091-0.184,0.091-0.184s1.088-1.169,1.517-1.698c0.246-0.312,0.539-0.677,0.85-1.087c0,0.037,0,0.082,0,0.119
	C30.644,34.795,29.292,35.734,28.689,36.118z M35.374,34.594c-0.155-0.109-0.128-0.476,0.393-1.616
	c0.201-0.447,0.676-1.197,1.488-1.919c0.092,0.293,0.155,0.576,0.146,0.84C37.392,33.661,36.132,34.32,35.374,34.594z"/>
</svg>
