<svg xmlns="http://www.w3.org/2000/svg" xmlns:xlink="http://www.w3.org/1999/xlink" width="140" height="1260" viewBox="0 0 140 1260"><svg width="140" height="140" viewBox="0 0 140 140" id="bootstrap" y="0"><g><linearGradient id="aaa" gradientUnits="userSpaceOnUse" x1="293.126" y1="-337.208" x2="405.878" y2="-222.487" gradientTransform="matrix(1 0 0 -1 -279.5 -209)"><stop offset="0" stop-color="#070135"/><stop offset="1" stop-color="#612D50"/></linearGradient><path fill="url(#aaa)" d="M26.918 6.326h86.657c11.42 0 20.68 9.258 20.68 20.68v87.187c0 11.42-9.26 20.68-20.68 20.68H26.918c-11.42 0-20.68-9.26-20.68-20.68V27.006c0-11.422 9.26-20.68 20.68-20.68z"/><path fill="#fff" d="M71.212 61.665c3.27 0 5.75-.71 7.438-2.133 1.69-1.422 2.532-3.52 2.532-6.294 0-2.738-.843-4.817-2.532-6.24-1.69-1.46-4.168-2.187-7.438-2.187H59.734v16.854h11.478m.702 34.828c4.167 0 7.293-.87 9.377-2.613 2.12-1.743 3.18-4.375 3.18-7.895 0-3.448-1.042-6.027-3.126-7.734-2.084-1.74-5.227-2.612-9.43-2.612h-12.18V96.49h12.18m19.293-28.64c4.454 1.28 7.903 3.645 10.346 7.095 2.443 3.45 3.664 7.68 3.664 12.693 0 7.68-2.62 13.405-7.866 17.174-5.245 3.768-13.22 5.653-23.927 5.653H38.987V30.838h31.15c11.172 0 19.256 1.67 24.25 5.014 5.03 3.34 7.544 8.693 7.544 16.053 0 3.875-.914 7.182-2.747 9.92-1.833 2.702-4.492 4.71-7.976 6.026"/></g></svg>
<svg width="140" height="140" viewBox="0 0 140 140" id="css3" y="140"><g><path fill="#131313" d="M99.927 5.184h-8.23l8.56 9.29v4.42H82.623V13.72h8.56l-8.56-9.29V0h17.304v5.184zm-20.8 0h-8.23l8.56 9.29v4.42H61.825V13.72h8.56l-8.56-9.29V0h17.304v5.184zm-20.594.21H49.65v8.107h8.882v5.395H43.337V0h15.196v5.395z"/><path fill="#1572B6" d="M31.233 128.757L22.207 27.52h99.18l-9.036 101.22L71.736 140l-40.502-11.243z"/><path fill="#33A9DC" d="M71.797 131.395l32.818-9.1 7.722-86.497h-40.54v95.597z"/><g transform="translate(55 142)"><path fill="#fff" d="M16.797-69.524h16.43L34.36-82.24H16.798v-12.415H47.93l-.297 3.33-3.052 34.217H16.798v-12.416z"/><path fill="#EBEBEB" d="M16.87-37.28l-.054.017-13.828-3.735-.884-9.9H-10.36l1.74 19.493 25.433 7.06.058-.015v-12.92z"/><path fill="#fff" d="M32.17-57.634l-1.494 16.628-13.848 3.738v12.917l25.454-7.056.187-2.098 2.158-24.13H32.17z"/><path fill="#EBEBEB" d="M16.84-94.655V-82.24h-29.992l-.25-2.79-.565-6.294-.296-3.33H16.84z"/><path fill="#EBEBEB" d="M16.797-69.523V-57.107H3.143l-.25-2.79-.565-6.295-.297-3.333h14.767z"/></g></g></svg>
<svg width="140" height="140" viewBox="0 0 140 140" id="git" y="280"><path fill="#F03C2E" d="M137.79 63.763L76.663 2.64c-3.52-3.52-9.228-3.52-12.752 0l-12.69 12.694 16.1 16.102c3.74-1.265 8.033-.416 11.014 2.566 3 3 3.84 7.33 2.545 11.084L96.4 60.603c3.754-1.294 8.084-.457 11.083 2.546 4.19 4.187 4.19 10.978 0 15.17-4.19 4.193-10.98 4.193-15.175 0-3.153-3.153-3.93-7.786-2.333-11.668L75.5 52.18v38.084c1.022.508 1.985 1.18 2.836 2.03 4.19 4.19 4.19 10.978 0 15.174-4.19 4.19-10.983 4.19-15.17 0-4.19-4.196-4.19-10.985 0-15.175 1.035-1.034 2.235-1.817 3.514-2.34V51.515c-1.28-.524-2.475-1.3-3.515-2.34-3.173-3.173-3.936-7.832-2.31-11.73l-15.87-15.874L3.07 63.48c-3.52 3.524-3.52 9.234 0 12.756l61.128 61.122c3.52 3.52 9.227 3.52 12.752 0l60.84-60.84c3.52-3.52 3.52-9.234 0-12.755"/></svg>
<svg width="140" height="140" viewBox="0 0 140 140" id="html5" y="420"><path fill="#E44D26" d="M31.434 128.755l-9.026-101.24h99.185l-9.036 101.224L71.94 140z"/><path fill="#F16529" d="M72 131.393l32.82-9.1 7.722-86.502H72z"/><path fill="#EBEBEB" d="M72 73.34H55.57l-1.135-12.715H72V48.208H40.864l.297 3.33 3.053 34.22H72zM72 105.588l-.055.015-13.828-3.735-.885-9.902H44.768l1.74 19.496 25.434 7.06.058-.015z"/><path d="M31.636 0h6.31v6.234h5.772V0h6.31v18.88h-6.31v-6.322h-5.772v6.32h-6.31V0zM58.327 6.26h-5.555V0h17.423v6.26h-5.558v12.62h-6.31V6.26zM72.96 0h6.58l4.048 6.633L87.63 0h6.583v18.88H87.93V9.52l-4.342 6.714h-.11L79.136 9.52v9.358H72.96V0zM97.354 0h6.312v12.64h8.874v6.24H97.354V0z"/><path fill="#fff" d="M71.957 73.34v12.417h15.29l-1.44 16.104-13.85 3.74v12.918l25.455-7.056.188-2.098 2.918-32.69.3-3.333h-3.344zM71.957 48.208v12.417h29.993l.25-2.79.565-6.296.297-3.332z"/></svg>
<svg width="140" height="140" viewBox="0 0 140 140" id="javascript" y="560"><path fill="#F0DB4F" d="M.5.5h139v139H.5z"/><path fill="#323330" d="M128.123 106.35c-1.017-6.344-5.152-11.668-17.4-16.635-4.255-1.957-9-3.355-10.412-6.58-.502-1.875-.567-2.934-.25-4.07.91-3.686 5.31-4.836 8.8-3.78 2.245.755 4.373 2.485 5.655 5.247 5.998-3.885 5.985-3.86 10.174-6.527-1.534-2.38-2.354-3.475-3.357-4.493-3.606-4.03-8.522-6.104-16.384-5.946-1.362.172-2.735.357-4.097.53-3.925.99-7.664 3.05-9.857 5.812-6.58 7.465-4.704 20.534 3.303 25.91 7.888 5.92 19.476 7.27 20.955 12.804 1.44 6.78-4.98 8.973-11.362 8.193-4.704-.98-7.32-3.37-10.147-7.717-5.206 3.012-5.206 3.012-10.558 6.09 1.27 2.775 2.603 4.03 4.73 6.436 10.068 10.213 35.265 9.713 39.784-5.748.184-.528 1.4-4.07.42-9.526zm-52.06-41.965h-13c0 11.23-.054 22.383-.054 33.613 0 7.148.37 13.7-.793 15.71-1.902 3.952-6.83 3.464-9.077 2.696-2.286-1.123-3.45-2.723-4.796-4.982-.37-.646-.648-1.148-.74-1.188-3.528 2.152-7.043 4.32-10.57 6.473 1.757 3.607 4.347 6.738 7.664 8.775 4.954 2.973 11.613 3.883 18.577 2.285 4.532-1.322 8.442-4.057 10.49-8.22 2.96-5.456 2.325-12.063 2.3-19.368.066-11.918 0-23.836 0-35.795z"/></svg>
<svg viewBox="0 0 140 140" enable-background="new 0 0 140 140" width="140" height="140" id="mongoDB" y="700"><linearGradient id="afa" gradientUnits="userSpaceOnUse" x1="-578.379" y1="-759.647" x2="-622.645" y2="-759.949" gradientTransform="matrix(-.977 -.323 .29 -.877 -296.393 -781.853)"><stop offset=".231" stop-color="#999875"/><stop offset=".563" stop-color="#9B9977"/><stop offset=".683" stop-color="#A09F7E"/><stop offset=".768" stop-color="#A9A889"/><stop offset=".837" stop-color="#B7B69A"/><stop offset=".896" stop-color="#C9C7B0"/><stop offset=".948" stop-color="#DEDDCB"/><stop offset=".994" stop-color="#F8F6EB"/><stop offset="1" stop-color="#FBF9EF"/></linearGradient><path fill="url(#afa)" d="M73.2 140l-3.8-1.2s.5-19-6.4-20.3c-4.5-5.2.7-223.7 17.1-.7 0 0-5.6 2.8-6.7 7.6-1 4.7-.2 14.6-.2 14.6z"/><linearGradient id="afb" gradientUnits="userSpaceOnUse" x1="-571.562" y1="-682.174" x2="-635.246" y2="-792.478" gradientTransform="matrix(-.977 -.323 .29 -.877 -296.393 -781.853)"><stop offset="0" stop-color="#48A547"/><stop offset="1" stop-color="#3F9143"/></linearGradient><path fill="url(#afb)" d="M75.2 121.6s32.6-21.5 25-66.1C92.9 23.1 75.5 12.4 73.6 8.4c-2.1-2.9-4.1-8-4.1-8l1.4 90.3s-2.9 27.6 4.3 30.9z"/><linearGradient id="afc" gradientUnits="userSpaceOnUse" x1="-565.728" y1="-761.467" x2="-610.868" y2="-731.146" gradientTransform="matrix(-.977 -.323 .29 -.877 -296.393 -781.853)"><stop offset="0" stop-color="#41A247"/><stop offset=".352" stop-color="#4BA74B"/><stop offset=".956" stop-color="#67B554"/><stop offset="1" stop-color="#69B655"/></linearGradient><path fill="url(#afc)" d="M67.5 122.8s-30.6-20.9-28.8-57.7c1.8-36.8 23.4-55 27.6-58.2 2.7-2.9 2.8-4 3-6.9 1.9 4.1 1.6 61.2 1.8 67.9.8 26-1.4 50-3.6 54.9z"/></svg>
<svg viewBox="0 0 140 140" enable-background="new 0 0 140 140" width="140" height="140" id="node.js" y="840"><path fill="#83CD29" d="M69.956-.02c-1.9 0-3.7.4-5.3 1.3l-51.4 29.7c-3.3 1.9-5.3 5.5-5.3 9.4v59.3c0 3.8 2 7.5 5.3 9.4l13.4 7.7c6.5 3.2 8.9 3.2 11.9 3.2 9.7 0 15.2-5.9 15.2-16v-58.5c0-.8-.7-1.4-1.5-1.4h-6.4c-.8 0-1.5.6-1.5 1.4v58.5c0 4.5-4.7 9-12.3 5.2l-14-8.2c-.5-.3-.9-.8-.9-1.3v-59.3c0-.6.4-1.1.9-1.4l51.3-29.6c.5-.3 1-.3 1.5 0l51.3 29.6c.5.3.9.8.9 1.4v59.2c0 .6-.3 1.1-.8 1.4l-51.5 29.6c-.4.3-1 .3-1.5 0l-13.2-7.9c-.4-.2-.9-.2-1.3 0-3.7 2.1-4.3 2.3-7.8 3.5-.8.3-2.1.7.4 2.2l17.2 10.2c1.6.9 3.5 1.4 5.3 1.4 1.9 0 3.7-.5 5.3-1.4l51.4-29.6c3.3-1.9 5.3-5.5 5.3-9.4v-59.3c0-3.9-2-7.5-5.3-9.4l-51.4-29.7c-1.4-.8-3.3-1.2-5.2-1.2zm129.744 543.82c-14.6 0-23.4 6.2-23.4 16.6 0 11.2 8.7 14.3 22.7 15.7 16.8 1.6 18.1 4.1 18.1 7.4 0 5.7-4.6 8.2-15.4 8.2-13.6 0-16.6-3.4-17.6-10.1-.1-.7-.7-1.3-1.4-1.3H176c-.8 0-1.5.7-1.5 1.5 0 8.6 4.7 18.9 27.2 18.9 16.3 0 25.6-6.4 25.6-17.6 0-11.1-7.6-14.1-23.4-16.2-15.9-2.1-17.5-3.1-17.5-6.9 0-3.1 1.3-7.2 13.1-7.2 10.5 0 14.4 2.3 16 9.4.1.7.7 1.2 1.4 1.2h6.7c.4 0 .8-.3 1.1-.5.3-.3.5-.7.4-1.1-.8-12.3-9-18-25.4-18z"/></svg>
<svg width="140" height="140" viewBox="0 0 300 160" id="php" y="980"><defs><linearGradient x1="150" y1="84" x2="299" y2="84" id="aha" gradientUnits="userSpaceOnUse"><stop offset="0" stop-color="#dddce9"/><stop offset=".37" stop-color="#5664a3"/><stop offset="1"/></linearGradient><radialGradient cx="77.914" cy="-48.545" r="146" fx="77.914" fy="-48.545" id="ahb" xlink:href="#aha" gradientUnits="userSpaceOnUse" gradientTransform="matrix(1.509 0 0 1.358 -39.029 76.958)"/></defs><ellipse cx="150" cy="80" rx="146" ry="76" fill="#6c7eb7" stroke="url(#ahb)" stroke-width="5.5"/><path d="M45 125l16-81h37c16 1 24 9 24 23 0 24-19 38-36 37H68l-4 21H45zm27-36l5-30h13c7 0 12 3 12 9-1 17-9 20-18 21H72z" id="ahc" fill-rule="evenodd" stroke="#fff" stroke-width="2" stroke-linejoin="round"/><path d="M116 104l16-81h19l-4 21h18c16 1 22 9 20 19l-7 41h-20l7-37c1-5 1-8-6-8h-15l-9 45h-19z" stroke="#fff" stroke-width="2" stroke-linejoin="round"/><use transform="translate(134)" xlink:href="#ahc"/></svg>
<svg width="140" height="140" viewBox="0 0 140 140" id="wordpress" y="1120"><g fill="#464342"><path d="M17.708 71.26c0 20.803 12.09 38.78 29.62 47.3L22.257 49.87c-2.916 6.536-4.55 13.77-4.55 21.388zM105.74 68.608c0-6.495-2.333-10.993-4.334-14.494-2.664-4.33-5.16-7.995-5.16-12.324 0-4.83 3.663-9.328 8.824-9.328.232 0 .453.03.68.042-9.35-8.566-21.807-13.796-35.488-13.796-18.36 0-34.513 9.42-43.91 23.688 1.233.037 2.395.062 3.382.062 5.497 0 14.006-.667 14.006-.667 2.833-.166 3.167 3.995.337 4.33 0 0-2.847.335-6.015.5L57.2 103.548l11.5-34.492-8.187-22.435c-2.83-.166-5.51-.5-5.51-.5-2.833-.167-2.5-4.497.33-4.33 0 0 8.68.667 13.844.667 5.496 0 14.007-.667 14.007-.667 2.834-.167 3.168 3.994.336 4.33 0 0-2.853.334-6.015.5l18.992 56.494 5.24-17.517c2.275-7.27 4.003-12.49 4.003-16.99zM71.184 75.857l-15.768 45.818c4.708 1.385 9.687 2.142 14.846 2.142 6.12 0 11.99-1.06 17.452-2.98-.14-.224-.27-.463-.374-.723L71.184 75.857zM116.376 46.046c.226 1.675.354 3.472.354 5.404 0 5.333-.996 11.328-3.996 18.824L96.68 116.687c15.624-9.11 26.134-26.038 26.134-45.427 0-9.136-2.334-17.728-6.438-25.214zM70.262 10C36.482 10 9 37.48 9 71.26c0 33.783 27.483 61.264 61.262 61.264 33.778 0 61.265-27.48 61.265-61.264C131.525 37.48 104.04 10 70.262 10zm0 119.715c-32.23 0-58.453-26.223-58.453-58.455 0-32.23 26.22-58.45 58.452-58.45 32.23 0 58.45 26.22 58.45 58.45 0 32.232-26.22 58.455-58.45 58.455z"/></g></svg>
</svg>