<?xml version="1.0" encoding="utf-8"?>
<!-- Generator: Adobe Illustrator 16.0.4, SVG Export Plug-In . SVG Version: 6.00 Build 0)  -->
<!DOCTYPE svg PUBLIC "-//W3C//DTD SVG 1.1//EN" "http://www.w3.org/Graphics/SVG/1.1/DTD/svg11.dtd">
<svg version="1.1" id="Layer_1" xmlns="http://www.w3.org/2000/svg" xmlns:xlink="http://www.w3.org/1999/xlink" x="0px" y="0px"
	 width="140px" height="140px" viewBox="0 0 140 140" enable-background="new 0 0 140 140" xml:space="preserve">
<g>
	<g>
		<path fill="#464342" d="M17.708,71.26c0,20.803,12.089,38.779,29.619,47.299L22.258,49.872
			C19.342,56.408,17.708,63.642,17.708,71.26z"/>
		<path fill="#464342" d="M105.74,68.608c0-6.495-2.333-10.993-4.334-14.494c-2.664-4.329-5.161-7.995-5.161-12.324
			c0-4.831,3.664-9.328,8.825-9.328c0.232,0,0.453,0.029,0.681,0.042C96.4,23.938,83.943,18.708,70.262,18.708
			c-18.36,0-34.513,9.42-43.91,23.688c1.233,0.037,2.395,0.062,3.382,0.062c5.497,0,14.006-0.667,14.006-0.667
			c2.833-0.167,3.167,3.994,0.337,4.329c0,0-2.847,0.335-6.015,0.501L57.2,103.547l11.501-34.492L60.513,46.62
			c-2.83-0.166-5.511-0.501-5.511-0.501c-2.832-0.166-2.5-4.496,0.332-4.329c0,0,8.679,0.667,13.843,0.667
			c5.496,0,14.007-0.667,14.007-0.667c2.834-0.167,3.168,3.994,0.336,4.329c0,0-2.853,0.335-6.015,0.501l18.992,56.494l5.241-17.517
			C104.012,78.328,105.74,73.107,105.74,68.608z"/>
		<path fill="#464342" d="M71.184,75.857l-15.768,45.818c4.708,1.385,9.687,2.142,14.846,2.142c6.12,0,11.989-1.059,17.452-2.979
			c-0.141-0.225-0.269-0.464-0.374-0.724L71.184,75.857z"/>
		<path fill="#464342" d="M116.376,46.046c0.226,1.675,0.354,3.472,0.354,5.404c0,5.333-0.996,11.328-3.996,18.824l-16.053,46.413
			c15.623-9.111,26.133-26.038,26.133-45.427C122.814,62.124,120.48,53.532,116.376,46.046z"/>
		<path fill="#464342" d="M70.262,10C36.483,10,9,37.481,9,71.26c0,33.783,27.483,61.264,61.262,61.264
			c33.778,0,61.265-27.48,61.265-61.264C131.525,37.481,104.04,10,70.262,10z M70.262,129.715c-32.23,0-58.453-26.223-58.453-58.455
			c0-32.229,26.222-58.45,58.453-58.45c32.229,0,58.45,26.221,58.45,58.45C128.712,103.492,102.491,129.715,70.262,129.715z"/>
	</g>
</g>
</svg>
