<?xml version="1.0" encoding="utf-8"?>
<!-- Generator: Adobe Illustrator 18.1.0, SVG Export Plug-In . SVG Version: 6.00 Build 0)  -->
<svg version="1.1" id="Layer_1" xmlns="http://www.w3.org/2000/svg" xmlns:xlink="http://www.w3.org/1999/xlink" x="0px" y="0px"
	 viewBox="0 0 50 50" enable-background="new 0 0 50 50" xml:space="preserve">
<path fill="#064F68" d="M41.9,48c0,1.1-7.5,2-16.9,2S8.1,49.1,8.1,48c0-1.1,8.9-2,16.9-2C34.5,45.9,41.9,46.8,41.9,48z"/>
<g>
	<path fill="#E9F6FD" d="M40.8,33.2c-0.5,0-1.1-0.2-1.5-2.1c-0.4-1.8-1-3.7-1-3.7c0.6,0,1-0.3,1-0.3c-0.4-0.2-1.4-0.9-2-1.7
		c-0.6-0.8-2.3-2.2-2.3-2.2s0-0.9,0-2.7c0-1.8,1.2-3.3,1.2-3.3c-0.8,0-1.2,0.7-1.2,0.7s0,0,0-3.9s1.9-5.6,1.9-5.6
		c-0.6,0-1,0.2-1,0.2c0.3-2.8,1.2-3.7,1.2-3.7c-3.2-0.8-5,1-5,1c-0.4-1.7,1.1-2.7,1.1-2.7c-1.6-0.4-3,0.1-3,0.1c0-2.5,1-3.4,1-3.4
		c-5,0-7.9,3.8-7.9,3.8c-0.2-1.6,0.2-3,0.2-3c-4.9,2-6.1,6.6-6.1,6.6C17.1,6.6,17,4.8,17,4.8s-2,3.4-2.4,5.7c-0.4,2.3,0.3,9,0.3,9
		s-0.3-0.4-1-0.5c0,0,0.7,0.8,0.7,2.6c0,0-0.3-0.2-0.8-0.1c0,0,0.8,0.7,0.8,1.8c0,0-0.9,0.6-1.4,1.2c0,0-0.8,0-1.2,0.2
		c0,0,0.6,0.4,0.8,0.7c0,0-1.9,1.9-2.8,3.5c0,0,0.8-0.5,1.4-0.4c0,0-1.3,1.6-1.8,4.3c0,0,0.6-0.3,0.9-0.2c0,0-0.8,1.7-0.8,3.5
		L9,36.6l0.7,0.5c0,0-0.5,2.2-0.6,3.4c0,0,0.4-0.4,0.7-0.5c0,0,0.4,1,1,1.8c0.6,0.8,2,1.5,2.8,1.5l1.5-0.1c-0.2,0.8-0.6,1.5-1.3,1.5
		l-0.1,0.1c0,0,0,0,0,0c0,0.2-0.5,0.3-0.6,0.4c-0.4,0.5-0.7,1.2-0.9,1.8c-0.1,0.4-0.1,0.4-0.2,0.9c0,0.1-0.2,0.3-0.2,0.5
		c0.4-0.1,1.6-0.2,2.3-0.3l0,0.6c0,0,0.1,0.1,0.3,0.2c0,0,0,0,0,0c0.1,0,0.1,0,0.2,0c0.9-0.1,1.6,0.1,2.7,0c0.2,0,0.4-0.1,0.6-0.2
		c0.1-0.2,0.1-0.2,0.1-0.4c0,0,0-0.1,0-0.1c0,0,0,0,0.1,0c0,0,0,0,0,0c0,0,0,0,0,0c0,0,0,0,0.1,0c0,0,0,0,0,0c0.2,0,0.5,0,0.7,0
		c0.6,0,1.5,0.1,1.5,0.1c0.1-0.7,0.1-1.9,1.3-5.1l0.3-0.2c0,0,3.6,1.3,7-0.1c0.3,0.7,1.1,2.8,1.3,4.2c0.1,0.2,0.1,0.4,0.1,0.6
		c0,0.2,0,0.4,0,0.6c0.1,0,0.6-0.1,1.1-0.1c0.2,0,0.5,0,0.7,0c0,0,0,0,0,0c0,0,0,0,0.1,0c0,0,0,0,0,0c0,0,0,0,0,0c0,0,0,0,0.1,0
		c0,0,0,0.1,0,0.1c0,0.2,0,0.2,0.1,0.4c0,0,0,0,0.1,0c0.6-0.1,1.2-0.1,1.8-0.1c0.5,0,0.9,0.1,1.4,0.2c0,0,0,0,0,0c0,0,0.1,0,0.1,0
		c0.3,0,0.5,0.1,0.8,0.1c0-0.3,0-0.6,0-0.8c0.5,0,1.2,0.1,1.5,0.2c0.1,0,0.2,0,0.3,0.1c0,0,0,0,0,0c0,0,0,0,0,0
		c0.1,0,0.2,0.1,0.4,0.1c0-0.3,0-0.3-0.1-0.6c0-0.3-0.2-1.1-0.6-1.4c0,0,0.4,0.2,0.5,0.2c-0.4-0.5-0.6-1.2-1.8-1.8
		c0,0,0.2-0.1,0.4-0.1c-0.2-0.1-0.4-0.2-0.6-0.2c0.1-0.2,0.4-0.7,0.7-0.8c0,0-0.2-0.1-0.4,0c-0.1,0.1-0.2,0.1-0.3,0.2
		c0,0-0.1,0-0.1,0c-0.1-0.3-0.1-0.6-0.2-0.9c2.4-0.1,2.7-1.3,2.7-1.3c0.2,0.2,0.2,0.5,0.2,0.5c1-1.4,0.9-2.7,0.9-2.7
		c0.2,0,0.4,0.2,0.4,0.2c0.1-2.1-0.5-5.7-0.5-5.7c0.3,0.2,0.5,0,0.5,0c-0.4-0.2-0.4-0.6-0.4-0.6C40.7,33.7,40.8,33.2,40.8,33.2z"/>
</g>
<path fill="#CCE9F4" d="M17.9,48.3c0,0,0.1-1-0.2-1.7c0,0,0.6,0,0.7,1.7C18.3,48.3,17.9,48.3,17.9,48.3z"/>
<path fill="#CCE9F4" d="M14.7,44.9L14.7,44.9C14.7,44.9,14.7,44.9,14.7,44.9z"/>
<path fill="#CCE9F4" d="M15.3,48.2C15.3,48.2,15.3,48.2,15.3,48.2C15.3,48.2,15.3,48.2,15.3,48.2L15.3,48.2z"/>
<path fill="#CCE9F4" d="M23.3,3.8c-0.2-1.6,0.2-3,0.2-3c-4.9,2-6.1,6.6-6.1,6.6C17.1,6.6,17,4.8,17,4.8s-2,3.4-2.4,5.7
	c-0.4,2.3,0.3,9,0.3,9s-0.3-0.4-1-0.5c0,0,0.7,0.8,0.7,2.6c0,0-0.3-0.2-0.8-0.1c0,0,0.8,0.7,0.8,1.8c0,0-0.9,0.6-1.4,1.2
	c0,0-0.8,0-1.2,0.2c0,0,0.6,0.4,0.8,0.7c0,0-1.9,1.9-2.8,3.5c0,0,0.8-0.5,1.4-0.4c0,0-1.3,1.6-1.8,4.3c0,0,0.6-0.3,0.9-0.2
	c0,0-0.8,1.7-0.8,3.5L9,36.6l0.7,0.5c0,0-0.5,2.2-0.6,3.4c0,0,0.4-0.4,0.7-0.5c0,0,0.4,1,1,1.8c0.6,0.8,2,1.5,2.8,1.5l0.1,0
	c0,0.3-0.1,0.6-0.2,0.8c0,0-0.1,0.1-0.1,0c-0.1-0.1-0.2-0.1-0.3-0.2c-0.3-0.1-0.4,0-0.4,0c0.3,0.1,0.6,0.6,0.7,0.8
	c-0.2,0-0.4,0-0.6,0.2c0.2,0,0.4,0.1,0.4,0.1c-1.2,0.5-1.4,1.2-1.8,1.8c0.1-0.1,0.5-0.2,0.5-0.2c-0.4,0.3-0.5,1.1-0.6,1.4
	c0,0.3,0,0.3-0.1,0.6c0.3-0.1,0.5-0.1,0.7-0.2c0.4-0.1,1.5-0.2,1.9-0.2L13.9,49c0,0,0,0,0,0c0.2,0,0.4,0,0.6,0c0-0.2,0-0.4,0-0.6
	c0-0.4,0-0.7,0.1-1.1c0,0,0,0,0,0c0.1-0.5,0.4-0.8,0.6-1c0.1-0.1,0.1-0.1,0.1-0.2c0.1-0.1,0.2-0.3,0.3-0.5c0.2-0.5,0.1-1.4-0.2-2.4
	c0.3,0.5,0.7,0.9,0.8,1.1l0-1.2c0,0,0.6,0.6,1.2,1.1c0.3,0.2,0.6,0.6,0.9,0.7c0,0,0-0.1,0.1,0.1l0,0c0,0,0,0,0,0
	c0.3,0.2,0.7,0.3,1,0.5c0,0,0.1,0,0.1,0.1c0.1,0.1,0.4,0.2,0.6,0.3l0.2,2.6c0.2-2.7,1.7-5.3,1.7-5.3l-0.1,0c-0.5-0.1-3.9-1.3-6-5.6
	c-0.1-0.3,0.8,0.3,0.8,0.3c-0.8-2-1.2-5.3-1.2-5.3c0.3,0.2,0.6,0.3,0.6,0.3c-0.6-1.7-0.8-3.8-0.8-5.7c-0.2-10.2,3.6-12.5,3.6-12.5
	c-0.6-0.2-1.3-0.2-1.3-0.2c0.7-1.8,3.2-4.3,3.2-4.3c-0.7,0-3.3,0.7-3.3,0.7c2.1-5.6,4.3-7.1,4.3-7.1c-0.2,1.3,0.4,2.8,0.4,2.8
	C26.8,0.7,30.5,1,30.5,1c0.3-0.6,0.6-1,0.6-1C26.1,0,23.3,3.8,23.3,3.8z"/>
<path fill="#CCE9F4" d="M36.4,48.3c0,0,0-1.5-0.4-2.2c0,0,0.9,0.5,0.9,2.2C36.9,48.3,36.5,48.3,36.4,48.3z"/>
<path fill="#AADAE1" d="M14,40.8c0.6-5.6,0.7-16.5,0.7-16.5c-1.2,2.4-2.2,6.9-2.2,6.9l0.2,1l-0.5-0.2c-0.9,3-0.3,7.1-0.1,8.2
	C12.6,40.6,13.3,40.7,14,40.8z"/>
<path fill="#AADAE1" d="M12.8,40.7c0.2,0.9,0.4,1.7,0.6,2.6c0.2,0,0.3,0,0.3,0c0.1-0.5,0.2-1.4,0.3-2.4
	C13.6,40.9,13.2,40.8,12.8,40.7z"/>
<path fill="#CCE9F4" d="M31.7,45.5C31.6,45.5,31.6,45.5,31.7,45.5c-0.1,0-0.2,0-0.2,0c0,0,0,0,0,0c0.8-0.6,0.9-1.2,0.9-1.2
	c-0.5,0.2-1.1,0.3-1.4,0.4c1.9-1.7,2.2-4.7,2.2-4.7c-0.8,1-1.9,1.8-2.8,2.3l0,0c0,0-0.6,0.3-1.1,0.6c0,0,0,0-0.1,0
	c-0.3,0.1-0.5,0.2-0.7,0.3c0,0,0.4,0.8,0.6,1.3l0,0c0,0,0.6,1.5,0.9,3c0,0.2,0,0.5,0.1,0.6c0,0.2,0,0.4,0,0.4c0.8-0.1,2,0,2,0
	c0,0.1,0.1,0.5,0.1,0.5c0.4-0.1,0.8-0.1,1.2-0.1C33.5,47.4,33.4,45,31.7,45.5z"/>
<path fill="#84BFCD" d="M13.9,41.2c-1.3-0.2-2.5-1.8-2.5-1.8c1,1,2.2,1.2,2.2,1.2c0.2-1.2-0.8-3.9-0.8-3.9c0.7,0.9,1.1,1.9,1.3,2.8
	L13.9,41.2z"/>
<path fill="#AADAE1" d="M17,39.2c0,0,1,1.8,2,2.6c1,0.9,1.9,2.1,2.3,2.8c0,0,0.5-1.2,0.8-1.6C22,43.1,19.1,42.2,17,39.2z"/>
<path fill="#AADAE1" d="M30.6,42.8c0.1-0.2,0.3-0.4,0.5-0.6c0.3-0.3,0.6-0.6,0.8-1c-0.4,0.3-0.8,0.5-1.2,0.8
	c-1.2,0.8-2.1,1.1-2.1,1.1c0.3,0.4,0.8,1.6,0.8,1.6c0.2-0.4,0.7-1.1,1.2-1.7C30.5,42.9,30.6,42.8,30.6,42.8z"/>
<path fill="#5B5A5D" d="M16.6,11.7c-0.1,0-0.5,0-0.5,0c-3.3,0.2-5.7-2.3-5.7-2.3s-0.2,2,1.2,3.8c1.4,1.8,4.4,2.1,4.4,2.1
	c0.1,0.4-0.1,1.3-0.1,1.3s0.9-0.9,1.1-2.7C17,12.5,16.6,11.7,16.6,11.7"/>
<path fill="#737F82" d="M16.6,11.7c-0.1,0-0.5,0-0.5,0c-3.3,0.2-5.7-2.3-5.7-2.3s1.5,4.4,6.6,4C16.9,13.4,17,12.6,16.6,11.7"/>
<path fill="#5B5A5D" d="M33.1,11.7c0.1,0,0.5,0,0.5,0c3.3,0.2,5.7-2.3,5.7-2.3s0.2,2-1.2,3.8c-1.4,1.8-4.4,2.1-4.4,2.1
	c-0.1,0.4,0.1,1.3,0.1,1.3s-0.9-0.9-1.1-2.7C32.6,12.5,33,11.7,33.1,11.7"/>
<path fill="#737F82" d="M33.1,11.7c0.1,0,0.5,0,0.5,0c3.3,0.2,5.7-2.3,5.7-2.3s-1.5,4.4-6.6,4C32.7,13.4,32.6,12.6,33.1,11.7"/>
<path fill="#CCE9F4" d="M15,26.5c0,0-2,8.5,0,14V26.5z"/>
<path fill="#CCE9F4" d="M38.5,40c-1.2,0.9-2.4,1-2.4,1c-0.1-1.2,1.2-3.7,1.2-3.7c-0.3,0.2-0.5,0.4-0.7,0.6l0-0.9l0.9-0.8l-0.7-0.6
	l0.9-3.8l-0.9,0.6c0,0-0.3-5.4-0.1-7.7c0,0-1.1-1.1-1.7-1.6c0,0,0.1,1.7,0.2,4.3c0.5,2.1,1.3,6.5,0.3,10.4c0,0.8,0,1.6,0,2.4
	c0,0,0.5,1.7,0.7,2.9c0,0,0.2,0,0.4,0l0-1.8C37.9,41,38.5,40,38.5,40z"/>
<ellipse fill="#CCE9F4" cx="28.7" cy="23.5" rx="1.3" ry="1.7"/>
<ellipse fill="#FFFFFF" cx="28.7" cy="23.1" rx="1.3" ry="1.6"/>
<path fill="#4E4D50" d="M28.4,22.2c0,0,0,0.1,0,0.1c0,0.2,0.1,0.4,0.3,0.4c0.2,0,0.3-0.1,0.3-0.3c0.1,0.1,0.2,0.3,0.2,0.5
	c0,0.4-0.3,0.8-0.6,0.8c-0.3,0-0.6-0.3-0.6-0.8C27.9,22.6,28.1,22.3,28.4,22.2z"/>
<ellipse fill="#CCE9F4" cx="22.4" cy="23.5" rx="1.3" ry="1.7"/>
<ellipse fill="#FFFFFF" cx="22.5" cy="23.1" rx="1.3" ry="1.6"/>
<path fill="#4E4D50" d="M22.4,22.2c0,0,0,0.1,0,0.1c0,0.2,0.1,0.4,0.3,0.4c0.2,0,0.3-0.1,0.3-0.3c0.1,0.1,0.2,0.3,0.2,0.5
	c0,0.4-0.3,0.8-0.6,0.8c-0.3,0-0.6-0.3-0.6-0.8C21.9,22.6,22.1,22.3,22.4,22.2z"/>
<path fill="#5B5A5D" d="M33.1,21.5c-0.6-0.1-1.6-0.2-2.8-0.1c-1.6,0.1-2.9,0.3-3.8,0.4c-0.2,0-0.4,0.1-0.6,0.1l-0.2,0
	c-0.2,0-0.3,0-0.4,0c-0.1,0-0.2,0-0.4,0l-0.2,0c-0.1,0-0.3-0.1-0.6-0.1c-0.8-0.1-2.2-0.4-3.8-0.4c-1.2-0.1-2.2,0-2.8,0.1
	c0,0-0.6,0.1-1.2,0.3l0.1,0.7c0,0,0.6-0.1,1.1-0.2c0.1,1,0.3,2.2,0.3,2.2l0,0c0,0.1,0,0.1,0,0.2c0.1,0.5,0.2,0.8,0.7,0.9
	c0.4,0.2,1.5,0.3,2.5,0.4c0.4,0,0.8,0,1.3-0.1c0.7-0.1,1.3-0.3,1.5-0.4c0.3-0.2,0.5-0.9,0.6-1.3l0-0.1c0-0.1,0.1-0.3,0.1-0.4
	c0.1-0.2,0.1-0.4,0.1-0.5c0,0,0-0.1,0.2-0.1c0,0,0.1,0,0.2,0c0.1,0,0.1,0,0.2,0c0.1,0,0.2,0.1,0.2,0.1c0,0.1,0.1,0.3,0.1,0.5
	c0,0.1,0.1,0.3,0.1,0.4l0,0.1c0.1,0.4,0.3,1,0.6,1.3c0.2,0.2,0.8,0.4,1.5,0.4c0.5,0.1,0.9,0.1,1.3,0.1c1.1-0.1,2.1-0.2,2.5-0.4
	c0.5-0.2,0.6-0.5,0.7-0.9c0-0.1,0-0.1,0-0.2l0,0c0,0,0.2-1.2,0.3-2.2c0.5,0.1,1.1,0.2,1.1,0.2l0.1-0.7
	C33.7,21.6,33.1,21.5,33.1,21.5z M24.4,23L24.4,23c0,0.2-0.2,1.3-0.4,1.7c-0.2,0.4-0.3,0.5-1,0.6c0,0-0.1,0-0.1,0
	c-0.8,0.1-2.1,0.1-2.9,0l-0.1,0c-0.8-0.2-1.1-0.2-1.2-0.5c-0.1-0.3-0.3-1.9-0.3-2.2c0-0.3,0.2-0.4,0.3-0.4c0,0,0.1,0,0.2,0
	c0.6-0.1,1.8-0.2,2.3-0.1c0.7,0,2.5,0.3,2.9,0.5C24.4,22.6,24.4,22.7,24.4,23z M32.1,24.8c-0.1,0.2-0.4,0.3-1.2,0.5l-0.1,0
	c-0.8,0.1-2.2,0.1-2.9,0c0,0-0.1,0-0.1,0c-0.7-0.1-0.8-0.2-1-0.6c-0.2-0.4-0.4-1.5-0.4-1.7l0,0c0-0.2,0-0.3,0.3-0.5
	c0.4-0.2,2.2-0.4,2.9-0.5c0.6,0,1.8,0.1,2.3,0.1c0.1,0,0.2,0,0.2,0c0.1,0,0.3,0.1,0.3,0.4C32.4,22.9,32.2,24.5,32.1,24.8z"/>
<path fill="#9FD3E8" d="M22.8,19.8c0,0-1.5-0.7-2.3,0.6c0,0-0.1-1.3,1.1-1.4C22.8,18.8,22.8,19.8,22.8,19.8z"/>
<path fill="#9FD3E8" d="M22.3,17.9c0,0-1.3-0.6-2,0.6c0,0-0.2-1.1,0.8-1.3C22.1,16.9,22.3,17.9,22.3,17.9z"/>
<path fill="#9FD3E8" d="M28,20.6c0,0,1.1-0.5,1.8,0.5c0,0,0.1-1-0.8-1.1C28,19.8,28,20.6,28,20.6z"/>
<path fill="#9FD3E8" d="M28.8,18.8c0,0,1.1-0.2,1.3,0.9c0,0,0.4-0.8-0.3-1.2C29.2,18.1,28.8,18.8,28.8,18.8z"/>
<path fill="#B1DDEE" d="M22.7,29.9c0,0,0.8-0.5,1.3-0.6c0,0,0.1,1,0.6,1.5c0,0,1-0.9,2-1c0,0,0.3,0.6,0.7,0.8l0,0
	c0.2,0.1,0.3,0.2,0.5,0.2c0,0,0.6-0.3,0.7-1c0,0,0.1,1.3-0.8,2.1c0,0-0.6-0.3-1.1-0.8c-0.1-0.1-0.3-0.3-0.4-0.4c0,0-1.5,1-1.5,1.6
	c0,0-1.1-1-1.4-1.8c0,0-0.7,0.2-0.9,0.4c0,0-0.6-0.9-0.7-1.8C21.7,29.1,22.4,29.7,22.7,29.9z"/>
<path fill="#5B5A5D" d="M25.4,27.3c-0.1,0,1.5,0.1,3,0.1c0,0,0.1-0.3,0.2-0.5c0,0,0,0.5,0.1,0.6c0,0-0.8,0.3-1.5,0.3
	c0,0,0.8-0.1,1.1-0.3C28.3,27.5,26.8,27.6,25.4,27.3z"/>
</svg>
